<svg width="200" height="130" viewBox="0 0 200 130" fill="none" xmlns="http://www.w3.org/2000/svg">
<path d="M151.896 52.2647C152.803 52.7116 153.797 52.9555 154.808 52.9793C154.864 52.9728 154.919 52.9551 154.969 52.9272C155.019 52.8993 155.063 52.8618 155.098 52.8168C155.133 52.7718 155.159 52.7203 155.174 52.6652C155.189 52.6101 155.193 52.5525 155.186 52.4959C155.102 51.8338 154.356 52.4013 152.285 51.4449L152.39 50.6672C152.443 50.4465 152.18 50.0892 151.896 50.1943C151.613 50.2994 151.539 50.6357 151.455 51.2452C151.371 51.8548 151.329 51.9809 151.896 52.2647ZM42.1963 55.2494C43.461 54.9056 44.6487 54.3242 45.696 53.5364C46.1059 53.2211 45.9693 52.4854 45.8537 52.065C45.8208 51.9559 45.7487 51.8629 45.6514 51.8036C45.5541 51.7444 45.4384 51.7232 45.3264 51.744C45.2144 51.7648 45.114 51.8263 45.0446 51.9165C44.9751 52.0068 44.9413 52.1196 44.9498 52.2332C44.9698 52.4609 45.0121 52.6862 45.076 52.9058C42.5852 54.7239 41.6183 54.272 41.7654 55.0077C41.7981 55.0917 41.8589 55.1617 41.9375 55.2058C42.0161 55.2499 42.1076 55.2653 42.1963 55.2494ZM39.3377 53.3051C41.4396 53.3051 40.725 52.065 40.1574 52.2542L39.3482 52.3803C38.6545 49.0908 39.2116 48.3971 38.6125 48.3761C38.5222 48.3703 38.4331 48.4 38.3644 48.4589C38.2957 48.5178 38.2527 48.6012 38.2447 48.6914C38.1704 49.9909 38.2658 51.2946 38.5284 52.5695C38.644 53.137 38.8542 53.3051 39.3377 53.3051ZM100.367 51.4975C100.967 51.4975 104.119 50.8143 104.655 50.7303C105.444 50.5936 106.379 50.3519 106.442 49.5006C106.442 48.9752 106.064 48.3656 105.633 48.6809C105.543 48.7438 105.477 48.8347 105.445 48.9393C105.412 49.044 105.416 49.1564 105.454 49.2589C105.612 49.6688 105.275 49.6373 100.199 50.7408C100.106 50.7696 100.027 50.8325 99.9779 50.917C99.9288 51.0015 99.9134 51.1013 99.9346 51.1966C99.9558 51.292 100.012 51.3759 100.092 51.4316C100.172 51.4873 100.271 51.5109 100.367 51.4975ZM31.2452 25.7697C31.4764 26.0325 32.0439 25.7697 31.8758 25.3704C30.8248 22.806 28.891 19.9474 27.6719 17.1308C27.4827 16.6789 27.1044 15.9116 26.7365 15.8696C26.6905 15.8631 26.6435 15.8695 26.6009 15.8881C26.5582 15.9066 26.5215 15.9366 26.4948 15.9747C26.2636 16.29 26.5999 17.1623 26.7576 17.5301C27.241 18.5706 29.5847 23.8675 31.2452 25.7697ZM65.3176 21.3346C65.3373 21.4167 65.3782 21.4922 65.4361 21.5536C65.494 21.6149 65.5669 21.6601 65.6477 21.6845C65.7285 21.709 65.8142 21.7119 65.8964 21.6929C65.9787 21.6739 66.0545 21.6337 66.1164 21.5764C66.9841 20.7863 67.7725 19.9133 68.4705 18.97C71.6235 29.0593 71.6235 29.4166 72.1174 29.4166C72.1882 29.4146 72.2578 29.3974 72.3214 29.3662C72.3849 29.335 72.4411 29.2905 72.4859 29.2356C72.5308 29.1808 72.5633 29.117 72.5813 29.0485C72.5994 28.98 72.6024 28.9084 72.5903 28.8386C71.4133 25.1181 70.1731 21.4818 69.1011 17.7719C69.0771 17.6797 69.0264 17.5966 68.9553 17.5331C68.8842 17.4697 68.796 17.4286 68.7017 17.4152C68.6073 17.4017 68.5111 17.4164 68.4251 17.4574C68.3391 17.4984 68.2672 17.564 68.2183 17.6457C67.6148 18.595 66.91 19.476 66.1164 20.2732C65.4858 17.3935 64.0144 10.8144 64.0144 10.8144C63.988 10.7085 63.9205 10.6175 63.8269 10.5613C63.7332 10.5051 63.6211 10.4884 63.5152 10.5149C63.4093 10.5414 63.3182 10.6089 63.2621 10.7025C63.2059 10.7961 63.1892 10.9082 63.2157 11.0141C63.573 12.6431 65.0969 20.6095 65.3176 21.3346ZM10.5726 76.0061C7.18851 74.3876 4.17223 72.7271 0.704033 70.8984C0.0314128 70.5411 -0.431014 71.7707 0.619956 72.0544C3.64796 73.9445 6.87677 75.4919 10.2468 76.6682C10.6672 76.7838 10.9615 76.2373 10.5726 76.0061ZM13.2631 51.7392C13.3354 51.8031 13.4254 51.8434 13.5212 51.8547C13.617 51.866 13.714 51.8477 13.7991 51.8023C14.4928 51.4659 13.5994 50.6357 13.9357 45.6436C22.4591 55.9326 21.9862 55.6698 22.3435 55.6698C22.4175 55.6744 22.4912 55.6578 22.5561 55.6219C22.621 55.586 22.6742 55.5323 22.7095 55.4671C22.7449 55.4019 22.7609 55.328 22.7556 55.2541C22.7503 55.1801 22.724 55.1092 22.6798 55.0498C21.3451 53.3682 15.5017 46.106 13.9462 44.1302C13.8878 44.0561 13.8092 44.0003 13.72 43.9694C13.6308 43.9385 13.5346 43.9339 13.4428 43.956C13.351 43.9781 13.2675 44.0261 13.2021 44.0942C13.1367 44.1623 13.0923 44.2477 13.0739 44.3404C12.8603 46.2598 12.8251 48.1948 12.9688 50.1207C9.81594 47.2936 6.79966 44.2983 3.61522 41.5448C3.51881 41.4674 3.39822 41.4265 3.27464 41.4293C3.15106 41.432 3.03241 41.4782 2.93954 41.5598C2.84667 41.6414 2.78553 41.7531 2.76686 41.8753C2.7482 41.9975 2.77321 42.1223 2.8375 42.2279C4.07765 44.1512 11.0771 49.7529 13.2631 51.7392ZM96.1636 12.7587C96.1636 12.8619 96.2046 12.9608 96.2775 13.0337C96.3504 13.1066 96.4493 13.1476 96.5525 13.1476C96.6556 13.1476 96.7545 13.1066 96.8274 13.0337C96.9003 12.9608 96.9413 12.8619 96.9413 12.7587C97.1215 8.89846 96.9597 5.02982 96.4579 1.19807C96.447 1.09697 96.4071 1.00118 96.343 0.922306C96.2788 0.843435 96.1931 0.784872 96.0963 0.753722C95.9996 0.722572 95.8958 0.720172 95.7977 0.74681C95.6996 0.773449 95.6113 0.827982 95.5435 0.9038C95.0706 1.51336 96.2056 3.43664 96.1636 12.7587ZM124.603 31.0141C132.601 17.5196 132.17 18.1923 132.107 17.9505C131.928 17.341 131.424 17.6352 127.377 18.8544C128.428 15.1234 129.742 11.1402 130.614 7.36726C130.632 7.24526 130.604 7.12089 130.535 7.01862C130.466 6.91634 130.362 6.84355 130.242 6.81457C130.122 6.78559 129.996 6.8025 129.888 6.86199C129.779 6.92148 129.698 7.01924 129.658 7.13605C128.47 11.3399 127.293 15.4492 126.158 19.4849C126.14 19.5684 126.143 19.6551 126.167 19.7369C126.192 19.8188 126.236 19.8932 126.297 19.953C126.358 20.0129 126.433 20.0563 126.516 20.0792C126.598 20.1021 126.685 20.1038 126.768 20.084C126.768 20.084 129.553 19.2222 130.677 18.8544L123.962 30.6568C123.922 30.7411 123.916 30.8373 123.944 30.926C123.973 31.0147 124.034 31.0893 124.115 31.1347C124.197 31.1801 124.292 31.1929 124.383 31.1705C124.473 31.1481 124.552 31.0922 124.603 31.0141ZM199.747 61.839C199.201 61.5763 189.09 67.8611 188.985 67.9346C188.617 68.1974 188.985 68.849 189.364 68.6493C189.973 68.3761 199.632 63.0056 199.957 62.4276C199.982 62.3751 199.997 62.3183 199.999 62.2603C200.002 62.2023 199.994 62.1444 199.974 62.0897C199.955 62.035 199.925 61.9847 199.886 61.9417C199.847 61.8987 199.8 61.8638 199.747 61.839ZM172.989 49.8264C172.989 49.8264 183.121 42.1018 185.013 40.6304C185.422 40.3046 185.013 39.5795 184.529 39.632C182.622 39.6775 180.723 39.892 178.854 40.2731C181.567 37.379 183.969 34.2088 186.021 30.8144C186.368 30.2469 185.528 29.6583 185.191 30.2364C182.876 34.0134 180.12 37.5025 176.983 40.6304C176.647 40.9562 176.857 41.755 177.404 41.6814C179.259 41.2091 181.15 40.8927 183.058 40.7355C183.058 40.7355 175.028 47.199 172.548 49.2484C172.506 49.3154 172.486 49.3936 172.49 49.4724C172.494 49.5513 172.521 49.6271 172.569 49.6898C172.617 49.7526 172.683 49.7992 172.758 49.8236C172.833 49.848 172.914 49.849 172.989 49.8264ZM158.497 19.4009C164.95 8.28161 166.074 6.66311 164.992 6.38986C164.529 6.27426 164.55 6.3163 157.771 19.0015C157.74 19.095 157.742 19.1967 157.777 19.2888C157.813 19.3809 157.88 19.4575 157.967 19.5051C158.053 19.5528 158.154 19.5684 158.251 19.5494C158.347 19.5303 158.435 19.4777 158.497 19.4009Z" fill="white"/>
<path d="M188.281 87.9977C183.993 74.4717 173.158 64.0671 158.528 59.4638C158.518 59.196 158.49 58.9291 158.444 58.6651C162.438 56.9205 163.331 50.9195 162.448 45.6961C163.215 44.4455 165.254 38.0135 163.751 38.8964L161.008 40.5149C160.619 39.4639 160.168 38.4865 159.684 37.5196C159.789 35.838 158.255 32.8323 155.554 30.867C153.073 29.0593 148.807 27.4408 142.585 30.0262C137.729 32.044 132.254 36.5002 131.423 42.9741C130.373 51.3819 133.158 55.4596 127.955 63.2683C122.207 60.6656 116.08 58.998 109.805 58.3288C109.805 57.8578 109.774 57.3873 109.71 56.9205C112.39 55.5647 112.958 51.1507 113.074 49.7108C116.226 46.9783 116.594 41.5343 114.125 41.4082C114.759 37.5081 115.002 33.5543 114.85 29.6058C114.713 27.157 113.662 26.6105 113.179 26.5054C112.837 26.4409 112.485 26.4737 112.162 26.6001C111.838 26.7265 111.557 26.9413 111.35 27.2201C110.562 25.6121 109.048 25.8118 108.197 27.0309C108.113 26.5982 107.896 26.2027 107.575 25.9004C107.255 25.598 106.847 25.4041 106.41 25.346C105.973 25.2879 105.529 25.3686 105.141 25.5767C104.752 25.7847 104.439 26.1096 104.245 26.5054C104.042 26.0716 103.714 25.708 103.303 25.4611C102.892 25.2142 102.417 25.095 101.938 25.1186C101.459 25.1423 100.998 25.3077 100.614 25.594C100.229 25.8802 99.9388 26.2743 99.7788 26.7261C98.7278 24.4455 96.0478 24.971 95.4488 27.2831C94.6606 25.507 92.5061 25.5175 91.7599 27.5774C89.7946 26.1271 88.2496 27.5774 87.9343 29.9631C87.7434 34.0198 87.9122 38.0854 88.4388 42.1123C84.876 41.3136 87.6506 49.6583 89.7735 49.858C90.1414 53.0109 91.4446 56.4791 93.9774 57.3199C93.9774 57.7402 93.9144 58.1711 93.9144 58.5915C87.1191 59.6767 80.5796 61.9954 74.6186 65.4333C71.3395 63.1212 64.0458 59.9788 57.0358 60.5568C55.7657 57.8734 54.81 55.052 54.1877 52.1491C53.7253 49.6162 54.9129 48.6178 54.9024 46.4318C56.2631 43.6896 56.6022 40.5523 55.8588 37.5826C52.5482 27.073 32.5483 31.0666 33.1158 42.6063C33.1893 43.92 33.3049 45.2337 33.4206 46.2531C30.9508 46.9993 31.3186 47.178 32.0017 50.1838C32.3696 51.8233 32.79 53.179 34.5136 52.8217C35.3018 56.2374 37.2881 61.6919 41.9754 61.6919C42.2592 61.6919 41.9754 61.5132 42.2382 63.2789C30.4778 68.3971 15.7117 77.9924 11.8862 94.8079C10.9613 98.8647 10.4043 104.624 13.0528 108.975C15.9639 113.82 21.1137 114.125 24.8131 113.883C23.9472 118.641 23.6684 123.487 23.9828 128.313C23.9848 128.38 24.0052 128.446 24.0418 128.502C24.0785 128.559 24.13 128.604 24.1908 128.634C24.2515 128.663 24.3192 128.675 24.3863 128.669C24.4534 128.662 24.5175 128.637 24.5714 128.597C25.1389 128.26 24.0249 127.903 25.801 113.809C35.7012 112.895 45.1389 108.639 53.8619 104.162C55.3017 105.213 56.7311 106.264 58.2129 107.209C59.4313 109.673 61.2983 111.757 63.6131 113.239C65.9278 114.72 68.6028 115.543 71.35 115.617C71.0873 120.041 71.0873 124.477 71.35 128.901C71.354 128.955 71.3686 129.007 71.3931 129.055C71.4176 129.102 71.4515 129.145 71.4927 129.179C71.5339 129.213 71.5816 129.239 71.6329 129.255C71.6842 129.27 71.7382 129.275 71.7915 129.269C72.6953 129.185 71.5287 128.733 72.2434 115.607C80.9874 115.607 88.1656 109.9 95.3647 105.538C103.836 109.416 124.603 116.637 135.585 114.556C136.09 119.033 136.016 123.279 136.447 127.609C136.461 127.686 136.502 127.757 136.562 127.807C136.623 127.858 136.699 127.886 136.778 127.886C136.857 127.886 136.934 127.858 136.994 127.807C137.055 127.757 137.095 127.686 137.109 127.609C137.385 123.184 137.206 118.744 136.573 114.356C144.193 112.548 148.87 107.178 150.11 98.8332C150.614 98.4968 151.161 98.1185 151.728 97.6876C158.234 100.283 171.697 106.6 178.276 106.831C177.971 111.718 177.54 116.878 177.466 121.944C177.481 122.03 177.526 122.107 177.592 122.163C177.658 122.219 177.742 122.25 177.829 122.25C177.916 122.25 178 122.219 178.066 122.163C178.133 122.107 178.177 122.03 178.192 121.944C178.339 120.546 179.295 108.618 179.243 106.8C189.773 106.558 191.434 97.9398 188.281 87.9977ZM113.284 43.0792C113.568 42.7009 113.725 42.2595 114.135 42.3856C115.606 42.8165 114.429 46.4739 113.2 48.1029C113.305 46.4318 113.336 44.7398 113.284 43.0792ZM88.1971 43.0792C88.5334 43.0792 88.4914 43.2264 89.2481 43.3735L89.6684 48.5653C88.113 47.1255 86.9885 43.1002 88.1971 43.1002V43.0792ZM161.218 42.0283C161.263 41.8805 161.365 41.7566 161.501 41.6836C161.637 41.6107 161.796 41.5948 161.944 41.6394C162.091 41.684 162.215 41.7854 162.288 41.9214C162.361 42.0574 162.377 42.2168 162.333 42.3646C161.965 43.6678 161.681 44.6136 161.439 45.5175C161.377 45.6299 161.29 45.7264 161.184 45.7994C161.078 45.8723 160.957 45.9197 160.83 45.9379C159.905 45.9694 160.893 42.9741 161.218 42.0072V42.0283ZM143.531 46.2321C144.13 45.7802 144.855 46.3582 144.97 46.3688C145.958 46.9993 147.072 46.085 146.789 45.8223L146.578 45.6541C145.801 45.0445 144.203 43.7834 144.54 42.9216C144.792 42.27 145.822 42.3646 146.494 42.333C146.518 42.3323 146.542 42.3262 146.563 42.3151C146.584 42.304 146.602 42.2882 146.617 42.269C146.631 42.2497 146.64 42.2275 146.645 42.204C146.649 42.1805 146.648 42.1564 146.642 42.1333C146.536 41.797 146.41 41.4607 146.284 41.0824C150.256 39.1125 154.611 38.0363 159.043 37.9295C159.495 38.9804 159.884 39.9789 160.231 40.9668C158.917 41.713 157.424 42.5327 157.078 44.0251C156.765 43.9863 156.448 44.0181 156.15 44.1181C155.852 44.2182 155.58 44.3839 155.354 44.6031C153.704 42.6168 146.873 42.7849 145.496 42.8375C143.72 42.9111 148.407 46.4949 149.7 47.5038C154.04 50.8774 156.878 48.5548 155.795 45.4754C155.947 45.2894 156.147 45.148 156.372 45.0666C156.598 44.9851 156.842 44.9666 157.078 45.013C157.117 45.2127 157.18 45.4068 157.267 45.591C157.215 45.5651 157.157 45.5516 157.099 45.5516C157.04 45.5516 156.983 45.5651 156.931 45.591C156.5 45.8643 156.931 46.2321 157.918 47.9872C157.797 48.1112 157.667 48.2271 157.53 48.3341C157.13 48.6283 157.477 49.9105 158.812 48.3341C159.011 48.0923 158.633 47.3882 158.213 46.7681C158.72 47.1139 159.328 47.2809 159.941 47.2429C160.554 47.2048 161.136 46.9638 161.597 46.5579C162.056 49.3795 161.796 52.2715 160.84 54.9657C159.789 57.5406 157.151 57.6877 157.687 58.6651C157.826 62.1301 157.544 65.5991 156.846 68.9961C154.145 68.4076 148.828 61.818 146.705 58.7597C146.924 56.2042 146.595 53.6312 145.738 51.2137C145.034 49.9946 143.636 49.4376 143.268 48.0608C143.124 47.7538 143.073 47.4118 143.119 47.0761C143.166 46.7404 143.309 46.4254 143.531 46.1691V46.2321ZM159.463 44.477C159.348 44.8238 159.274 45.3073 158.896 45.3073C158.517 45.3073 158.328 44.8659 158.37 44.4875C158.412 44.1092 158.517 43.2369 158.917 43.0057C158.994 42.9677 159.078 42.9479 159.164 42.9479C159.25 42.9479 159.334 42.9677 159.411 43.0057C159.905 43.1423 159.642 43.878 159.463 44.4139V44.477ZM153.799 46.8942C153.683 47.178 153.567 47.693 153.231 47.8506C153.172 47.8794 153.107 47.8944 153.042 47.8944C152.976 47.8944 152.912 47.8794 152.853 47.8506C152.222 47.6194 152.916 45.2757 153.483 44.8238C153.533 44.7734 153.594 44.7363 153.662 44.7159C153.73 44.6955 153.801 44.6925 153.871 44.7071C153.94 44.7218 154.004 44.7537 154.058 44.7998C154.111 44.8459 154.152 44.9048 154.177 44.971C154.398 45.4544 153.862 46.6735 153.799 46.8312V46.8942ZM151.497 45.8748C151.36 46.148 151.297 46.4003 150.94 46.4003C150.856 46.4061 150.772 46.3912 150.695 46.3569C150.618 46.3226 150.55 46.27 150.499 46.2036C150.447 46.1372 150.412 46.0591 150.397 45.9761C150.383 45.8931 150.389 45.8078 150.415 45.7277C150.53 45.3808 150.656 44.5926 151.077 44.3824C151.143 44.3516 151.215 44.3349 151.289 44.3331C151.362 44.3314 151.435 44.3447 151.503 44.3723C151.571 44.3999 151.633 44.4412 151.684 44.4935C151.735 44.5459 151.775 44.6082 151.802 44.6767C151.949 45.0235 151.707 45.4964 151.497 45.8748ZM146.242 59.3482C149.227 64.498 157.088 71.9599 157.698 69.4586C158.385 66.4893 158.703 63.4464 158.644 60.3992C173.042 65.4859 182.816 74.808 187.072 87.3881C183.991 85.9176 180.606 85.1973 177.193 85.2862C177.046 81.8285 172.306 75.1443 170.488 73.137C170.12 72.7271 169.437 73.2526 169.836 73.6624C172.562 76.7493 174.649 80.3466 175.974 84.2457C170.824 80.3676 160.451 74.9551 146.232 79.4112C142.543 73.1144 137.156 67.9827 130.688 64.6031C135.342 61.5591 140.695 59.7507 146.242 59.3482ZM91.4341 35.6384C97.7541 33.9133 104.395 33.7224 110.803 35.0813C110.696 36.8624 110.752 38.6496 110.972 40.4203H110.782C109.91 36.4056 104.319 35.1654 102.438 39.3693C101.477 39.0434 100.435 39.0434 99.474 39.3693C97.6558 35.5858 92.3905 36.8049 91.4236 40.5464H91.2239C91.4448 38.9203 91.5152 37.2773 91.4341 35.6384ZM105.727 44.2878C105.916 43.7518 107.619 39.7792 108.723 39.6636C108.814 39.6624 108.905 39.6832 108.987 39.7241C109.07 39.765 109.141 39.8249 109.195 39.8989C109.25 39.9729 109.286 40.0587 109.3 40.1494C109.315 40.2401 109.308 40.3329 109.28 40.4203C108.341 41.7568 107.505 43.162 106.778 44.6241C106.515 45.2757 105.486 45.0235 105.727 44.2878ZM104.203 42.8165C104.077 43.1318 103.51 43.3209 103.31 42.9531C103.11 42.5853 103.594 41.1875 104.96 39.1381C105.307 38.6231 105.633 38.3709 105.916 38.4129C106.009 38.4393 106.093 38.4879 106.163 38.5544C106.232 38.6209 106.284 38.7034 106.314 38.7946C106.344 38.8858 106.351 38.983 106.335 39.0777C106.319 39.1724 106.28 39.2617 106.221 39.3378C105.421 40.4187 104.745 41.5855 104.203 42.8165ZM95.0599 44.5611C95.5118 43.5732 96.0163 42.5748 96.4998 41.5974C96.5514 41.5031 96.6274 41.4244 96.7198 41.3696C96.8123 41.3148 96.9178 41.2859 97.0252 41.2859C97.1327 41.2859 97.2382 41.3148 97.3307 41.3696C97.4231 41.4244 97.4991 41.5031 97.5507 41.5974C97.6167 41.6971 97.6519 41.8141 97.6519 41.9337C97.6519 42.0533 97.6167 42.1702 97.5507 42.27C97.0883 43.1843 96.6154 44.1407 96.1109 45.0656C95.7115 45.591 94.7446 45.1917 95.0599 44.5611ZM93.7883 43.2369L93.7252 43.3104C93.3994 43.7834 92.5796 43.4786 92.8003 42.8795C93.4071 41.2648 94.1821 39.7184 95.1125 38.2658C95.5644 37.7193 96.4787 38.1922 96.1634 38.8333C95.4173 40.3257 94.5029 41.7235 93.7883 43.2369ZM90.0363 43.3315C90.7089 43.0477 90.8981 42.2805 91.0873 41.6184L91.308 41.5553C91.2529 42.2844 91.3425 43.0172 91.5715 43.7116C91.8006 44.406 92.1646 45.0483 92.6427 45.6016C93.2095 46.1582 93.9199 46.5465 94.6945 46.723C95.4691 46.8995 96.2775 46.8573 97.0296 46.6012C97.7816 46.345 98.4477 45.885 98.9536 45.2724C99.4594 44.6598 99.7851 43.9187 99.8944 43.1318C99.7857 44.1439 99.7401 45.1618 99.7578 46.1796C99.7578 46.8102 99.6106 47.5984 100.388 47.6509H101.439C101.986 47.6509 102.133 46.7051 101.502 46.6946H100.725C100.663 44.822 100.765 42.9477 101.029 41.0929C101.103 40.5779 100.357 40.5043 100.252 40.9878C99.7893 43.2474 100.252 41.9547 99.8418 40.2836C100.576 40.0205 101.378 40.0205 102.112 40.2836C101.881 41.1262 101.835 42.009 101.978 42.871C102.122 43.7329 102.451 44.5534 102.942 45.2757C103.317 45.7609 103.791 46.1599 104.333 46.4458C104.876 46.7316 105.473 46.8976 106.085 46.9325C106.697 46.9674 107.309 46.8703 107.88 46.6479C108.451 46.4256 108.968 46.0831 109.395 45.6436C110.428 44.4914 110.977 42.9861 110.93 41.4397H111.129C111.255 42.354 111.445 43.6152 112.411 43.5416C112.306 47.136 112.622 53.2946 109.774 55.5437C109.406 55.838 108.985 56.1743 108.933 56.5106C108.801 57.6243 108.801 58.7495 108.933 59.8632C109.238 62.7744 104.14 68.5337 101.502 70.993C96.4157 64.0776 94.9548 63.3945 94.9653 57.3304C94.9653 56.7208 94.8918 56.6262 94.4714 56.416C90.215 54.3561 90.6038 48.4181 90.0363 43.3315ZM93.9669 59.5164C94.0825 62.7429 96.6154 67.1044 101.082 71.8022C101.986 72.9793 109.973 63.1738 109.816 61.0508V59.2747C131.329 61.8075 146.747 74.1879 149.206 90.8773C140.273 89.1222 128.985 91.1821 127.072 91.5499C126.252 86.3231 124.706 81.2364 122.48 76.437C122.442 76.3436 122.369 76.269 122.276 76.2296C122.184 76.1902 122.079 76.1892 121.986 76.2268C121.892 76.2644 121.818 76.3376 121.778 76.4302C121.739 76.5229 121.738 76.6274 121.776 76.7208C123.708 81.4577 125.118 86.3915 125.979 91.4343C120.451 85.612 112.044 83.0266 100.325 83.5521C93.2719 83.8791 86.2656 84.8749 79.4005 86.5263C79.9496 83.3214 81.2577 80.2944 83.2155 77.6982C83.2584 77.6199 83.2714 77.5287 83.252 77.4415C83.2327 77.3544 83.1823 77.2773 83.1102 77.2245C83.0382 77.1718 82.9495 77.1471 82.8606 77.1549C82.7716 77.1628 82.6886 77.2027 82.627 77.2673C80.4186 79.9959 78.9686 83.2584 78.4231 86.726C70.8033 88.5538 63.4035 91.2001 56.3527 94.6188C57.3196 74.0303 76.3527 62.9951 93.9669 59.5164ZM48.3864 40.0524C48.3756 41.0503 48.4353 42.0477 48.565 43.0372C44.7815 43.1318 38.77 44.6031 34.2929 45.9904C34.1773 45.0656 33.9145 43.384 33.904 42.3856C38.4089 40.2386 43.4351 39.4288 48.3864 40.0524ZM45.0443 45.6961C42.9423 49.2694 43.3943 49.9 42.6901 49.9C42.6111 49.9048 42.5321 49.8906 42.4597 49.8585C42.3874 49.8264 42.3238 49.7774 42.2743 49.7155C42.2249 49.6537 42.191 49.5809 42.1756 49.5033C42.1602 49.4257 42.1636 49.3455 42.1856 49.2694C43.142 45.6541 44.0564 44.9815 44.5188 44.8974C44.6196 44.8769 44.7243 44.887 44.8192 44.9265C44.9142 44.966 44.9952 45.033 45.0518 45.119C45.1083 45.2049 45.1378 45.3058 45.1365 45.4087C45.1352 45.5116 45.103 45.6117 45.0443 45.6961ZM41.7968 46.4844C41.4079 47.1255 41.3133 48.0188 40.7458 47.8822C40.1783 47.7455 40.5882 46.4633 40.9245 45.7802C41.2608 45.0971 41.5551 45.0866 41.7547 45.1391C41.8673 45.1697 41.9674 45.2349 42.0409 45.3254C42.1144 45.4159 42.1577 45.5272 42.1646 45.6436C42.1234 45.9528 41.9959 46.2442 41.7968 46.4844ZM33.9776 48.5863C33.862 48.8596 33.8515 49.7003 33.2839 49.7003C33.1735 49.7046 33.0648 49.6717 32.9752 49.607C32.8857 49.5422 32.8205 49.4492 32.79 49.343C32.7344 48.6078 32.9682 47.8799 33.4416 47.3146C33.5392 47.2274 33.6619 47.1733 33.7922 47.16C33.9225 47.1468 34.0536 47.1752 34.1667 47.2411C34.419 47.4092 34.3664 47.8506 33.9776 48.5548V48.5863ZM34.3664 51.0351C35.3228 47.5984 35.8693 47.0939 36.1951 47.0204C36.2621 47.0049 36.332 47.0085 36.3971 47.0308C36.4621 47.0531 36.5195 47.0932 36.563 47.1465C36.7058 47.3121 36.7776 47.5273 36.7626 47.7455L35.3754 51.3293C35.3322 51.4631 35.2376 51.5743 35.1124 51.6383C34.9873 51.7024 34.8418 51.7141 34.708 51.6709C34.5742 51.6277 34.463 51.5331 34.399 51.408C34.3349 51.2828 34.3232 51.1373 34.3664 51.0035V51.0351ZM35.4174 52.622C37.4353 52.0335 38.0869 52.2016 37.8662 49.1328C37.7926 48.2605 37.6244 46.2742 38.5072 46.3057C39.2219 46.3057 39.2429 49.6268 40.3044 50.6567C41.3659 51.6867 42.7427 50.9615 43.8987 50.6567C47.0516 49.7949 46.358 48.4497 46.1268 44.2773L48.7752 44.0671C49.9628 50.2258 51.5603 45.6121 52.6323 44.9184C53.3154 44.4875 53.904 45.4334 54.0301 46.1586C54.2718 47.714 52.9791 49.4166 53.2524 51.6972C53.8717 54.9981 54.9322 58.2007 56.4053 61.219C54.1036 65.591 47.493 69.6267 44.5503 71.2242C43.3102 66.726 43.2051 60.8196 42.4484 60.8406C38.9592 60.8616 36.668 58.2237 35.3754 52.5905L35.4174 52.622ZM42.3328 64.2878C42.522 65.8748 43.2997 72.6955 44.4347 72.128C47.2934 70.7828 55.9954 65.0655 57.2355 61.3871C59.0747 61.8075 64.813 60.6935 73.7252 66.0639C67.1486 69.9922 61.8713 75.7665 58.5492 82.6692C50.0469 81.6183 39.5267 80.3046 30.688 84.9709C33.389 78.602 35.0075 77.9714 34.2403 77.4669C34.2006 77.4398 34.1558 77.4209 34.1086 77.4115C34.0614 77.402 34.0128 77.4022 33.9657 77.4121C33.9186 77.4219 33.8739 77.4411 33.8344 77.4686C33.795 77.4961 33.7614 77.5313 33.7358 77.572C33.4626 77.9819 29.6266 84.3193 29.532 85.612C28.0501 86.5158 24.8867 88.8279 23.9408 90.6461C20.0771 90.7215 16.3121 91.8793 13.0738 93.9882C16.2687 81.6183 26.3685 71.3503 42.2907 64.2563L42.3328 64.2878ZM15.0811 110.184C11.0664 105.98 11.9282 98.9488 12.7585 95.0917C23.016 88.355 36.5735 91.2346 53.0737 103.668C47.5246 106.043 23.2787 118.686 15.0811 110.184ZM25.0023 90.6251C33.347 81.3871 45.4121 81.9756 58.1183 83.5415C54.8603 91.056 54.5766 98.9908 57.2986 105.465C47.8399 98.3812 36.6681 90.5936 25.0023 90.5936V90.6251ZM72.1698 114.797C61.8178 114.797 56.2581 105.706 56.4053 95.6172C71.1188 89.0066 83.9722 85.6225 98.0552 84.6451C110.919 83.7517 119.579 86.0954 125.254 92.0019C97.5297 98.2131 86.0846 114.766 72.1698 114.766V114.797ZM135.732 113.641C125.443 115.964 108.407 109.889 96.3001 105.044C115.596 93.6519 132.958 89.3534 149.343 91.9073C150.635 103.647 145.801 111.361 135.732 113.641ZM150.309 97.7296C150.855 91.6525 149.57 85.5511 146.621 80.21C157.908 77.2883 167.44 78.9908 175.722 85.4018C164.844 86.211 153.883 94.7028 150.299 97.7296H150.309ZM178.896 105.896C172.464 105.896 158.927 99.5899 152.695 97.0465C159.358 92.0019 167.251 86.6524 176.752 86.2741C180.463 86.0448 184.165 86.8565 187.44 88.6177C190.257 98.1185 188.848 105.833 178.885 105.896H178.896Z" fill="white"/>
</svg>
