<svg width="450" height="450" viewBox="0 0 450 450" fill="none" xmlns="http://www.w3.org/2000/svg">
<path d="M252.405 340.65C252.232 340.698 252.085 340.812 251.997 340.968C251.908 341.124 251.885 341.309 251.933 341.482C251.981 341.656 252.095 341.803 252.251 341.891C252.407 341.98 252.592 342.003 252.765 341.955C258.451 340.71 263.782 338.195 268.358 334.598C285.75 321.75 284.85 303.525 294.75 286.852C302.67 274.14 309.623 275.603 309.083 273.96C309.063 273.895 309.03 273.835 308.985 273.783C308.941 273.732 308.886 273.69 308.825 273.66C308.764 273.631 308.697 273.614 308.629 273.612C308.561 273.609 308.494 273.62 308.43 273.645C277.29 285.098 294.885 325.935 252.405 340.65ZM378.428 300.645C379.305 299.722 380.183 298.755 381.038 297.788C387.653 289.755 392.288 277.312 391.838 268.155C391.827 268.056 391.788 267.963 391.727 267.884C391.666 267.806 391.584 267.746 391.491 267.711C391.398 267.676 391.297 267.668 391.2 267.687C391.102 267.705 391.011 267.751 390.938 267.817C390.263 268.47 392.153 272.07 387.405 283.41C382.905 294.165 378.968 296.91 374.535 301.928C370.564 306.512 367.546 311.842 365.657 317.606C363.768 323.369 363.046 329.452 363.533 335.497C363.559 335.625 363.628 335.739 363.728 335.821C363.829 335.903 363.954 335.948 364.084 335.948C364.214 335.948 364.34 335.903 364.44 335.821C364.541 335.739 364.61 335.625 364.635 335.497C364.481 329.06 365.623 322.658 367.992 316.671C370.361 310.683 373.91 305.233 378.428 300.645ZM180.878 203.49C183.128 201.938 182.97 197.19 180.878 195.435C180.286 194.957 179.596 194.616 178.858 194.435C178.119 194.255 177.35 194.239 176.604 194.389C175.859 194.54 175.156 194.852 174.545 195.305C173.934 195.758 173.431 196.34 173.07 197.01C172.653 198.057 172.578 199.209 172.856 200.301C173.134 201.393 173.75 202.369 174.618 203.089C175.485 203.809 176.558 204.236 177.683 204.308C178.807 204.38 179.926 204.093 180.878 203.49ZM174.69 198.338C175.365 195.773 179.798 195.413 180.473 197.978C180.923 199.733 180.72 200.97 179.82 201.645C179.279 201.981 178.664 202.18 178.029 202.223C177.393 202.266 176.757 202.153 176.175 201.893C175.567 201.551 175.09 201.015 174.82 200.371C174.551 199.727 174.506 199.011 174.69 198.338ZM257.76 161.865C257.674 161.859 257.587 161.871 257.505 161.899C257.424 161.928 257.349 161.974 257.286 162.033C257.222 162.092 257.172 162.164 257.137 162.243C257.103 162.323 257.085 162.408 257.085 162.495C257.085 164.745 253.283 166.995 252.585 167.22C252.451 167.253 252.335 167.338 252.264 167.456C252.192 167.574 252.17 167.716 252.203 167.85C252.236 167.984 252.321 168.1 252.439 168.172C252.557 168.243 252.699 168.265 252.833 168.233C258.75 167.018 259.65 161.82 257.76 161.865ZM249.863 158.423C249.593 158.265 248.4 157.388 247.973 157.05C247.973 156.758 249.03 153 249.233 152.28C249.435 151.56 248.513 151.38 248.265 151.965C247.324 153.789 246.57 155.704 246.015 157.68C246.195 158.333 249.323 159.188 249.548 159.188C249.642 159.2 249.737 159.182 249.819 159.134C249.901 159.087 249.965 159.014 250.001 158.927C250.037 158.839 250.043 158.742 250.018 158.651C249.993 158.56 249.938 158.479 249.863 158.423ZM242.438 146.363C242.406 146.168 242.305 145.991 242.155 145.864C242.005 145.736 241.814 145.666 241.617 145.666C241.419 145.666 241.229 145.736 241.078 145.864C240.928 145.991 240.828 146.168 240.795 146.363C240.71 147.914 240.71 149.469 240.795 151.02C240.936 151.251 241.15 151.428 241.403 151.523C241.656 151.619 241.934 151.627 242.192 151.547C242.45 151.467 242.674 151.303 242.829 151.081C242.983 150.859 243.06 150.592 243.045 150.323C242.734 149.022 242.531 147.697 242.438 146.363ZM258.165 150.3C257.877 149.01 257.674 147.702 257.558 146.385C257.558 146.164 257.47 145.952 257.314 145.796C257.158 145.64 256.946 145.553 256.725 145.553C256.505 145.553 256.293 145.64 256.137 145.796C255.981 145.952 255.893 146.164 255.893 146.385C255.811 147.884 255.811 149.386 255.893 150.885C255.906 151.059 255.956 151.229 256.041 151.381C256.127 151.533 256.244 151.665 256.386 151.767C256.528 151.869 256.69 151.939 256.862 151.971C257.034 152.003 257.21 151.997 257.38 151.954C257.549 151.91 257.706 151.83 257.841 151.719C257.976 151.608 258.084 151.468 258.159 151.311C258.234 151.153 258.274 150.981 258.275 150.806C258.276 150.631 258.238 150.459 258.165 150.3Z" fill="white"/>
<path d="M434.25 119.655C434.093 105.638 429.39 100.103 414.878 100.53C410.738 100.53 336.915 101.273 331.628 101.453C328.083 101.454 324.575 102.181 321.323 103.59C319.455 104.333 309.69 109.215 308.61 111.803C307.44 113.648 308.813 166.208 308.61 177.053C307.047 176.162 305.44 175.351 303.795 174.623C303.498 173.145 302.867 171.754 301.951 170.557C301.034 169.36 299.857 168.388 298.508 167.715C296.438 166.905 293.783 167.873 292.253 166.41C290.723 164.948 293.468 164.16 293.76 161.91C293.751 160.35 293.57 158.796 293.22 157.275C291.864 149.119 289.97 141.061 287.55 133.155C285.525 126.653 283.41 121.14 277.583 117.608C277.583 106.673 276.48 42.5926 275.873 39.1951C275.274 35.842 273.485 32.8175 270.836 30.6766C268.187 28.5357 264.854 27.4221 261.45 27.5401C261.225 27.5401 106.38 27.5401 106.2 27.7201C100.013 31.4101 98.3476 39.6451 97.9426 45.7201C97.8076 48.7576 100.463 110.093 101.52 129.578C90.5626 129.803 35.2126 131.288 32.0401 132.975C24.8626 134.73 16.9201 139.725 15.3676 147.848C14.4001 153.068 16.3576 253.35 17.0101 258.098C17.4774 263.225 19.7687 268.016 23.4676 271.598C27.4951 275.13 32.9851 275.783 37.8226 275.963L140.49 274.028C130.455 296.753 118.89 328.973 111.24 349.02C111.204 349.077 111.185 349.144 111.185 349.211C111.185 349.279 111.204 349.345 111.24 349.403C113.31 351.436 115.571 353.267 117.99 354.87C114.323 367.403 114.728 368.1 113.918 369.113C106.965 377.64 98.5726 382.613 90.2926 383.423C86.4451 383.85 82.6426 384.525 81.2926 388.26C80.1901 391.658 83.1151 393.93 86.5351 394.875C88.7851 395.483 104.13 398.88 106.403 399.15C108.416 399.488 110.482 399.028 112.163 397.868C113.783 396.675 119.115 390.375 121.163 388.485C117.45 406.485 114.863 400.748 123.705 404.595C123.829 404.661 123.965 404.699 124.105 404.705C124.245 404.712 124.384 404.687 124.513 404.634C124.643 404.58 124.758 404.498 124.852 404.394C124.945 404.29 125.015 404.167 125.055 404.033C126.63 399.533 137.295 373.815 141.638 367.133C142.695 394.313 142.515 392.895 142.898 393.008C144.405 393.39 146.048 393.75 147.735 394.088C147.735 397.868 147.848 401.738 148.163 405.968C148.163 406.103 147.983 406.328 147.803 406.688C142.223 418.928 135.968 423.923 129.173 426.938C126.158 428.288 121.995 430.133 122.108 434.295C122.108 437.895 125.798 439.043 129.375 438.908C134.753 438.728 141.705 438.008 144.855 437.85C153.855 437.31 154.08 435.6 157.905 427.883C158.783 426.105 159.818 423.99 160.403 422.955C161.46 435.6 160.065 437.468 161.798 437.378C166.5 437.13 168.548 438.413 168.548 436.725C168.728 432.09 170.798 413.865 171.878 409.388C171.878 408.87 171.518 408.578 170.978 408.465C171.653 404.28 173.228 396.045 173.43 394.538C174.555 394.38 175.68 394.2 176.558 393.998C176.805 393.998 176.558 395.19 180.36 379.508C207.675 390.285 236.813 392.873 262.958 386.73C263.88 390.308 270.563 414.698 274.208 425.385C275.45 428.877 277.104 432.208 279.135 435.308C279.653 435.803 280.53 436.68 281.385 436.68C282.24 436.68 283.185 435.488 283.41 434.273C283.635 433.058 280.103 397.575 278.91 384.773C284.256 383.448 289.44 381.539 294.368 379.08L301.658 403.29C301.871 403.651 302.192 403.935 302.576 404.104C302.96 404.273 303.387 404.316 303.797 404.229C304.207 404.142 304.579 403.929 304.861 403.619C305.144 403.309 305.322 402.919 305.37 402.503L304.673 373.5C308.079 371.28 311.341 368.845 314.438 366.21C315.844 367.569 317.425 368.735 319.14 369.675C319.316 369.772 319.524 369.796 319.718 369.741C319.911 369.687 320.076 369.558 320.175 369.383C322.046 366.553 324.146 363.882 326.453 361.395C326.003 364.298 325.125 370.238 325.013 372.083C325.009 372.202 325.031 372.32 325.075 372.431C325.119 372.541 325.185 372.642 325.269 372.726C325.354 372.81 325.454 372.876 325.565 372.92C325.675 372.965 325.794 372.986 325.913 372.983C328.302 372.908 330.688 373.219 332.978 373.905C325.643 377.438 322.29 380.43 322.74 382.905C323.619 387.325 324.853 391.666 326.43 395.888C327.645 399.398 328.905 403.043 332.685 404.573C350.01 411.908 375.75 406.553 393.143 399.24C407.903 393.458 410.063 384.098 408.758 370.868C408.488 368.348 405.563 368.055 399.42 368.213L414.383 349.29C418.883 343.913 414.968 344.093 413.55 333.54C414.905 335.548 416.534 337.358 418.388 338.918C418.498 339.004 418.625 339.067 418.76 339.101C418.896 339.136 419.037 339.143 419.175 339.12C419.783 339.008 419.31 339.323 424.89 329.288C424.996 329.105 425.036 328.891 425.003 328.682C424.971 328.473 424.867 328.282 424.71 328.14C422.258 326.115 416.34 321.39 416.34 321.39C419.391 320.668 422.396 319.767 425.34 318.69C426.042 318.509 426.678 318.131 427.172 317.601C427.666 317.071 427.999 316.41 428.13 315.698C428.423 313.943 428.445 278.595 428.49 273.78C428.49 272.993 427.23 272.768 427.095 273.623C424.463 291.465 412.38 306.315 396.945 310.748C397.44 308.745 398.7 304.403 398.003 303.21C395.458 301.608 392.75 300.281 389.925 299.25C392.738 297.653 399.24 293.49 399.713 292.208C400.005 291.465 398.565 256.748 398.498 252.945C398.486 252.788 398.426 252.639 398.325 252.519C398.224 252.399 398.087 252.314 397.934 252.277C397.782 252.239 397.621 252.251 397.476 252.31C397.33 252.37 397.208 252.474 397.125 252.608C392.768 261.21 386.324 268.582 378.383 274.05C377.46 274.68 370.823 278.213 370.305 278.685C368.64 280.283 370.71 282.24 371.588 283.478C372.218 284.333 374.378 287.235 374.805 287.843C366.885 288.81 364.793 286.088 364.388 287.843C363.609 290.135 362.559 292.325 361.26 294.368C361.724 296.34 362.318 298.279 363.038 300.173C361.719 300.39 360.374 300.39 359.055 300.173C358.82 300.122 358.575 300.161 358.367 300.282C358.159 300.402 358.003 300.596 357.93 300.825C357.3 302.873 356.805 304.583 356.355 306.18C353.628 301.555 350.622 297.099 347.355 292.838C345.758 280.643 339.998 266.4 327.825 264.51C336.983 260.685 342.99 250.853 344.43 240.885C348.75 240.885 411.165 240.705 413.685 240.885C427.343 241.268 433.44 236.048 434.723 222.12C435.24 216.563 434.25 120.668 434.25 119.655ZM123.548 387.54C123.604 387.302 123.569 387.051 123.447 386.838C123.326 386.625 123.129 386.466 122.895 386.393C121.073 385.718 119.678 387.315 118.665 388.463C116.102 391.583 113.288 394.487 110.25 397.148C108.563 397.958 88.9201 393.885 86.4676 393.12C85.1475 392.821 83.9991 392.012 83.2726 390.87C82.9885 390.04 83.0194 389.134 83.3596 388.325C83.6998 387.516 84.3255 386.86 85.1176 386.483C86.8501 385.425 88.1326 385.515 92.9926 384.615C97.8526 383.715 102.668 382.838 111.128 374.873C112.306 373.744 113.404 372.533 114.413 371.25C115.817 374.373 118.182 376.966 121.163 378.653C125.156 380.426 129.615 380.86 133.875 379.89C131.625 384.39 125.415 398.453 123.863 402.75C122.625 402.255 121.365 401.805 120.128 401.445C121.521 396.876 122.663 392.234 123.548 387.54ZM321.143 264.33C317.978 264.466 314.835 264.918 311.76 265.68C301.682 266.819 291.55 267.405 281.408 267.435C279.923 258.435 280.373 260.1 279.99 257.603C279.833 256.523 279.608 255.038 280.395 254.565C291.173 249.75 302.378 245.385 313.11 240.683C315.36 242.325 315.54 242.123 315.743 241.988C315.839 241.884 315.893 241.747 315.893 241.605C315.893 241.463 315.839 241.327 315.743 241.223C314.864 240.335 313.941 239.494 312.975 238.703C304.337 230.978 298.321 220.754 295.763 209.453C295.733 209.318 295.651 209.201 295.535 209.128C295.419 209.054 295.278 209.029 295.144 209.059C295.01 209.089 294.893 209.171 294.819 209.287C294.745 209.403 294.72 209.543 294.75 209.678C296.656 221.431 302.736 232.103 311.873 239.738L280.845 252.563C279.948 252.826 279.16 253.37 278.595 254.115C277.042 253.693 275.639 252.843 274.545 251.663C268.695 246.96 266.355 250.178 258.795 256.163C258.064 256.714 257.373 257.315 256.725 257.963C252.729 254.408 248.746 250.838 244.778 247.253C243.765 245.768 234.54 213.953 230.76 201.173C233.682 194.088 238.396 187.885 244.44 183.173C245.139 185.307 246.02 187.377 247.073 189.36C248.76 190.98 250.943 190.193 253.058 189.675C252.475 190.884 252.139 192.198 252.069 193.538C252 194.879 252.198 196.22 252.653 197.483C254.246 201.054 256.733 204.154 259.875 206.483C267.57 213.233 267.188 213.053 267.638 213.053C267.845 213.042 268.042 212.957 268.191 212.812C268.34 212.667 268.431 212.472 268.448 212.265C269.213 204.413 271.733 202.253 278.843 199.755C282.731 198.486 286.021 195.838 288.093 192.312C290.165 188.785 290.876 184.622 290.093 180.608C294.795 180.643 299.481 180.038 304.02 178.808C304.235 178.759 304.421 178.628 304.539 178.443C304.657 178.257 304.697 178.032 304.65 177.818C304.65 177.435 304.493 176.985 304.38 176.513C337.208 192.465 357.21 242.168 330.728 260.64C327.847 262.569 324.573 263.83 321.143 264.33ZM328.703 266.895C334.485 268.133 339.323 272.993 342.473 281.543C357.503 322.155 322.47 371.363 278.978 382.793C278.708 380.07 277.223 364.275 276.93 363.105C276.714 362.072 276.121 361.158 275.265 360.54C272.498 359.01 267.75 360.698 265.23 362.183C262.828 363.778 260.681 365.727 258.863 367.965C258.863 368.685 262.013 382.253 262.688 385.02C235.341 390.739 206.916 388.298 180.945 378C184.95 361.35 190.26 338.558 191.745 331.493C207.225 336.308 228.983 335.858 229.208 335.835C229.28 335.816 229.343 335.774 229.389 335.715C229.434 335.656 229.459 335.583 229.459 335.509C229.459 335.434 229.434 335.362 229.389 335.303C229.343 335.244 229.28 335.202 229.208 335.183C216.72 331.02 205.943 320.288 198.878 304.943C188.01 282.015 165.465 282.285 156.69 293.693C144 310.163 141.953 358.088 141.75 363.87C140.963 365.31 136.44 374.153 134.73 377.753C121.23 380.97 117.383 373.253 115.74 369.945C115.47 369.383 115.605 370.868 119.79 356.085C122.04 357.188 138.038 362.835 138.06 361.17C138.24 342.045 142.875 296.55 155.43 286.088C164.43 278.708 183.893 279.99 192.51 286.38C197.989 291.381 202.47 297.374 205.718 304.043C212.94 319.545 225.383 331.043 239.198 333.923C256.905 332.37 277.448 304.155 283.32 286.11C294.165 272.363 312.053 264.488 328.703 266.895ZM363.915 358.403C363.945 358.537 364.027 358.654 364.143 358.728C364.259 358.801 364.4 358.826 364.534 358.796C364.668 358.767 364.785 358.685 364.859 358.569C364.933 358.452 364.957 358.312 364.928 358.178C363.51 350.933 359.505 344.678 356.985 337.928C352.62 326.385 355.793 313.988 359.483 302.265C361.129 302.573 362.829 302.352 364.343 301.635C365.58 300.668 364.59 299.025 363.195 294.885C364.342 293.15 365.243 291.265 365.873 289.283C369.389 290.115 373.046 290.161 376.583 289.418C376.72 289.383 376.847 289.316 376.953 289.222C377.06 289.129 377.143 289.011 377.196 288.88C377.248 288.748 377.269 288.606 377.256 288.465C377.244 288.324 377.198 288.188 377.123 288.068C375.615 286.088 371.633 280.665 371.43 280.26C371.228 279.855 371.43 279.9 372.083 279.608C382.837 274.713 391.656 266.377 397.148 255.915C397.418 263.273 398.295 290.655 398.048 291.758C394.552 294.288 390.866 296.545 387.023 298.508C386.855 298.6 386.718 298.741 386.63 298.911C386.543 299.081 386.507 299.274 386.529 299.464C386.551 299.655 386.628 299.834 386.752 299.98C386.876 300.127 387.041 300.233 387.225 300.285C390.408 301.374 393.494 302.728 396.45 304.335C396.855 304.988 395.438 310.14 395.19 311.468L392.94 311.918C392.716 311.976 392.524 312.119 392.402 312.316C392.281 312.513 392.24 312.749 392.288 312.975C392.873 316.958 394.2 326.768 394.2 326.768C387.743 320.76 387.788 317.43 386.393 317.295C386.254 317.278 386.114 317.295 385.984 317.347C385.854 317.398 385.739 317.481 385.65 317.588C375.07 329.864 369.131 345.461 368.865 361.665C368.89 361.787 368.957 361.896 369.053 361.974C369.149 362.053 369.27 362.095 369.394 362.095C369.518 362.095 369.638 362.053 369.735 361.974C369.831 361.896 369.897 361.787 369.923 361.665C370.77 346.333 376.458 331.665 386.168 319.77C388.405 323.625 391.343 327.029 394.83 329.805C394.979 329.937 395.165 330.019 395.363 330.039C395.561 330.059 395.76 330.016 395.932 329.916C396.103 329.816 396.24 329.665 396.321 329.484C396.402 329.302 396.423 329.1 396.383 328.905C396.383 328.905 394.763 317.948 394.133 313.493C409.455 310.77 422.618 297.743 427.05 281.138C427.05 290.385 426.735 313.313 426.735 313.538C426.735 315 426.735 316.395 425.43 317.048C421.74 318.344 417.985 319.448 414.18 320.355C414.024 320.396 413.882 320.478 413.769 320.593C413.656 320.708 413.576 320.851 413.537 321.007C413.497 321.163 413.501 321.327 413.547 321.482C413.593 321.636 413.679 321.776 413.798 321.885C414.855 322.74 420.93 327.713 422.933 329.31C422.933 329.31 420.188 334.553 418.793 337.14C416.511 335.029 414.622 332.53 413.213 329.76C413.121 329.603 412.981 329.48 412.813 329.409C412.645 329.339 412.458 329.326 412.282 329.372C412.106 329.418 411.95 329.521 411.838 329.664C411.725 329.807 411.663 329.983 411.66 330.165C412.29 345.195 417.105 343.238 413.123 348.165C399.398 365.423 396.99 371.003 382.208 375.368C385.178 361.868 395.348 356.4 399.42 346.658C401.67 341.325 401.175 335.408 402.953 330.053C404.19 326.336 406.213 322.929 408.884 320.064C411.555 317.199 414.812 314.942 418.433 313.448C418.564 313.403 418.672 313.308 418.733 313.183C418.794 313.059 418.804 312.915 418.759 312.784C418.714 312.653 418.619 312.544 418.495 312.483C418.37 312.422 418.226 312.413 418.095 312.458C413.38 314.121 409.219 317.061 406.077 320.951C402.934 324.84 400.934 329.526 400.298 334.485C399.33 341.393 399.533 344.79 395.213 350.843C390.443 357.48 382.635 363.353 380.115 375.93C376.202 376.904 372.198 377.462 368.168 377.595C367.695 373.568 365.22 371.205 363.465 371.115C361.845 368.28 344.768 342.293 338.468 336.6C345.434 324.063 348.637 309.782 347.693 295.47C350.393 299.453 355.005 306.923 355.815 308.385C347.963 338.67 360.788 343.215 363.915 358.403ZM328.433 359.393C328.432 359.234 328.386 359.079 328.3 358.945C328.214 358.812 328.092 358.706 327.947 358.64C327.803 358.573 327.643 358.55 327.486 358.572C327.329 358.593 327.181 358.66 327.06 358.763C324.183 361.619 321.57 364.729 319.253 368.055C317.928 367.282 316.684 366.377 315.54 365.355C320.978 360.63 325.909 355.351 330.255 349.605C354.15 378.27 353.003 377.438 353.678 376.898C353.731 376.862 353.776 376.815 353.81 376.762C353.845 376.708 353.868 376.647 353.878 376.584C353.889 376.521 353.887 376.457 353.871 376.394C353.856 376.332 353.829 376.274 353.79 376.223C352.215 373.838 336.173 353.723 331.29 348.075C333.609 344.871 335.728 341.527 337.635 338.063C346.635 346.86 360.608 370.013 361.913 372.195C360.67 373.982 360.089 376.146 360.27 378.315C357.428 379.109 354.441 379.24 351.54 378.698C348.098 378.023 335.228 371.7 326.79 371.453C327.33 369 328.185 361.508 328.5 359.393H328.433ZM269.528 362.25H269.91C271.665 361.845 274.41 361.238 275.063 363.015C275.4 364.23 282.195 431.348 282.195 433.418C282.231 433.744 282.196 434.074 282.091 434.385C281.986 434.696 281.814 434.98 281.588 435.218C275.738 432.968 261.338 373.275 260.775 368.213C263.043 365.408 266.087 363.334 269.528 362.25ZM29.9476 256.005C29.9476 250.853 26.5276 148.703 26.8651 145.013C27.4501 138.06 29.9476 134.933 35.4601 134.213C41.2876 133.088 95.6926 131.535 101.633 131.378C101.768 133.628 101.88 135.203 101.925 135.495C102.175 137.265 103.019 138.898 104.319 140.125C105.619 141.351 107.298 142.099 109.08 142.245C109.08 142.02 107.595 142.245 154.08 142.403C154.08 149.423 154.508 182.408 154.53 183.96C141.3 184.455 127.665 184.995 125.055 185.243C124.695 185.243 124.38 185.895 124.515 186.21C128.43 195.885 145.868 235.17 150.75 245.25C151.206 246.396 151.988 247.382 153 248.085C153.63 249.03 154.373 250.088 155.25 251.145C148.118 256.838 145.553 263.138 141.413 272.363C122.355 272.768 45.1126 274.365 43.3801 274.298C38.5651 274.095 35.1676 272.7 33.0526 270.045C29.8351 266.22 29.9701 261 29.9476 256.005ZM290.25 166.14C290.723 167.85 292.5 168.773 295.245 168.84C299.97 168.638 301.995 172.71 302.85 177.39C298.251 178.289 293.585 178.808 288.9 178.943C288.764 178.944 288.631 178.977 288.51 179.039C288.39 179.1 288.285 179.189 288.204 179.298C288.123 179.407 288.069 179.533 288.045 179.667C288.022 179.8 288.029 179.938 288.068 180.068C288.786 182.636 288.793 185.351 288.087 187.924C287.382 190.496 285.991 192.828 284.063 194.67C278.01 200.498 268.313 197.28 266.895 210.713C264.87 208.958 257.378 202.59 255.848 200.723C253.215 197.685 252.158 192.645 254.858 189.473C260.639 188.528 266.482 188.009 272.34 187.92C272.471 187.92 272.597 187.868 272.69 187.775C272.783 187.682 272.835 187.556 272.835 187.425C272.835 187.294 272.783 187.168 272.69 187.075C272.597 186.982 272.471 186.93 272.34 186.93C265.601 186.452 258.828 186.937 252.225 188.37C249.705 189.068 248.468 189.563 247.343 187.2C246.78 186.008 243.428 175.793 242.843 173.903C241.808 171.45 242.438 172.193 244.328 171.023C246.179 172.588 248.258 173.862 250.493 174.803C250.493 175.073 251.663 178.65 251.843 179.303C251.919 179.843 252.189 180.338 252.603 180.694C253.017 181.05 253.547 181.243 254.093 181.238C259.339 181.72 264.626 180.951 269.519 178.996C274.411 177.04 278.771 173.953 282.24 169.988C282.309 169.893 282.34 169.777 282.328 169.661C282.316 169.544 282.262 169.437 282.175 169.358C282.088 169.28 281.976 169.237 281.859 169.237C281.742 169.236 281.629 169.28 281.543 169.358C278.058 172.88 273.871 175.63 269.254 177.428C264.638 179.227 259.694 180.034 254.745 179.798C253.17 179.685 253.373 180.023 252.045 175.298C258.12 177.008 259.65 174.69 257.49 176.828C257.42 176.912 257.381 177.018 257.38 177.127C257.379 177.237 257.417 177.344 257.486 177.429C257.555 177.514 257.652 177.572 257.759 177.594C257.867 177.616 257.978 177.599 258.075 177.548C266.259 171.429 272.23 162.812 275.085 153C275.106 152.937 275.113 152.87 275.107 152.803C275.102 152.737 275.082 152.672 275.051 152.613C275.019 152.554 274.976 152.502 274.924 152.461C274.872 152.419 274.812 152.388 274.748 152.37C273.578 151.965 274.365 154.283 268.875 163.26C266.625 154.26 268.133 144.743 265.703 135.698C265.67 135.569 265.587 135.459 265.473 135.392C265.359 135.324 265.223 135.305 265.095 135.338C264.967 135.37 264.857 135.453 264.789 135.567C264.722 135.681 264.702 135.817 264.735 135.945C265.129 137.859 265.385 139.799 265.5 141.75C260.708 137.003 250.583 129.42 242.595 131.153C240.874 131.206 239.244 131.934 238.056 133.181C236.868 134.427 236.22 136.091 236.25 137.813C234.315 135.203 235.665 131.22 237.42 129.015C242.055 122.963 250.29 120.015 258.503 117.765C265.77 115.83 275.49 116.1 281.003 122.67C283.394 125.949 285.121 129.664 286.088 133.605C288.962 142.487 290.966 151.628 292.073 160.898C292.158 161.271 292.141 161.662 292.022 162.026C291.903 162.391 291.687 162.716 291.398 162.968C290.948 163.352 290.607 163.847 290.405 164.403C290.204 164.959 290.151 165.557 290.25 166.14ZM152.393 244.71C150.278 240.21 129.375 193.86 126.045 186.21C133.493 186.21 217.53 183.128 218.993 183.083C221.85 192.263 238.5 247.703 238.5 248.175C238.5 248.175 218.61 248.67 207.878 249.098C189.765 239.963 173.003 240.953 160.808 247.41C153.923 247.118 153.608 247.253 152.393 244.71ZM237.893 151.38C237.578 144.63 237.893 139.928 238.95 139.455C242.82 137.7 250.043 137.205 258.075 139.748C259.088 140.085 262.328 141.773 265.59 143.145C265.95 150.345 265.59 157.973 267.84 164.948C265.851 168.435 263.296 171.568 260.28 174.218C246.668 176.018 238.5 165.128 237.848 151.38H237.893ZM258.548 285.93C258.008 286.965 267.165 293.85 268.155 294.593C271.395 297.653 267.435 299.318 264.15 296.37C246.15 280.193 230.805 261.653 210.803 250.583C222.458 250.2 236.88 249.773 239.355 249.75C241.853 252.158 270.855 279.315 278.348 285.75C257.423 285.908 258.75 285.57 258.503 285.93H258.548ZM280.643 285.615C280.418 285.413 242.393 251.055 240.93 249.345C240.075 247.905 224.303 194.378 220.68 183.6C222.903 185.116 224.551 187.335 225.36 189.9C226.71 193.748 242.033 245.048 242.1 245.295C242.284 246.541 242.841 247.702 243.698 248.625C249.615 254.318 274.725 277.088 282.893 283.838C282.42 284.423 281.948 285.008 281.498 285.615H280.643ZM279 263.993C275.085 263.678 273.848 263.228 272.88 264.42C272.565 264.915 271.665 266.018 270.518 265.77C270.319 265.724 270.131 265.637 269.967 265.515C269.804 265.393 269.667 265.238 269.565 265.061C269.464 264.883 269.4 264.687 269.378 264.484C269.356 264.281 269.377 264.075 269.438 263.88C270.54 262.845 271.688 261.945 272.723 260.843C272.778 260.765 272.806 260.671 272.801 260.576C272.797 260.48 272.761 260.389 272.699 260.317C272.637 260.244 272.552 260.194 272.459 260.176C272.365 260.157 272.268 260.17 272.183 260.213C271.035 260.955 269.933 262.148 268.628 262.935C268.52 262.937 268.414 262.962 268.317 263.008C268.219 263.055 268.134 263.122 268.065 263.205C267.796 263.314 267.504 263.36 267.214 263.339C266.924 263.317 266.643 263.229 266.393 263.081C266.142 262.933 265.929 262.729 265.771 262.485C265.612 262.241 265.512 261.964 265.478 261.675C265.478 259.875 267.413 258.683 268.538 257.355C268.988 256.905 268.313 256.23 267.84 256.658C266.635 257.675 265.513 258.789 264.488 259.988C263.191 260.4 261.868 260.723 260.528 260.955C259.92 260.955 260.528 261.338 257.873 259.065C260.641 256.469 263.655 254.148 266.873 252.135C272.34 248.535 273.353 254.768 278.28 255.488C278.275 258.338 278.516 261.184 279 263.993ZM284.063 282.533L261.405 262.283C262.227 262.12 263.038 261.91 263.835 261.653C263.817 262.141 263.913 262.627 264.115 263.072C264.317 263.518 264.62 263.91 265 264.217C265.38 264.525 265.826 264.74 266.303 264.846C266.781 264.951 267.276 264.944 267.75 264.825C267.84 265.302 268.042 265.752 268.338 266.136C268.635 266.521 269.018 266.83 269.457 267.038C269.895 267.246 270.377 267.348 270.862 267.335C271.348 267.322 271.823 267.194 272.25 266.963C275.355 265.545 272.25 265.005 277.268 265.455C277.92 265.455 278.618 265.59 279.293 265.613C279.495 266.67 279.698 267.638 279.923 268.56C279.977 268.744 280.09 268.905 280.244 269.019C280.398 269.133 280.586 269.193 280.778 269.19C321.008 268.335 301.253 262.778 284.018 282.533H284.063ZM230.063 198.743C227.52 190.215 226.193 183.33 221.063 181.575C221.063 181.845 222.975 181.283 156.375 183.825C156.375 172.868 155.903 146.363 155.835 142.335H236.498C235.868 152.078 236.498 162.585 243.248 169.83C242.438 170.145 240.998 170.82 240.66 171.383C241.49 175.019 242.603 178.585 243.99 182.048C237.953 186.308 233.124 192.06 229.973 198.743H230.063ZM220.815 129.195C220.815 126.045 220.095 109.103 219.938 105.998H225.675C225.675 109.193 226.103 126.068 226.238 129.173C224.438 129.128 222.615 129.15 220.815 129.195ZM187.853 129.87C187.875 123.75 187.088 72.0001 186.975 65.2501H192.713C192.713 82.3501 193.208 125.123 193.298 129.78L187.853 129.87ZM152.348 73.9351H158.108C158.108 88.7176 158.58 126.045 158.693 130.478H153.248C153.27 124.943 152.483 80.1001 152.348 73.9351ZM103.5 134.505C103.185 132.593 100.575 72.6751 99.5176 49.7251C99.2701 42.6601 101.138 33.9751 105.885 29.9476C105.885 45.6976 107.91 132.615 108.36 140.49C107.036 140.108 105.86 139.33 104.992 138.26C104.123 137.19 103.602 135.88 103.5 134.505ZM309.938 115.808C309.753 114.339 310.104 112.853 310.928 111.623C312.689 110.236 314.58 109.023 316.575 108C314.325 112.05 314.91 110.925 316.103 182.025C314.247 180.611 312.316 179.296 310.32 178.088C310.095 166.748 309.983 125.528 310.005 115.808H309.938ZM329.603 140.805C330.648 139.321 332.037 138.112 333.652 137.282C335.266 136.451 337.057 136.023 338.873 136.035C348.03 136.035 351.36 146.925 353.16 155.79C354.735 162.743 354.848 170.933 359.91 176.603C383.445 197.933 385.223 168.165 399.533 169.313C404.033 169.83 407.025 173.948 410.243 176.918C411.618 178.463 413.547 179.402 415.612 179.533C417.676 179.664 419.708 178.974 421.268 177.615V209.588C415.733 209.588 345.443 209.07 337.725 209.16C335.846 205.228 333.633 201.464 331.11 197.91C331.38 195.188 329.715 143.235 329.67 140.805H329.603ZM338.603 210.69C348.953 210.848 414.63 211.028 421.448 211.028C421.457 211.885 421.51 212.741 421.605 213.593C421.622 213.774 421.704 213.943 421.837 214.067C421.969 214.191 422.143 214.263 422.325 214.268C423.653 214.268 423.045 216.315 422.82 155.295C422.82 155.146 422.761 155.003 422.655 154.897C422.55 154.792 422.407 154.733 422.258 154.733C422.108 154.733 421.965 154.792 421.86 154.897C421.754 155.003 421.695 155.146 421.695 155.295C421.695 159.3 421.448 172.53 421.425 175.14C420.909 175.953 420.207 176.633 419.377 177.123C418.548 177.612 417.614 177.899 416.653 177.958C415.691 178.017 414.729 177.848 413.846 177.464C412.962 177.079 412.182 176.491 411.57 175.748C405.068 168.998 398.633 163.373 389.228 172.058C381.533 180 377.303 186.705 366.728 179.843C362.446 177.561 359.219 173.705 357.728 169.088C354.173 156.33 355.163 136.643 340.133 134.033C338.123 133.827 336.094 134.118 334.223 134.879C332.352 135.64 330.696 136.848 329.4 138.398C329.4 134.978 329.153 131.648 329.018 128.183C329.018 128.039 328.961 127.902 328.859 127.801C328.758 127.7 328.621 127.643 328.478 127.643C328.334 127.643 328.197 127.7 328.096 127.801C327.994 127.902 327.938 128.039 327.938 128.183C327.938 131.918 329.108 184.073 329.468 195.525C326 190.988 322.013 186.872 317.588 183.263C317.588 174.69 316.823 119.025 316.733 115.583C316.598 109.328 319.095 105.705 324.855 104.198C329.58 102.893 414.54 101.588 422.618 102.69C427.973 103.365 431.033 108.608 431.798 113.153C432.743 118.8 433.013 212.153 433.035 213.39C433.215 224.415 431.91 236.993 420.435 238.545C417.848 238.905 353.835 239.063 344.543 238.973C344.83 229.213 342.81 219.523 338.648 210.69H338.603ZM272.723 35.5501C275.423 40.2751 273.893 38.9701 275.805 116.685C266.49 112.478 253.305 116.348 244.305 121.185V54.5176C244.305 54.0001 245.475 54.1576 237.555 54.1576C237.06 54.1576 237.105 49.5226 238.77 124.92C237.42 126.139 236.246 127.54 235.283 129.083H227.723C227.723 126.158 226.868 105.413 226.778 105.233C226.752 105.116 226.686 105.011 226.591 104.937C226.497 104.864 226.38 104.825 226.26 104.828C223.829 104.746 221.395 104.799 218.97 104.985C218.898 105.034 218.841 105.102 218.805 105.182C218.77 105.261 218.757 105.349 218.768 105.435C218.768 107.685 219.173 125.955 219.33 129.195L210.848 129.375C211.275 90.9451 211.433 92.9701 210.848 92.9251C204.75 93.1726 204.615 93.0601 204.615 93.5101V129.51L194.715 129.713C194.715 124.695 193.95 67.9951 193.793 64.7101C193.799 64.5622 193.75 64.4172 193.654 64.3044C193.557 64.1917 193.422 64.1196 193.275 64.1026C193.275 64.1026 186.233 64.1026 186.008 64.3276C185.355 64.8451 186.368 127.328 186.368 129.893L175.68 130.095V96.5026C175.601 96.4713 175.512 96.4713 175.433 96.5026C169.223 96.5026 169.29 96.5026 169.29 96.9976V130.23L160.155 130.5C159.525 72.4051 159.008 73.4626 159.233 73.4626C159.234 73.3185 159.181 73.1791 159.086 73.0711C158.99 72.9632 158.858 72.8943 158.715 72.8776C158.715 72.8776 151.718 72.8776 151.493 73.0576C150.728 73.5301 151.808 126.675 151.808 130.68L139.433 130.905C139.5 43.2226 139.748 47.2501 139.163 47.2501L133.65 47.4526C133.268 47.4526 133.403 42.0751 133.403 130.995C124.133 131.175 124.403 130.995 124.268 131.355C124.224 131.425 124.2 131.506 124.198 131.588C124.195 131.67 124.214 131.752 124.253 131.825C124.291 131.897 124.348 131.959 124.418 132.003C124.488 132.047 124.568 132.072 124.65 132.075C138.308 132.075 221.018 131.243 234.495 130.838C233.145 134.28 233.393 138.083 236.52 140.085V140.58C223.515 140.963 112.23 140.58 110.228 140.58C110.228 137.633 107.708 34.6951 107.685 28.9351C123.278 28.9351 260.685 29.1376 264.263 29.7226C266.016 30.0067 267.685 30.6768 269.148 31.6847C270.611 32.6925 271.832 34.0128 272.723 35.5501ZM27.4726 136.575C24.8851 140.31 24.7501 145.17 24.7501 149.873C24.7501 150.908 27.9001 261.653 28.3726 264.353C28.6417 266.312 29.3271 268.191 30.3827 269.864C31.4383 271.537 32.8396 272.964 34.4926 274.05C31.8479 273.917 29.2624 273.219 26.9101 272.003C21.9151 269.258 20.0251 263.61 19.3501 260.483C18.1576 254.858 16.5826 158.243 16.8526 153.248C16.6951 144.968 19.5076 140.49 27.4276 136.575H27.4726ZM364.973 391.028C373.978 390.4 382.801 388.175 391.028 384.458C396.878 381.758 404.168 377.483 407.183 374.085C407.655 384.705 405.495 391.568 394.583 396.585C380.138 403.335 345.87 411.615 331.065 401.738C329.738 400.455 326.565 390.713 325.305 386.213C331.763 390.51 350.573 392.175 364.928 391.028H364.973ZM161.483 420.503C159.593 420.345 158.693 422.235 158.063 423.608C152.798 434.858 152.865 435.578 147.51 435.938C145.823 436.05 129.938 437.355 128.768 437.355C124.673 437.648 122.4 434.835 125.303 431.393C126.957 430.145 128.794 429.158 130.748 428.468C137.003 425.565 146.903 417.893 149.085 408.398C151.344 411.051 154.424 412.872 157.838 413.573C162.063 414.026 166.325 413.153 170.033 411.075C169.178 415.935 167.198 431.078 166.95 435.825C165.635 435.687 164.312 435.627 162.99 435.645C162.968 434.363 162.54 420.593 161.438 420.503H161.483ZM169.763 408.915C166.839 410.983 163.331 412.063 159.75 411.998C157.856 411.855 156.011 411.324 154.331 410.438C152.651 409.551 151.172 408.328 149.985 406.845C149.985 406.148 149.738 398.61 149.805 394.56C157.095 395.135 164.413 395.278 171.72 394.988C171.36 396.968 170.213 405 169.718 408.915H169.763Z" fill="white"/>
<path d="M393.75 118.485C393.877 118.459 393.991 118.39 394.073 118.29C394.155 118.189 394.2 118.064 394.2 117.934C394.2 117.804 394.155 117.678 394.073 117.578C393.991 117.477 393.877 117.408 393.75 117.383H389.97C361.687 118.26 362.61 118.238 362.632 119.025C362.655 119.813 361.777 119.993 393.75 118.485ZM394.695 123.75C389.655 123.75 369.945 124.02 364.882 124.425C364.705 124.456 364.544 124.548 364.428 124.686C364.311 124.824 364.248 124.999 364.248 125.179C364.248 125.359 364.311 125.533 364.428 125.671C364.544 125.809 364.705 125.902 364.882 125.933C370.035 125.933 389.632 124.92 394.717 124.718C394.827 124.691 394.925 124.628 394.994 124.538C395.063 124.448 395.099 124.338 395.096 124.225C395.094 124.112 395.052 124.003 394.979 123.916C394.906 123.83 394.806 123.771 394.695 123.75ZM389.745 132.03C386.235 132.165 374.962 132.03 364.207 132.03C363.968 132.03 363.74 132.125 363.571 132.294C363.402 132.462 363.307 132.691 363.307 132.93C363.307 133.169 363.402 133.398 363.571 133.566C363.74 133.735 363.968 133.83 364.207 133.83C366.457 133.988 387.562 133.11 389.767 133.02C389.898 133.017 390.023 132.962 390.114 132.867C390.205 132.772 390.254 132.645 390.251 132.514C390.248 132.383 390.193 132.258 390.098 132.167C390.003 132.076 389.876 132.027 389.745 132.03ZM317.25 19.5976C314.613 20.2451 312.201 21.5957 310.272 23.5055C308.342 25.4153 306.967 27.8128 306.292 30.4426C303.795 40.0051 312.457 50.4226 322.425 48.7576C324.603 48.2976 326.664 47.3978 328.483 46.1134C330.301 44.8289 331.838 43.1868 333 41.2876C334.135 39.1914 334.779 36.865 334.884 34.4837C334.989 32.1023 334.553 29.7281 333.607 27.5401C332.257 23.6701 328.252 17.4826 317.25 19.5976ZM322.695 38.5651C318.352 41.5576 313.267 36.1126 315.27 32.7601C318.87 26.7751 325.26 31.2976 325.417 33.5476C325.415 34.5465 325.162 35.529 324.683 36.4054C324.203 37.2818 323.512 38.0243 322.672 38.5651H322.695ZM322.425 28.3276C320.906 27.8497 319.272 27.8887 317.778 28.4383C316.284 28.9879 315.014 30.0171 314.167 31.3651C313.475 32.5786 313.214 33.9907 313.426 35.3715C313.639 36.7524 314.312 38.0207 315.337 38.9701C316.154 39.7538 317.158 40.315 318.253 40.5998C319.348 40.8846 320.499 40.8837 321.594 40.597C322.688 40.3102 323.691 39.7474 324.507 38.9623C325.322 38.1771 325.922 37.1959 326.25 36.1126C328.17 37.3719 330.317 38.2433 332.572 38.6776C331.776 40.6212 330.554 42.3617 328.996 43.7711C327.439 45.1806 325.585 46.2233 323.572 46.8226C314.572 49.4326 306.562 41.2651 307.575 32.4451C307.871 30.3909 308.63 28.4309 309.795 26.7131C310.96 24.9953 312.5 23.5645 314.298 22.5287C316.097 21.4929 318.107 20.8792 320.177 20.734C322.248 20.5887 324.324 20.9156 326.25 21.6901C324.468 23.5729 323.15 25.8457 322.402 28.3276H322.425Z" fill="white"/>
<path d="M297 58.2301C302.49 57.9376 403.02 57.1726 410.355 54.9901C416.002 53.9551 417.937 51.3451 417.645 45.6526C417.645 43.7626 417.96 22.0951 417.375 18.2476C416.857 13.5001 414.315 11.2501 408.96 10.9576C404.46 10.5301 300.172 12.1501 295.245 13.2076C291.24 13.9951 288.495 15.4576 287.955 19.9576C287.707 21.3301 288.787 46.7326 288.922 49.2076C289.237 54.5626 291.915 57.7351 297 58.2301ZM305.775 56.7001C304.45 56.5404 303.177 56.0881 302.049 55.376C300.92 54.6639 299.964 53.7097 299.25 52.5826C297.664 49.8511 296.847 46.7409 296.887 43.5826C296.64 39.7576 295.92 25.5826 295.83 22.1626C295.83 20.7676 295.83 16.1326 299.25 14.4676C304.537 13.9276 403.042 12.4651 407.25 12.6001C409.5 12.6001 412.537 12.7801 414.247 14.5126C416.767 17.0551 415.957 21.2626 416.115 45.4501C416.61 51.6151 414.27 52.9651 408.51 53.7976C403.335 54.5851 306.675 56.7001 305.82 56.7001H305.775ZM294.3 19.3051C294.007 21.3301 295.2 40.6801 295.312 43.2451C295.582 49.6126 297.405 54.1351 301.005 56.7451H298.755C293.265 56.7451 290.767 54.1126 290.52 48.5101C290.385 45.3151 289.35 21.5101 289.575 20.1601C290.047 16.0651 292.815 15.1651 296.482 14.7151C295.345 16.009 294.603 17.6021 294.345 19.3051H294.3Z" fill="white"/>
<path d="M347.4 25.1325C348.233 25.1325 374.063 24.48 373.838 24.48C373.954 24.4554 374.058 24.3917 374.133 24.2995C374.207 24.2074 374.248 24.0924 374.248 23.9738C374.248 23.8552 374.207 23.7401 374.133 23.648C374.058 23.5558 373.954 23.4921 373.838 23.4675C371.925 23.4675 349.628 23.085 347.355 23.4675C347.182 23.5303 347.033 23.6461 346.929 23.7984C346.825 23.9508 346.772 24.132 346.777 24.3163C346.782 24.5005 346.845 24.6786 346.957 24.8251C347.069 24.9716 347.224 25.0792 347.4 25.1325ZM381.758 32.1975C378.518 32.5125 345.983 31.41 345.758 33.0525C345.758 33.3675 346.05 33.615 346.275 33.66C349.11 33.9975 381.645 33.3 381.87 33.2775C381.941 33.2701 382.01 33.2488 382.073 33.2149C382.135 33.1809 382.191 33.1349 382.236 33.0796C382.281 33.0242 382.314 32.9605 382.335 32.8922C382.355 32.8239 382.361 32.7522 382.354 32.6813C382.347 32.6104 382.325 32.5416 382.291 32.4789C382.258 32.4162 382.212 32.3608 382.156 32.3159C382.101 32.271 382.037 32.2374 381.969 32.2171C381.9 32.1968 381.829 32.1901 381.758 32.1975ZM381.105 40.8375C375.548 40.8375 347.535 40.7025 346.073 40.95C345.929 40.9881 345.802 41.0728 345.711 41.1908C345.62 41.3089 345.571 41.4536 345.571 41.6025C345.571 41.7514 345.62 41.8962 345.711 42.0142C345.802 42.1322 345.929 42.2169 346.073 42.255C347.625 42.5025 378.833 41.7825 381.128 41.715C381.227 41.6899 381.314 41.632 381.376 41.5506C381.438 41.4692 381.47 41.3693 381.467 41.2673C381.465 41.1652 381.427 41.0671 381.362 40.989C381.296 40.9109 381.205 40.8575 381.105 40.8375ZM63.0003 184.973C78.2328 183.735 86.3103 164.115 74.4753 153.225C74.0478 152.843 74.8578 151.988 62.3928 170.01C47.3178 155.723 48.1278 156.263 47.7903 156.51C35.8653 168.278 47.6778 186.233 63.0003 184.973Z" fill="white"/>
<path d="M61.3351 162.63C61.7626 163.103 61.5601 163.17 71.7526 145.98C71.777 145.942 71.7935 145.899 71.8011 145.855C71.8087 145.81 71.8072 145.764 71.7967 145.72C71.7862 145.676 71.7669 145.634 71.74 145.598C71.7131 145.561 71.6791 145.531 71.6401 145.508C68.0458 143.616 63.9277 142.963 59.9247 143.651C55.9216 144.338 52.2573 146.328 49.5001 149.31C49.2301 149.648 48.8251 148.995 61.3351 162.63ZM37.8226 245.993C38.3997 245.989 38.9628 245.814 39.441 245.491C39.9192 245.168 40.2911 244.711 40.51 244.177C40.7289 243.643 40.7849 243.056 40.6711 242.491C40.5572 241.925 40.2785 241.405 39.8701 240.998C40.9951 239.175 48.2851 227.183 50.4226 223.943C50.9765 224.199 51.5948 224.282 52.1968 224.182C52.7988 224.081 53.3566 223.802 53.7976 223.38L64.1926 231.39C64.0231 231.892 63.9929 232.43 64.1051 232.947C64.2174 233.464 64.4679 233.941 64.83 234.328C65.1922 234.714 65.6523 234.994 66.1613 235.14C66.6704 235.285 67.2093 235.289 67.7206 235.152C68.2319 235.015 68.6965 234.742 69.0648 234.362C69.433 233.981 69.6912 233.508 69.8117 232.993C69.9323 232.477 69.9107 231.939 69.7493 231.435C69.5878 230.931 69.2926 230.48 68.8951 230.13L72.5851 225.27C73.2455 225.572 73.9943 225.62 74.6877 225.404C75.3811 225.188 75.9704 224.724 76.3426 224.1L87.0976 227.745C87.0395 228.229 87.1032 228.72 87.283 229.173C87.4629 229.626 87.7531 230.027 88.1272 230.339C88.5014 230.652 88.9478 230.866 89.4257 230.962C89.9035 231.058 90.3979 231.033 90.8636 230.889C91.3294 230.745 91.752 230.488 92.0928 230.139C92.4336 229.791 92.682 229.363 92.8152 228.894C92.9485 228.425 92.9625 227.93 92.856 227.454C92.7494 226.979 92.5257 226.537 92.2051 226.17C93.1051 222.953 100.89 199.17 101.678 196.92C102.433 196.854 103.134 196.5 103.635 195.93C105.773 197.618 112.185 202.41 114.255 203.805C114.137 204.271 114.135 204.758 114.25 205.225C114.365 205.692 114.593 206.123 114.914 206.48C115.235 206.837 115.64 207.11 116.091 207.274C116.543 207.438 117.028 207.489 117.504 207.421C117.979 207.353 118.431 207.169 118.819 206.885C119.206 206.601 119.518 206.226 119.726 205.793C119.934 205.36 120.033 204.882 120.012 204.402C119.992 203.922 119.854 203.454 119.61 203.04C125.595 193.5 125.865 193.658 125.235 193.23C125.117 193.157 124.975 193.13 124.838 193.155C124.701 193.18 124.578 193.255 124.493 193.365C123.435 194.895 118.44 201.915 118.44 201.915C117.908 201.653 117.31 201.554 116.722 201.63C116.134 201.706 115.581 201.954 115.133 202.343C113.04 200.88 106.403 196.133 104.288 194.49C104.378 193.971 104.326 193.437 104.138 192.945C103.95 192.452 103.632 192.02 103.219 191.693C102.805 191.367 102.311 191.158 101.789 191.089C101.266 191.02 100.735 191.093 100.25 191.301C99.7663 191.51 99.3473 191.845 99.0379 192.271C98.7285 192.698 98.5402 193.201 98.4928 193.725C98.4453 194.25 98.5406 194.778 98.7685 195.253C98.9965 195.729 99.3485 196.134 99.7876 196.425C97.8526 201.69 92.2276 219.915 90.7876 225.225C90.2469 225.086 89.678 225.1 89.1452 225.267C88.6124 225.434 88.1369 225.747 87.7726 226.17C85.5226 225.405 78.7726 223.358 76.7251 222.705C76.7251 221.935 76.4193 221.197 75.875 220.653C75.3306 220.108 74.5924 219.803 73.8226 219.803C73.0528 219.803 72.3145 220.108 71.7702 220.653C71.2259 221.197 70.9201 221.935 70.9201 222.705C70.9249 223.348 71.1381 223.971 71.5276 224.483L67.5001 229.5C67.1143 229.416 66.7152 229.412 66.3279 229.489C65.9407 229.567 65.5737 229.724 65.2501 229.95L54.5176 221.828C54.6347 221.131 54.4939 220.416 54.1215 219.816C53.749 219.216 53.1706 218.772 52.4945 218.568C51.8184 218.364 51.091 218.413 50.4487 218.706C49.8063 219 49.2931 219.518 49.0051 220.163C48.7813 220.626 48.6901 221.143 48.7418 221.655C48.7934 222.167 48.9858 222.655 49.2976 223.065C47.1826 226.238 39.5101 238.5 38.4076 240.278C38.0037 240.176 37.5828 240.163 37.1734 240.238C36.7639 240.314 36.3755 240.477 36.0346 240.716C35.6936 240.955 35.4081 241.264 35.1973 241.624C34.9866 241.983 34.8555 242.383 34.8131 242.797C34.7707 243.211 34.8179 243.63 34.9516 244.024C35.0852 244.419 35.3021 244.779 35.5876 245.083C35.873 245.386 36.2204 245.624 36.606 245.781C36.9917 245.938 37.4066 246.01 37.8226 245.993ZM76.9726 253.958C76.8055 253.958 76.6452 254.024 76.5271 254.142C76.409 254.26 76.3426 254.421 76.3426 254.588C76.3426 254.755 76.409 254.915 76.5271 255.033C76.6452 255.151 76.8055 255.218 76.9726 255.218C80.9101 255.218 127.125 253.418 128.723 253.395C128.828 253.372 128.921 253.313 128.989 253.23C129.056 253.146 129.093 253.041 129.093 252.934C129.093 252.826 129.056 252.722 128.989 252.638C128.921 252.554 128.828 252.496 128.723 252.473C122.445 252.495 81.0001 253.508 76.9726 253.958ZM96.7501 237.87C96.8933 237.87 97.0306 237.813 97.1319 237.712C97.2332 237.611 97.2901 237.473 97.2901 237.33C97.2901 237.187 97.2332 237.05 97.1319 236.948C97.0306 236.847 96.8933 236.79 96.7501 236.79C94.9726 236.79 88.5376 236.408 87.0301 236.475C86.7675 236.475 86.5157 236.579 86.33 236.765C86.1444 236.951 86.0401 237.203 86.0401 237.465C86.0401 237.728 86.1444 237.979 86.33 238.165C86.5157 238.351 86.7675 238.455 87.0301 238.455C88.5151 238.635 94.8826 238.028 96.7501 237.87ZM72.6976 240.75H63.0001C62.7904 240.76 62.5872 240.826 62.4118 240.941C62.2364 241.057 62.0953 241.217 62.0033 241.406C61.9112 241.595 61.8717 241.805 61.8887 242.014C61.9057 242.223 61.9787 242.424 62.1001 242.595C62.7076 243.495 63.1801 242.798 72.7426 241.988C72.8613 241.931 72.9608 241.841 73.0289 241.728C73.097 241.616 73.1308 241.486 73.126 241.354C73.1212 241.223 73.0781 241.095 73.002 240.988C72.9259 240.881 72.8201 240.798 72.6976 240.75ZM34.3351 252.765C34.8076 252.765 41.6476 252.023 43.1551 251.955C43.3222 251.955 43.4824 251.889 43.6006 251.771C43.7187 251.652 43.7851 251.492 43.7851 251.325C43.7851 251.158 43.7187 250.998 43.6006 250.88C43.4824 250.761 43.3222 250.695 43.1551 250.695C42.2776 250.695 34.6726 251.01 34.1551 251.258C34.0177 251.34 33.9071 251.461 33.8367 251.605C33.7662 251.749 33.7388 251.91 33.7578 252.07C33.7768 252.229 33.8414 252.379 33.9438 252.502C34.0462 252.626 34.1821 252.717 34.3351 252.765Z" fill="white"/>
<path d="M113.738 213.75H114.098C123.66 212.895 123.323 213.547 123.728 213.097C123.803 213.009 123.852 212.902 123.87 212.788C123.888 212.674 123.874 212.557 123.83 212.45C123.785 212.343 123.713 212.25 123.619 212.182C123.526 212.114 123.416 212.072 123.3 212.062C119.948 212.062 116.798 211.77 113.783 211.905C112.5 211.927 112.613 213.75 113.738 213.75ZM63.4279 194.107C63.1832 194.107 62.9486 194.205 62.7756 194.378C62.6026 194.551 62.5054 194.785 62.5054 195.03C62.5054 195.275 62.6026 195.509 62.7756 195.682C62.9486 195.855 63.1832 195.952 63.4279 195.952C66.6454 195.952 79.1779 194.805 82.2154 194.49C82.3593 194.462 82.4891 194.386 82.5824 194.273C82.6758 194.16 82.7269 194.018 82.7269 193.871C82.7269 193.725 82.6758 193.583 82.5824 193.47C82.4891 193.357 82.3593 193.28 82.2154 193.252C79.0879 193.5 66.5329 193.837 63.4279 194.107ZM61.8979 199.372C61.7169 199.417 61.5585 199.527 61.4526 199.68C61.3466 199.834 61.3003 200.021 61.3224 200.206C61.3445 200.391 61.4335 200.562 61.5726 200.686C61.7117 200.81 61.8914 200.879 62.0779 200.88C65.6329 200.88 79.5829 199.62 83.0929 199.597C83.248 199.597 83.3968 199.536 83.5065 199.426C83.6163 199.316 83.6779 199.168 83.6779 199.012C83.6779 198.857 83.6163 198.709 83.5065 198.599C83.3968 198.489 83.248 198.427 83.0929 198.427C76.0147 198.272 68.9341 198.587 61.8979 199.372ZM81.2929 202.972C75.4046 202.888 69.5161 203.12 63.6529 203.67C62.5729 203.805 62.5279 205.447 63.6529 205.447C65.6554 205.447 76.5904 204.322 81.3154 204.142C81.3922 204.141 81.468 204.124 81.5384 204.094C81.6088 204.063 81.6725 204.019 81.7258 203.963C81.779 203.908 81.8209 203.842 81.8489 203.771C81.8769 203.699 81.8906 203.623 81.8891 203.546C81.8877 203.469 81.8711 203.394 81.8403 203.323C81.8095 203.253 81.7652 203.189 81.7098 203.136C81.6545 203.083 81.5892 203.041 81.5176 203.013C81.4461 202.985 81.3697 202.971 81.2929 202.972ZM88.6954 154.507C89.7979 154.507 101.025 153.337 103.23 153.18C103.386 153.18 103.534 153.118 103.644 153.009C103.754 152.899 103.815 152.75 103.815 152.595C103.815 152.44 103.754 152.291 103.644 152.181C103.534 152.072 103.386 152.01 103.23 152.01C102.128 152.01 90.0904 152.37 88.7629 152.46C87.4354 152.55 87.4354 154.507 88.6954 154.507ZM91.0129 159.052C94.5454 159.052 108.315 157.747 111.803 157.522C111.93 157.497 112.044 157.428 112.126 157.327C112.209 157.227 112.253 157.101 112.253 156.971C112.253 156.841 112.209 156.716 112.126 156.615C112.044 156.515 111.93 156.446 111.803 156.42C108.293 156.577 94.4329 156.645 90.9904 157.005C90.7453 157.044 90.5224 157.17 90.3623 157.36C90.2023 157.549 90.1157 157.79 90.1185 158.038C90.1212 158.287 90.213 158.526 90.3772 158.712C90.5414 158.898 90.767 159.019 91.0129 159.052Z" fill="white"/>
</svg>
