<svg width="150" height="151" viewBox="0 0 150 151" fill="none" xmlns="http://www.w3.org/2000/svg">
<path d="M123.458 37.5275C123.763 37.4628 124.042 37.3088 124.26 37.085C124.234 37.2092 124.202 37.3319 124.163 37.4525C124.103 37.655 124.328 37.715 124.403 37.5875C124.668 37.1937 124.772 36.7134 124.695 36.245C124.691 36.2008 124.675 36.1585 124.647 36.1234C124.62 36.0882 124.584 36.0615 124.542 36.0465C124.5 36.0316 124.455 36.0289 124.412 36.0388C124.368 36.0487 124.329 36.0708 124.298 36.1025C123.983 36.485 123.923 37.025 123.39 37.19C123.348 37.2015 123.312 37.2286 123.289 37.2657C123.266 37.3029 123.258 37.3474 123.266 37.3903C123.275 37.4331 123.299 37.4711 123.335 37.4966C123.37 37.5221 123.414 37.5331 123.458 37.5275ZM121.98 35C122.022 35.0269 122.07 35.042 122.12 35.0439C122.17 35.0457 122.219 35.0341 122.263 35.0103C122.306 34.9866 122.343 34.9515 122.368 34.9088C122.394 34.866 122.407 34.8173 122.408 34.7675C122.408 34.7075 122.408 34.64 122.048 34.1C121.973 33.9875 121.883 33.7775 121.688 33.8825C121.493 33.9875 121.628 34.1825 121.733 34.445C121.943 35 121.943 35 121.98 35ZM121.86 33.6275C122.228 33.6275 122.483 33.6275 122.528 33.935C122.533 33.9808 122.557 34.0223 122.594 34.0504C122.631 34.0785 122.677 34.091 122.723 34.085C122.768 34.079 122.81 34.0551 122.838 34.0186C122.866 33.982 122.878 33.9358 122.873 33.89C122.813 33.647 122.67 33.4327 122.469 33.2846C122.267 33.1365 122.02 33.0641 121.77 33.08C121.711 33.1047 121.661 33.1487 121.63 33.2048C121.599 33.261 121.588 33.326 121.598 33.3894C121.609 33.4528 121.64 33.5108 121.688 33.554C121.735 33.5972 121.796 33.6231 121.86 33.6275ZM30.1275 56.4875C28.0238 57.5051 25.7087 58.0092 23.3723 57.9583C21.036 57.9075 18.745 57.3032 16.6875 56.195C16.6497 56.1721 16.6044 56.1652 16.5615 56.1758C16.5186 56.1863 16.4816 56.2135 16.4588 56.2513C16.4359 56.2891 16.429 56.3344 16.4395 56.3773C16.4501 56.4202 16.4772 56.4571 16.515 56.48C20.625 59.1575 26.6625 59.3075 30.24 56.6825C30.2659 56.6676 30.2847 56.643 30.2925 56.6142C30.3002 56.5854 30.2962 56.5546 30.2813 56.5288C30.2663 56.5029 30.2418 56.484 30.2129 56.4763C30.1841 56.4686 30.1534 56.4726 30.1275 56.4875ZM29.5725 34.25C30 34.4225 30.705 34.25 30.5175 33.8525C30.3923 33.5492 30.3042 33.2319 30.255 32.9075C30.255 32.8618 30.2368 32.8179 30.2045 32.7855C30.1721 32.7532 30.1283 32.735 30.0825 32.735C30.0368 32.735 29.9929 32.7532 29.9605 32.7855C29.9282 32.8179 29.91 32.8618 29.91 32.9075C29.9055 33.2248 29.9357 33.5417 30 33.8525C29.8977 33.9107 29.7793 33.9344 29.6625 33.92C29.6408 33.9141 29.6182 33.9125 29.5959 33.9154C29.5737 33.9182 29.5522 33.9254 29.5327 33.9365C29.5132 33.9477 29.496 33.9625 29.4823 33.9803C29.4685 33.9981 29.4584 34.0183 29.4525 34.04C29.4466 34.0617 29.445 34.0843 29.4479 34.1066C29.4507 34.1289 29.4579 34.1504 29.469 34.1699C29.4802 34.1894 29.495 34.2065 29.5128 34.2202C29.5306 34.234 29.5508 34.2441 29.5725 34.25ZM28.71 32.6075C28.8262 32.3377 28.9214 32.0594 28.995 31.775C29.0017 31.7489 29.0031 31.7217 28.9992 31.6951C28.9952 31.6684 28.986 31.6428 28.972 31.6197C28.9581 31.5967 28.9396 31.5766 28.9178 31.5608C28.896 31.545 28.8713 31.5337 28.845 31.5275C28.62 31.46 28.5825 31.7 28.47 31.9925C28.4054 32.138 28.3527 32.2885 28.3125 32.4425C28.3123 32.4887 28.3258 32.5339 28.3513 32.5723C28.3768 32.6108 28.4132 32.6408 28.4559 32.6584C28.4985 32.6761 28.5454 32.6808 28.5907 32.6717C28.636 32.6626 28.6775 32.6403 28.71 32.6075ZM31.2075 33.3125C31.2502 33.3313 31.2977 33.3363 31.3434 33.3269C31.3891 33.3175 31.4307 33.2941 31.4625 33.26C31.5775 32.9898 31.6728 32.7115 31.7475 32.4275C31.7554 32.4019 31.758 32.3749 31.755 32.3483C31.752 32.3217 31.7435 32.2959 31.7302 32.2727C31.7168 32.2495 31.6988 32.2293 31.6772 32.2133C31.6557 32.1974 31.6311 32.186 31.605 32.18C31.3725 32.1125 31.3275 32.3825 31.23 32.6375C31.1325 32.8925 30.945 33.2075 31.2075 33.3125ZM27.6075 34.85C27.8767 34.9848 28.1851 35.0194 28.4775 34.9475C28.665 34.865 28.5375 34.58 28.3575 34.64C28.1594 34.6264 27.9693 34.5561 27.81 34.4375C27.7085 34.3709 27.6212 34.285 27.553 34.1846C27.4848 34.0842 27.437 33.9714 27.4125 33.8525C27.36 33.5375 26.865 33.6575 26.94 33.9725C26.9764 34.1602 27.0556 34.337 27.1713 34.4892C27.2871 34.6414 27.4363 34.7648 27.6075 34.85ZM80.925 116.953C80.925 116.754 80.846 116.563 80.7053 116.422C80.5647 116.282 80.3739 116.203 80.175 116.203C79.9761 116.203 79.7853 116.282 79.6447 116.422C79.504 116.563 79.425 116.754 79.425 116.953C79.425 117.151 79.504 117.342 79.6447 117.483C79.7853 117.623 79.9761 117.703 80.175 117.703C80.3739 117.703 80.5647 117.623 80.7053 117.483C80.846 117.342 80.925 117.151 80.925 116.953ZM80.91 124.34C81.0285 124.351 81.148 124.337 81.2609 124.3C81.3738 124.262 81.4776 124.201 81.5656 124.121C81.6536 124.041 81.7239 123.943 81.772 123.834C81.8202 123.725 81.845 123.608 81.845 123.489C81.845 123.37 81.8202 123.252 81.772 123.143C81.7239 123.034 81.6536 122.937 81.5656 122.857C81.4776 122.776 81.3738 122.716 81.2609 122.678C81.148 122.64 81.0285 122.626 80.91 122.638C80.7915 122.626 80.672 122.64 80.5591 122.678C80.4462 122.716 80.3424 122.776 80.2544 122.857C80.1664 122.937 80.0961 123.034 80.048 123.143C79.9999 123.252 79.975 123.37 79.975 123.489C79.975 123.608 79.9999 123.725 80.048 123.834C80.0961 123.943 80.1664 124.041 80.2544 124.121C80.3424 124.201 80.4462 124.262 80.5591 124.3C80.672 124.337 80.7915 124.351 80.91 124.34ZM81.1275 130.415C80.9232 130.435 80.7336 130.53 80.5956 130.681C80.4576 130.833 80.3811 131.031 80.3811 131.236C80.3811 131.441 80.4576 131.639 80.5956 131.791C80.7336 131.943 80.9232 132.038 81.1275 132.058C81.3318 132.038 81.5214 131.943 81.6594 131.791C81.7975 131.639 81.8739 131.441 81.8739 131.236C81.8739 131.031 81.7975 130.833 81.6594 130.681C81.5214 130.53 81.3318 130.435 81.1275 130.415ZM76.575 97.8425C76.9446 99.8005 77.195 101.779 77.325 103.768C77.325 103.837 77.3527 103.904 77.4019 103.953C77.4511 104.002 77.5179 104.03 77.5875 104.03C77.6571 104.03 77.7239 104.002 77.7731 103.953C77.8224 103.904 77.85 103.837 77.85 103.768C77.7029 101.746 77.3944 99.7397 76.9275 97.7675C76.9084 97.7316 76.8781 97.7029 76.8412 97.6857C76.8043 97.6685 76.7628 97.6638 76.723 97.6723C76.6832 97.6808 76.6473 97.702 76.6206 97.7327C76.5939 97.7634 76.5779 97.8019 76.575 97.8425ZM78 119.803C78 119.751 77.9795 119.701 77.9429 119.665C77.9063 119.628 77.8567 119.608 77.805 119.608C77.7533 119.608 77.7037 119.628 77.6671 119.665C77.6306 119.701 77.61 119.751 77.61 119.803C77.535 124.94 77.445 137.218 77.49 138.553C77.5003 138.612 77.5311 138.665 77.5771 138.704C77.623 138.743 77.6812 138.764 77.7413 138.764C77.8013 138.764 77.8595 138.743 77.9054 138.704C77.9514 138.665 77.9822 138.612 77.9925 138.553C78.0975 136.13 78 121.003 78 119.803ZM98.13 68.2175C98.138 68.2385 98.1525 68.2564 98.1714 68.2686C98.1903 68.2807 98.2126 68.2865 98.235 68.285C100.215 67.2624 101.998 65.8962 103.5 64.25C103.521 64.2277 103.533 64.1982 103.533 64.1675C103.533 64.1368 103.521 64.1073 103.5 64.085C101.783 62.87 96.93 60.8525 96.9225 61.4225C96.8845 63.7441 97.2944 66.0512 98.13 68.2175ZM42.915 79.1C43.5227 79.1251 44.1229 78.9592 44.6314 78.6256C45.1399 78.292 45.5311 77.8074 45.75 77.24C45.9525 76.6025 45.8775 76.49 45.2625 72.7775C45.711 73.1372 46.1819 73.4679 46.6725 73.7675C46.8269 73.827 46.9978 73.8271 47.1522 73.7677C47.3066 73.7084 47.4335 73.5938 47.5082 73.4462C47.5829 73.2987 47.6002 73.1286 47.5566 72.969C47.5131 72.8094 47.4118 72.6717 47.2725 72.5825C46.0179 71.9299 45.0542 70.8297 44.5725 69.5C44.505 69.2675 43.6275 69.1925 43.2975 69.755C43.2975 69.8225 44.445 76.1975 44.46 76.265C44.5089 76.4569 44.5089 76.6581 44.46 76.85C44.3486 77.0909 44.1781 77.2997 43.9644 77.457C43.7506 77.6144 43.5006 77.7151 43.2375 77.75C43.0278 77.7915 42.8119 77.7908 42.6024 77.748C42.3929 77.7053 42.194 77.6213 42.0173 77.501C41.8406 77.3806 41.6895 77.2264 41.573 77.0471C41.4564 76.8679 41.3767 76.6672 41.3384 76.4569C41.3001 76.2466 41.3041 76.0307 41.35 75.8219C41.3959 75.6131 41.4828 75.4155 41.6058 75.2406C41.7288 75.0657 41.8853 74.917 42.0663 74.8032C42.2473 74.6893 42.4491 74.6126 42.66 74.5775C42.8361 74.5467 42.9926 74.4472 43.0953 74.3009C43.198 74.1546 43.2383 73.9736 43.2075 73.7975C43.1767 73.6215 43.0772 73.4649 42.9309 73.3622C42.7846 73.2595 42.6035 73.2192 42.4275 73.25C41.9072 73.3369 41.419 73.5594 41.0121 73.8952C40.6052 74.231 40.294 74.6681 40.11 75.1625C39.9411 75.6095 39.8849 76.0912 39.9462 76.5651C40.0076 77.039 40.1848 77.4904 40.462 77.8796C40.7393 78.2688 41.1081 78.5837 41.5359 78.7966C41.9637 79.0094 42.4374 79.1136 42.915 79.1Z" fill="white"/>
<path d="M51.225 73.9025C51.1463 72.3871 50.6156 70.93 49.7013 69.7189C48.787 68.5078 47.5309 67.5983 46.095 67.1075C39.6225 64.9175 33.6675 72.5 37.5 78.2525C38.4042 79.5993 39.7206 80.6166 41.2518 81.1519C42.7831 81.6873 44.4466 81.7117 45.9929 81.2216C47.5392 80.7315 48.885 79.7533 49.8283 78.4337C50.7717 77.1141 51.2617 75.5242 51.225 73.9025ZM39.225 69.1025C43.8225 64.8725 50.5725 68.3525 50.7525 73.91C50.7356 75.3256 50.3272 76.709 49.5727 77.9069C48.8182 79.1049 47.747 80.0707 46.4775 80.6975C42.2925 82.52 37.2375 79.3775 36.885 74.9525C36.7925 73.8646 36.9536 72.77 37.3558 71.7549C37.7579 70.7398 38.3901 69.8319 39.2025 69.1025H39.225ZM93 68.075C93.6515 69.0722 94.5331 69.8983 95.5705 70.4836C96.6079 71.0689 97.7709 71.3963 98.9613 71.4381C100.152 71.48 101.335 71.2351 102.411 70.7242C103.487 70.2132 104.424 69.4511 105.144 68.5021C105.864 67.5531 106.345 66.445 106.547 65.2711C106.749 64.0972 106.666 62.892 106.305 61.7569C105.944 60.6218 105.315 59.5901 104.472 58.7488C103.629 57.9074 102.596 57.2811 101.46 56.9225C94.725 54.8375 89.31 62.6825 93 68.075ZM94.725 58.9325C99.4125 54.6125 106.073 58.355 106.245 63.74C106.23 65.1523 105.826 66.5331 105.077 67.7306C104.328 68.9281 103.263 69.8959 102 70.5275C97.8225 72.35 92.76 69.215 92.4 64.7825C92.3094 63.692 92.4744 62.5954 92.8819 61.5799C93.2894 60.5643 93.9282 59.6579 94.7475 58.9325H94.725ZM46.7475 32.57C41.205 20.87 27 15.8825 15.54 23.6825C0.690043 33.83 4.20004 55.25 20.895 61.01C37.2 66.8 54.9975 50 46.7475 32.57ZM36.3 59.495C34.939 60.1614 33.5041 60.6649 32.025 60.995C32.1225 60.065 32.2425 57.665 32.2875 56.54C32.9925 57.665 34.2675 58.79 35.85 58.565C37.23 58.3475 38.4525 57.065 39.6 54.815C40.7235 52.3561 41.3554 49.7013 41.46 47C41.5823 46.6873 41.6605 46.3592 41.6925 46.025C42.0737 45.1469 42.5173 44.2972 43.02 43.4825C43.29 43.2472 43.5249 42.9744 43.7175 42.6725C43.9271 42.0911 43.9738 41.4635 43.8525 40.8575C43.829 40.2497 43.6048 39.6669 43.215 39.2C43.5225 38.5775 44.3775 35.735 44.52 35.18C44.5323 35.1205 44.5222 35.0586 44.4918 35.0061C44.4614 34.9535 44.4127 34.914 44.355 34.895C42.8515 34.6658 41.3305 34.5704 39.81 34.61C39.7575 34.5125 37.0575 42.2225 36.81 42.86C36.7986 42.8949 36.7944 42.9319 36.7978 42.9685C36.8011 43.0051 36.8119 43.0406 36.8294 43.0729C36.847 43.1052 36.8709 43.1336 36.8998 43.1563C36.9288 43.179 36.962 43.1956 36.9975 43.205C37.7429 43.3206 38.494 43.3957 39.2475 43.43C39.2475 43.7525 39.105 44.645 39.0525 44.93C38.8387 45.2015 38.6644 45.502 38.535 45.8225C37.6039 46.6324 36.9484 47.7126 36.66 48.9125C35.3325 43.085 34.41 40.58 29.16 37.6625C28.8975 37.52 28.5825 37.415 28.2975 37.2275C31.9275 38.0975 32.3325 38.51 32.4675 38.33C36.5775 32.54 34.665 25.9175 30.45 23.255C26.505 20.405 22.6125 23.0975 21.195 27.605C20.145 31.1525 21.945 34.2575 22.875 35.5475C22.02 35.63 21.7275 35.7275 21.045 35.8025C15.27 36.425 10.59 43.3475 8.44504 48.755C2.04754 34.0775 15.9825 17.3675 32.1825 21.2375C50.7 26.315 54.0675 50.9 36.3 59.495ZM13.3575 55.745C13.9275 54.86 15.3525 52.4 15.6825 51.8225C19.8525 55.0325 27.6825 55.4525 31.7925 52.715C31.7925 52.8425 31.605 60.0725 31.605 61.1C28.3566 61.6945 25.014 61.5198 21.8452 60.5899C18.6764 59.66 15.7696 58.0007 13.3575 55.745ZM36.885 50.585C36.8715 50.3511 36.844 50.1181 36.8025 49.8875C36.87 49.6775 36.915 49.49 36.9825 49.2425C37.47 50.0525 39.0825 51.4925 39.75 51.575C39.7836 51.5776 39.8171 51.5689 39.8452 51.5502C39.8732 51.5314 39.8941 51.5038 39.9045 51.4717C39.9149 51.4397 39.9142 51.4051 39.9025 51.3735C39.8908 51.3418 39.8688 51.3151 39.84 51.2975C38.7297 50.6073 37.8377 49.6165 37.2675 48.44C37.4403 47.9695 37.6941 47.5329 38.0175 47.15C38.6054 48.0728 39.4322 48.8192 40.41 49.31C40.4273 49.3144 40.4452 49.3154 40.4628 49.3129C40.4805 49.3104 40.4974 49.3045 40.5127 49.2954C40.5281 49.2864 40.5414 49.2744 40.5521 49.2602C40.5628 49.2459 40.5706 49.2297 40.575 49.2125C40.5795 49.1953 40.5805 49.1773 40.578 49.1597C40.5755 49.1421 40.5695 49.1251 40.5605 49.1098C40.5514 49.0945 40.5394 49.0811 40.5252 49.0704C40.511 49.0597 40.4948 49.0519 40.4775 49.0475C39.6004 48.4446 38.8782 47.6428 38.37 46.7075C38.4675 46.5875 38.5725 46.4675 38.6775 46.355C39.2799 46.9479 40.0829 47.2931 40.9275 47.3225C40.7949 49.5704 40.3324 51.7866 39.555 53.9C38.9404 55.3858 37.9786 56.7026 36.75 57.74C37.7836 55.7337 38.0194 53.4106 37.41 51.2375C37.395 51.1861 37.3632 51.1412 37.3197 51.1099C37.2763 51.0787 37.2236 51.0629 37.17 51.065C36.5325 51.065 37.425 53.675 32.9325 56.5625C32.7004 56.2303 32.4924 55.8819 32.31 55.52C32.355 52.97 32.25 50.4275 32.145 47.9675C32.145 47.9218 32.1269 47.8779 32.0945 47.8455C32.0622 47.8132 32.0183 47.795 31.9725 47.795C31.9268 47.795 31.8829 47.8132 31.8506 47.8455C31.8182 47.8779 31.8 47.9218 31.8 47.9675C31.845 49.2725 31.8 50.5625 31.8 52.1075C29.28 53.69 26.3925 54.2375 22.7025 53.825C20.2479 53.6957 17.883 52.8597 15.8925 51.4175C16.155 50.9375 17.25 48.8375 17.5575 48.275C17.5724 48.2494 17.58 48.2203 17.5797 48.1907C17.5794 48.1611 17.5712 48.1321 17.5558 48.1068C17.5405 48.0815 17.5187 48.0608 17.4926 48.0469C17.4665 48.0329 17.4371 48.0262 17.4075 48.0275C17.2275 48.0275 17.4075 47.9825 15.9075 50.555C13.5417 49.6282 11.631 47.8145 10.5825 45.5C11.7965 43.1826 13.3883 41.0838 15.2925 39.29C16.2707 40.648 17.5118 41.7956 18.9422 42.6645C20.3726 43.5333 21.9631 44.1058 23.6191 44.3479C25.2751 44.59 26.9629 44.4967 28.5822 44.0736C30.2014 43.6505 31.7191 42.9062 33.045 41.885C33.0705 41.8579 33.0855 41.8227 33.0874 41.7855C33.0894 41.7484 33.0781 41.7118 33.0557 41.6822C33.0333 41.6525 33.001 41.6318 32.9648 41.6236C32.9285 41.6154 32.8905 41.6204 32.8575 41.6375C31.7691 42.3854 30.5863 42.9857 29.34 43.4225C26.8816 44.2012 24.2404 44.1855 21.7914 43.3777C19.3424 42.5699 17.2102 41.011 15.6975 38.9225C16.4158 38.3396 17.1954 37.8367 18.0225 37.4225C20.865 43.82 27.8775 44.2775 31.2675 39.6725C33.0225 41.0375 33.5625 41.21 34.965 44.6C31.7475 47.405 28.815 48.8 26.01 48.77C23.6792 48.7863 21.3751 48.2729 19.2716 47.2686C17.1682 46.2643 15.3203 44.7953 13.8675 42.9725C13.7475 42.8075 13.4775 42.9725 13.5975 43.1525C15.8475 46.58 20.115 48.83 25.335 49.325C28.8675 49.67 32.6175 47.6525 35.1375 45.0875C35.5275 46.3775 36 48.275 36.0525 48.5C35.82 49.25 33.3075 51.5825 32.91 51.6725C32.6775 51.725 32.7975 52.085 33.0075 51.995C34.2163 51.2955 35.3052 50.4067 36.2325 49.3625C36.315 49.7525 36.465 50.45 36.4875 50.6225C36.51 50.795 36.9 50.825 36.885 50.585ZM41.385 39.275C41.2921 39.2488 41.1942 39.2458 41.0998 39.2661C41.0054 39.2865 40.9174 39.3296 40.8434 39.3917C40.7695 39.4538 40.7119 39.533 40.6755 39.6225C40.6392 39.7119 40.6253 39.8089 40.635 39.905C39.8325 40.0775 39.885 40.655 40.35 41.03C40.8103 41.3205 41.286 41.5859 41.775 41.825C41.6025 42.2375 41.4675 42.575 41.2875 42.9725C40.5375 42.9725 38.205 42.83 37.395 42.7625C37.695 41.825 39.2775 37.4675 40.1475 35.1125C40.8975 35.15 43.245 35.21 44.0025 35.33C43.8225 36.08 43.0575 38.2625 42.84 38.945C42.7242 38.8686 42.5942 38.8165 42.4577 38.7917C42.3212 38.7669 42.1811 38.77 42.0458 38.8009C41.9106 38.8317 41.7829 38.8896 41.6707 38.9711C41.5584 39.0526 41.4638 39.156 41.3925 39.275H41.385ZM41.715 43.3325C41.8425 42.9275 42 42.5375 42.21 42.0275C42.2435 42.0334 42.2779 42.0283 42.3082 42.013C42.3384 41.9978 42.363 41.9732 42.3782 41.9428C42.3933 41.9125 42.3983 41.8781 42.3923 41.8447C42.3864 41.8113 42.3698 41.7807 42.345 41.7575C42.1575 41.585 40.4175 40.6625 40.485 40.4825C40.5525 40.3025 40.9875 40.43 41.235 40.5725C41.7232 40.7735 42.2243 40.9414 42.735 41.075C42.7678 41.0786 42.8009 41.0712 42.8291 41.0541C42.8573 41.0369 42.8791 41.011 42.891 40.9802C42.903 40.9495 42.9045 40.9157 42.8953 40.884C42.886 40.8523 42.8666 40.8245 42.84 40.805C42.2543 40.5924 41.6831 40.3419 41.13 40.055C41.0175 39.95 40.965 39.665 41.13 39.6725C41.6811 39.8038 42.1944 40.0605 42.63 40.4225C42.6473 40.4388 42.6675 40.4515 42.6897 40.4599C42.7118 40.4683 42.7354 40.4723 42.7591 40.4716C42.7828 40.4709 42.8061 40.4655 42.8277 40.4558C42.8493 40.4461 42.8688 40.4322 42.885 40.415C42.9013 40.3978 42.914 40.3775 42.9224 40.3554C42.9308 40.3332 42.9348 40.3096 42.9341 40.2859C42.9334 40.2623 42.9281 40.239 42.9184 40.2174C42.9086 40.1957 42.8948 40.1763 42.8775 40.16C42.5958 39.9375 42.2974 39.737 41.985 39.56C41.61 39.3425 41.88 39.0725 42.255 39.125C42.7575 39.2 43.4025 39.875 43.335 41.2625C43.3975 41.6352 43.3491 42.018 43.1957 42.3634C43.0424 42.7087 42.7909 43.0014 42.4725 43.205C41.9892 43.972 41.5799 44.7831 41.25 45.6275C40.9202 45.7129 40.5729 45.7024 40.2488 45.5975C39.9247 45.4926 39.6372 45.2975 39.42 45.035C39.4725 44.7725 39.63 43.8725 39.675 43.535C41.3475 43.5875 41.64 43.58 41.7225 43.3325H41.715ZM37.1175 52.415C37.3758 54.3287 37.0599 56.276 36.21 58.01C35.6621 58.167 35.0788 58.1496 34.5413 57.9601C34.0037 57.7706 33.5384 57.4184 33.21 56.9525C35.0377 55.9863 36.4332 54.3658 37.1175 52.415ZM23.3175 36.2225C23.3309 36.2383 23.3483 36.2501 23.368 36.2566C23.3876 36.2632 23.4086 36.2642 23.4288 36.2595C23.4489 36.2549 23.4674 36.2448 23.4822 36.2303C23.497 36.2158 23.5075 36.1976 23.5125 36.1775C24.645 31.7225 24.615 32 24.51 31.94C23.25 31.25 23.6475 29.9075 24.1575 29.75C24.4125 29.6675 24.75 29.8325 25.0875 30.2075C25.3079 30.4147 25.4752 30.672 25.575 30.9575C26.325 33.0575 30.48 30.29 32.28 28.9625C32.4049 28.8587 32.5527 28.7859 32.7111 28.7502C32.8696 28.7145 33.0342 28.7169 33.1916 28.7572C33.3489 28.7974 33.4945 28.8744 33.6164 28.9818C33.7382 29.0892 33.8329 29.2239 33.8925 29.375C34.065 29.705 33.75 29.9825 33.5625 29.6225C33.1725 28.9625 32.49 29.33 32.505 29.51C32.655 31.37 32.31 34.01 30.8625 35.3C29.415 36.59 27.735 35.9225 27.585 36.05C27.435 36.1775 27.5175 36.2975 27.5175 36.44C27.4505 36.5992 27.4207 36.7716 27.4305 36.944C27.4403 37.1165 27.4894 37.2844 27.5741 37.435C27.6588 37.5855 27.7768 37.7147 27.9191 37.8126C28.0614 37.9106 28.2242 37.9747 28.395 38C29.0079 38.2316 29.5919 38.5336 30.135 38.9C27.465 43.025 21.63 42.4175 19.395 36.86C20.6445 36.4334 21.9467 36.181 23.265 36.11L23.3175 36.2225ZM10.335 45.9725C10.8196 47.1305 11.543 48.1733 12.458 49.0327C13.373 49.8921 14.459 50.5488 15.645 50.96C15.555 51.1025 13.4625 54.5225 12.9675 55.3625C11.1465 53.613 9.66637 51.5403 8.60254 49.25C9.34504 47.915 9.75004 47.105 10.335 45.98V45.9725ZM141.42 32.6825C137.198 19.1825 121.98 12.98 110.16 20.165C96.84 28.25 96.045 46.25 108.75 55.34C125.445 67.25 147.225 50.81 141.42 32.6825ZM118.62 53.1425C121.103 56.435 123.593 56.69 125.258 56.3075C128.363 55.6025 131.085 52.115 131.88 47.8175C131.891 47.7668 131.881 47.7138 131.853 47.6702C131.825 47.6266 131.781 47.5959 131.73 47.585C131.679 47.5741 131.626 47.5837 131.583 47.6119C131.539 47.64 131.508 47.6843 131.498 47.735C131.145 49.5701 130.375 51.2995 129.248 52.79C124.838 58.535 120.248 55.73 116.73 49.37C115.587 47.5465 114.945 45.4535 114.87 43.3025C116.655 42.4625 116.618 42.4175 116.828 42.5975C118.913 44.39 122.7 48.665 123.225 49.2425C123.234 49.2923 123.261 49.3373 123.3 49.3697C123.339 49.4021 123.388 49.4198 123.439 49.4198C123.49 49.4198 123.539 49.4021 123.578 49.3697C123.617 49.3373 123.643 49.2923 123.653 49.2425C124.493 45.8525 125.153 42.335 127.65 39.9125C128.577 39.6991 129.516 39.5413 130.463 39.44C133.785 43.64 133.313 49.2425 133.298 54.56C131.07 56.2608 128.511 57.4765 125.786 58.1288C123.06 58.7811 120.229 58.8556 117.473 58.3475C117.635 56.5712 118.02 54.8224 118.62 53.1425ZM131.1 39.3725C131.505 39.3725 131.468 38.7125 131.1 38.765C129.535 38.8956 127.998 39.2596 126.54 39.845C126.338 39.9275 126.105 39.9725 126.18 40.175C126.255 40.3775 126.42 40.2275 126.983 40.085C124.778 42.4175 123.945 45.7025 123.368 48.6575C122.955 48.155 121.935 46.9925 121.673 46.6925C123.983 41.6 123.855 41.4425 125.213 40.415C125.738 39.995 127.875 38.45 129.645 37.34C130.59 36.74 131.265 36.32 132.84 38.5025C134.303 40.535 134.34 40.565 133.403 45.0275C133.121 42.9726 132.309 41.0263 131.048 39.38L131.1 39.3725ZM114.6 34.955C114.735 34.955 114.803 35.06 114.908 35.2175C117.383 38.9675 117.195 38.54 117.195 38.615C117.195 38.975 117.683 39.515 118.17 39.9725C117.773 40.1225 117.03 40.4225 116.588 40.6025C116.588 39.2225 115.613 39.2225 115.35 39.8C114.885 39.1175 113.85 37.7675 113.64 37.505C113.583 37.4242 113.506 37.3596 113.417 37.3176C113.327 37.2755 113.229 37.2574 113.13 37.265C112.778 36.815 111.983 35.765 111.675 35.3075C111.75 35.2925 114.36 35 114.593 34.955H114.6ZM119.7 42.065C119.588 42.98 118.155 41.96 118.71 41.45C118.813 41.6237 118.955 41.7702 119.126 41.8772C119.297 41.9842 119.492 42.0486 119.693 42.065H119.7ZM119.618 41.5925C119.31 41.54 118.688 40.8425 118.868 40.685C119.048 40.5275 119.82 41.4725 119.805 41.585C119.742 41.6062 119.674 41.6088 119.61 41.5925H119.618ZM121.335 46.355C120.683 45.665 117.72 42.605 117.645 42.545C117.536 42.3826 117.396 42.2437 117.232 42.1368C117.069 42.0298 116.885 41.957 116.693 41.9225C116.594 41.6672 116.556 41.3926 116.58 41.12L118.515 40.295C118.695 40.4525 118.515 40.295 118.425 40.64C118.382 40.8009 118.401 40.9722 118.478 41.12C117.728 41.675 118.478 42.965 119.468 42.8675C119.762 43.0691 120.016 43.3233 120.218 43.6175C120.439 44.3831 120.754 45.1186 121.155 45.8075C121.403 46.25 121.388 46.1975 121.328 46.355H121.335ZM120.698 43.6775C120.698 43.4375 121.56 42.5375 121.695 42.425C122.097 42.5419 122.488 42.6924 122.865 42.875C122.648 43.37 121.95 44.9525 121.605 45.755C121.229 45.0962 120.922 44.3999 120.69 43.6775H120.698ZM120.39 43.1975C120.245 43.0064 120.073 42.8371 119.88 42.695C119.972 42.5952 120.042 42.4762 120.083 42.3467C120.125 42.2171 120.137 42.08 120.12 41.945C120.163 41.9163 120.199 41.8787 120.227 41.8347C120.254 41.7907 120.271 41.7413 120.278 41.69C120.338 41.3375 119.94 41.045 119.678 40.7975C118.901 40.1879 118.21 39.4765 117.623 38.6825C118.219 38.9811 118.788 39.3298 119.325 39.725C120.225 40.3925 121.38 41.0225 121.29 42.1325C120.959 42.4621 120.655 42.8183 120.383 43.1975H120.39ZM113.25 37.715C114.012 38.5761 114.712 39.4909 115.343 40.4525C115.364 40.486 115.396 40.5122 115.432 40.528C115.469 40.5437 115.509 40.5483 115.549 40.5411C115.588 40.5339 115.624 40.5152 115.653 40.4874C115.682 40.4597 115.702 40.424 115.71 40.385C115.71 40.175 115.808 39.8 116.003 39.8825C116.415 40.445 116.003 41.3225 116.28 42.02C114.27 42.905 115.913 42.68 114.675 41.27C113.528 40.0625 113.078 38.0975 113.25 37.715ZM120.983 36.965C121.256 35.9838 121.256 34.9463 120.983 33.965C120.871 33.5278 120.803 33.0806 120.78 32.63C121.23 32.6781 121.686 32.6578 122.13 32.57C123.443 32.3525 124.118 31.6475 124.44 31.865C124.65 32.0075 124.688 32.45 124.553 33.155C124.55 33.1779 124.554 33.2011 124.564 33.2216C124.575 33.242 124.592 33.2587 124.612 33.2693C124.633 33.28 124.656 33.284 124.679 33.281C124.702 33.278 124.723 33.2681 124.74 33.2525C125.026 33.0186 125.383 32.8914 125.753 32.8925C126.75 32.975 126.713 34.3925 125.753 35C125.732 35.0164 125.718 35.0396 125.712 35.0654C125.707 35.0913 125.711 35.1182 125.723 35.1414C125.736 35.1647 125.756 35.1828 125.781 35.1926C125.805 35.2024 125.832 35.2032 125.858 35.195C126.218 35.0713 126.604 35.0443 126.978 35.1167C127.351 35.1891 127.7 35.3583 127.988 35.6075C128.145 36.2354 128.358 36.8479 128.625 37.4375C127.583 38.15 126.188 39.125 125.19 39.8975C124.29 38.0075 123.173 39.35 122.4 37.835C121.62 36.5375 121.125 36.9875 120.945 36.9425L120.983 36.965ZM133.553 45.965C134.093 44.3181 134.403 42.6044 134.475 40.8725C134.369 40.0388 134.031 39.2516 133.5 38.6C131.37 35.525 130.5 36.035 128.858 37.145C128.708 36.6875 128.378 35.735 128.318 35.48C128.415 35.3825 128.67 35.135 128.745 35.0825C129.022 34.6932 129.238 34.263 129.383 33.8075C129.574 33.1712 129.653 32.5061 129.615 31.8425C129.653 31.2136 129.553 30.5839 129.323 29.9975C128.845 29.1636 128.091 28.5232 127.191 28.1875C126.291 27.8518 125.302 27.8421 124.395 28.16C122.993 27.695 121.185 27.215 120.503 27.5075C119.96 27.6384 119.473 27.9398 119.115 28.3675C118.756 28.7952 118.544 29.3267 118.509 29.8839C118.475 30.4411 118.62 30.9947 118.924 31.4633C119.227 31.9319 119.673 32.2909 120.195 32.4875C120.172 33.0666 120.238 33.6457 120.39 34.205C120.644 34.9922 120.665 35.8362 120.45 36.635C120.315 37.235 120.51 37.505 121.2 37.385C122.01 37.445 121.568 38.885 123.405 39.155C123.848 39.23 124.2 39.2975 124.658 40.145C123.892 40.7565 123.317 41.5734 123 42.5C122.592 42.2595 122.16 42.0634 121.71 41.915C121.66 41.5411 121.53 41.1824 121.328 40.8638C121.126 40.5452 120.857 40.2744 120.54 40.07C119.841 39.4864 119.088 38.9715 118.29 38.5325C118.133 38.45 117.803 38.195 117.54 38.2475C114.93 34.2725 115.2 34.445 114.383 34.445C113.327 34.4855 112.277 34.6262 111.248 34.865C111.211 34.8789 111.177 34.9009 111.15 34.9295C111.123 34.9581 111.102 34.9924 111.09 35.03C111.045 35.21 111.09 35.105 112.14 36.605C113.115 37.97 112.763 37.3025 112.823 38.0375C112.956 39.4546 113.533 40.7934 114.473 41.8625C114.651 42.1374 114.723 42.4682 114.675 42.7925L114.578 42.8375C114.323 42.965 114.645 45.5225 114.825 46.1225C115.649 48.4797 116.836 50.6938 118.343 52.685C117.604 54.4575 117.151 56.3358 117 58.25C110.303 56.75 104.58 52.1975 102 46.2875C99.42 40.3775 100.08 33.4475 103.995 26.975C114.833 11.0675 138.6 17.4575 141.42 36.0425C142.455 43.1 139.365 49.7975 133.815 54.1925C133.891 51.4511 133.786 48.7076 133.5 45.98L133.553 45.965ZM130.598 61.19C130.663 62.3931 130.872 63.584 131.22 64.7375C131.244 64.8091 131.295 64.8682 131.363 64.9019C131.43 64.9357 131.508 64.9413 131.58 64.9175C132.15 64.7525 131.31 63.965 131.063 61.1675C131.04 60.875 130.575 60.89 130.598 61.19ZM132.893 70.1525C132.878 70.0898 132.838 70.0357 132.784 70.0019C132.729 69.9682 132.663 69.9576 132.6 69.9725C132.537 69.9874 132.483 70.0266 132.449 70.0815C132.416 70.1363 132.405 70.2023 132.42 70.265C133.38 75.14 133.253 75.6125 133.74 75.515C134.228 75.4175 133.883 74.9525 132.893 70.1525ZM134.655 81.7475C134.243 81.86 134.79 81.92 135.158 86.4725C135.158 86.885 135.833 86.8625 135.788 86.4725C135.599 84.9333 135.3 83.4094 134.895 81.9125C134.893 81.8847 134.884 81.8577 134.87 81.8335C134.857 81.8094 134.837 81.7886 134.814 81.7728C134.791 81.757 134.765 81.7465 134.738 81.7422C134.71 81.7378 134.682 81.7396 134.655 81.7475ZM115.62 69.3425C116.421 66.9664 117.089 64.5476 117.623 62.0975C117.634 62.0411 117.623 61.9825 117.593 61.9338C117.562 61.885 117.514 61.8499 117.458 61.8355C117.403 61.8211 117.343 61.8285 117.293 61.8563C117.243 61.8842 117.205 61.9302 117.188 61.985C116.588 64.3925 115.793 66.725 115.05 69.17C115.038 69.2422 115.052 69.3164 115.09 69.3787C115.129 69.4411 115.189 69.4872 115.259 69.5084C115.329 69.5296 115.404 69.5245 115.471 69.4939C115.537 69.4633 115.59 69.4095 115.62 69.3425ZM112.575 79.25C112.995 79.25 112.92 78.74 114.113 74.2775C114.128 74.2238 114.122 74.166 114.096 74.1167C114.069 74.0675 114.024 74.0309 113.97 74.015C113.916 73.9991 113.859 74.0052 113.809 74.0319C113.76 74.0586 113.723 74.1038 113.708 74.1575C113.475 74.9075 112.455 78.065 112.268 78.86C112.256 78.9065 112.256 78.955 112.266 79.0018C112.276 79.0486 112.296 79.0924 112.326 79.13C112.356 79.1676 112.394 79.198 112.437 79.2188C112.48 79.2396 112.527 79.2502 112.575 79.25ZM109.17 89C109.433 89 109.418 88.805 109.635 87.935C109.928 86.75 110.385 84.935 110.565 84.425C110.678 84.125 110.22 83.99 110.108 84.275C109.602 85.7442 109.203 87.2482 108.915 88.775C108.921 88.838 108.95 88.8964 108.998 88.9382C109.045 88.9801 109.107 89.0022 109.17 89ZM106.695 95.3825C106.004 96.7214 105.47 98.1358 105.105 99.5975C105.085 99.6731 105.096 99.7535 105.135 99.821C105.175 99.8885 105.239 99.9376 105.315 99.9575C105.391 99.9774 105.471 99.9664 105.539 99.9271C105.606 99.8877 105.655 99.8231 105.675 99.7475C106.928 95.495 107.333 95.4575 106.965 95.2475C106.939 95.237 106.91 95.2322 106.882 95.2334C106.853 95.2347 106.825 95.2419 106.8 95.2546C106.774 95.2674 106.752 95.2853 106.734 95.3074C106.716 95.3294 106.703 95.355 106.695 95.3825ZM98.8575 73.58C98.9325 74.165 99.2025 76.58 99.2925 77.2475C99.298 77.2889 99.3115 77.3288 99.3323 77.3649C99.3531 77.4011 99.3809 77.4327 99.414 77.4582C99.4471 77.4836 99.4848 77.5022 99.5251 77.5131C99.5654 77.5239 99.6074 77.5267 99.6488 77.5213C99.6902 77.5158 99.7301 77.5023 99.7662 77.4815C99.8023 77.4607 99.834 77.4329 99.8594 77.3998C99.8849 77.3667 99.9035 77.329 99.9143 77.2887C99.9252 77.2484 99.928 77.2064 99.9225 77.165C99.825 76.52 99.405 74.0975 99.315 73.52C99.27 73.25 98.82 73.3025 98.8575 73.58ZM100.035 84.3125C100.118 84.785 100.425 86.825 100.523 87.365C100.598 87.77 101.198 87.62 101.123 87.2225C100.943 86.225 100.703 85.22 100.515 84.2225C100.455 83.885 99.9825 84.005 100.035 84.3125ZM101.25 94.745C101.284 96.0039 101.419 97.258 101.655 98.495C101.745 98.9075 102.36 98.7425 102.285 98.3375C102.029 97.1458 101.833 95.9417 101.7 94.73C101.633 94.4525 101.198 94.445 101.25 94.745ZM81.75 32.33C81.6075 32.06 81.21 32.285 81.3375 32.555C83.775 37.5575 83.5875 37.6025 83.94 37.6025C83.9982 37.602 84.0552 37.5868 84.1059 37.5583C84.1566 37.5298 84.1992 37.489 84.2299 37.4396C84.2606 37.3902 84.2783 37.3339 84.2814 37.2758C84.2845 37.2177 84.2728 37.1599 84.2475 37.1075C83.4225 35.495 82.5525 33.9275 81.75 32.33ZM86.4 42.11C86.2875 41.855 85.905 42.0575 86.0175 42.3125C86.7675 43.985 87.39 45.7025 88.155 47.3825C88.32 47.7575 88.8675 47.4575 88.7025 47.09C87.96 45.365 87.0825 43.6325 86.4 42.11ZM93 57.3875C93.0455 57.39 93.0908 57.3813 93.132 57.3621C93.1733 57.343 93.2092 57.3139 93.2366 57.2776C93.2641 57.2413 93.2821 57.1989 93.2892 57.1539C93.2964 57.109 93.2924 57.063 93.2775 57.02C93.015 56.27 91.7175 53.5175 91.3875 52.775C91.2525 52.4675 90.8025 52.7075 90.93 53.015C92.715 57.11 92.685 57.3875 93 57.3875ZM106.665 54.665C106.388 55.1375 105.113 56.87 104.768 57.3125C104.742 57.3455 104.723 57.3832 104.712 57.4235C104.701 57.4638 104.698 57.5058 104.703 57.5473C104.708 57.5887 104.722 57.6287 104.742 57.665C104.763 57.7013 104.791 57.7331 104.824 57.7588C104.857 57.7844 104.895 57.8032 104.935 57.8143C104.975 57.8253 105.017 57.8283 105.059 57.823C105.1 57.8178 105.14 57.8045 105.176 57.7838C105.213 57.7631 105.244 57.7355 105.27 57.7025C105.916 56.8017 106.502 55.8597 107.025 54.8825C107.054 54.8348 107.063 54.7775 107.049 54.7234C107.036 54.6692 107.002 54.6226 106.954 54.5938C106.906 54.5649 106.849 54.5562 106.795 54.5696C106.741 54.5829 106.694 54.6173 106.665 54.665ZM93.5625 26.375C93.87 26.375 94.035 25.91 93.7125 25.7675C93.03 25.46 90.1575 24.5075 89.445 24.2675C89.1525 24.155 89.0025 24.605 89.295 24.7175C90.0525 24.9875 93.315 26.375 93.5625 26.375ZM96.165 27.5C97.5114 28.2325 98.9255 28.8328 100.388 29.2925C100.471 29.307 100.558 29.2899 100.63 29.2445C100.702 29.1992 100.755 29.1287 100.778 29.0468C100.801 28.9649 100.793 28.8772 100.756 28.8007C100.718 28.7243 100.654 28.6643 100.575 28.6325C99.1397 28.2428 97.7437 27.7206 96.405 27.0725C96.12 26.945 95.88 27.38 96.165 27.5ZM60.3675 27.05C63.3675 25.0325 64.2675 25.49 64.1175 24.9575C64.1089 24.9268 64.0943 24.8982 64.0745 24.8732C64.0547 24.8482 64.0301 24.8275 64.0021 24.8121C63.9742 24.7967 63.9435 24.7871 63.9118 24.7837C63.8801 24.7804 63.8481 24.7833 63.8175 24.7925C62.4635 25.1486 61.1748 25.7183 60 26.48C59.655 26.75 60 27.29 60.3675 27.05ZM53.55 29.5775C53.3175 29.765 53.505 30.0725 53.7675 30.0725C53.8575 30.0725 53.8725 30.0725 54.6975 29.66C55.5225 29.2475 56.4675 28.805 56.82 28.7C56.8792 28.6767 56.9276 28.6321 56.9556 28.5749C56.9836 28.5178 56.9892 28.4523 56.9714 28.3912C56.9535 28.3301 56.9135 28.2779 56.8591 28.2449C56.8047 28.2118 56.74 28.2003 56.6775 28.2125C55.5922 28.5622 54.5445 29.0195 53.55 29.5775Z" fill="white"/>
<path d="M50.6553 30.995C50.2653 31.2125 48.1128 32.345 47.8803 32.495C47.8324 32.5283 47.796 32.5755 47.7758 32.6302C47.7556 32.6848 47.7527 32.7444 47.7674 32.8008C47.7821 32.8572 47.8137 32.9077 47.8581 32.9456C47.9024 32.9834 47.9573 33.0068 48.0153 33.0125C49.0117 32.5418 49.9785 32.0108 50.9103 31.4225C50.9524 31.3826 50.9797 31.3296 50.9877 31.2722C50.9957 31.2148 50.9838 31.1563 50.9541 31.1065C50.9244 31.0567 50.8786 31.0185 50.8243 30.9983C50.7699 30.978 50.7103 30.9768 50.6553 30.995ZM44.2503 19.01C45.2568 19.0168 46.2544 18.8196 47.1827 18.4304C48.111 18.0413 48.9509 17.4681 49.6518 16.7456C50.3526 16.023 50.8998 15.166 51.2605 14.2262C51.6212 13.2865 51.7878 12.2834 51.7503 11.2775C51.5253 4.57998 42.8478 1.38498 38.4603 7.08498C34.5003 12.0425 38.3103 19.01 44.2503 19.01ZM39.7503 6.49998C44.3478 2.26248 51.0978 5.74998 51.2703 11.3075C51.2564 12.718 50.8498 14.0968 50.096 15.2891C49.3422 16.4814 48.2711 17.4401 47.0028 18.0575C42.8103 19.8875 37.7628 16.745 37.4028 12.32C37.3163 11.2343 37.4834 10.1434 37.8908 9.13338C38.2982 8.12335 38.9347 7.22183 39.7503 6.49998ZM60.9303 12.6575C62.2578 12.8 63.5928 12.815 64.9203 12.875C64.9799 12.875 65.0372 12.8513 65.0794 12.8091C65.1216 12.7669 65.1453 12.7097 65.1453 12.65C65.1453 12.5903 65.1216 12.5331 65.0794 12.4909C65.0372 12.4487 64.9799 12.425 64.9203 12.425C63.5253 12.2975 62.6703 12.125 60.9303 12.0125C60.5328 11.99 60.5253 12.6125 60.9303 12.6575ZM53.0703 11.8625C53.6778 11.93 56.1753 12.1025 56.8203 12.185C57.1578 12.2375 57.2928 11.7275 56.9403 11.6675C55.6708 11.4682 54.3914 11.338 53.1078 11.2775C53.0693 11.275 53.0308 11.2801 52.9944 11.2926C52.958 11.305 52.9243 11.3245 52.8954 11.3499C52.8665 11.3753 52.8429 11.4062 52.826 11.4407C52.809 11.4753 52.799 11.5128 52.7965 11.5512C52.794 11.5896 52.7992 11.6282 52.8116 11.6646C52.824 11.701 52.8435 11.7346 52.8689 11.7635C52.8943 11.7925 52.9252 11.8161 52.9598 11.833C52.9943 11.85 53.0319 11.86 53.0703 11.8625ZM23.2503 67.355C23.4678 65.975 23.5203 64.6025 23.6853 63.23C23.7228 62.975 23.3028 62.915 23.2653 63.1775C23.0553 64.5275 22.7328 65.885 22.5753 67.2575C22.576 67.3399 22.6062 67.4193 22.6605 67.4814C22.7147 67.5435 22.7893 67.5841 22.8709 67.5959C22.9525 67.6076 23.0356 67.5898 23.1052 67.5456C23.1748 67.5015 23.2262 67.4338 23.2503 67.355ZM22.4403 71.0675C21.6903 75.185 21.5178 75.6875 22.0578 75.6875C22.4628 75.6875 22.3878 75.4175 22.8978 71.1275C22.9353 70.85 22.5003 70.79 22.4403 71.0675ZM36.2328 77.9225C35.0928 78.5225 33.6753 79.22 33.2328 79.4825C33.1713 79.5188 33.1236 79.5746 33.0972 79.6409C33.0708 79.7073 33.0672 79.7806 33.087 79.8492C33.1067 79.9178 33.1487 79.978 33.2063 80.0202C33.2639 80.0624 33.3339 80.0843 33.4053 80.0825C34.4511 79.5637 35.4676 78.9878 36.4503 78.3575C36.4961 78.3225 36.5283 78.2727 36.5414 78.2166C36.5544 78.1604 36.5474 78.1015 36.5217 78.0499C36.4959 77.9983 36.4529 77.9574 36.4002 77.9341C36.3474 77.9109 36.2882 77.9068 36.2328 77.9225ZM31.8453 80.2325C31.0264 80.6162 30.2279 81.0418 29.4528 81.5075C29.2128 81.725 29.4978 82.085 29.7828 81.95C30.0678 81.815 31.6653 80.825 32.0328 80.6525C32.4003 80.48 32.1228 80.1125 31.8453 80.2325ZM62.0478 86.48C62.3178 86.6525 62.5728 86.24 62.3103 86.06C61.7403 85.685 59.5728 84.08 58.9728 83.765C58.8951 83.7275 58.8065 83.7199 58.7236 83.7433C58.6407 83.7668 58.5692 83.8199 58.5228 83.8925C58.2153 84.3725 59.2503 84.6425 62.0478 86.48ZM51.6603 79.55C52.0353 79.8125 52.4103 80.06 52.7928 80.3C55.3503 81.995 55.2303 82.0475 55.3878 82.0475C55.4396 82.0468 55.49 82.0307 55.5328 82.0013C55.5755 81.972 55.6086 81.9306 55.6278 81.8825C55.6471 81.8344 55.6516 81.7816 55.6409 81.7309C55.6303 81.6802 55.6048 81.6338 55.5678 81.5975C54.4291 80.6603 53.2398 79.7865 52.0053 78.98C51.6453 78.7625 51.3153 79.3175 51.6603 79.55ZM125.513 104.405C124.283 104.577 123.015 104.705 121.763 104.99C121.686 105.014 121.62 105.064 121.577 105.133C121.534 105.201 121.517 105.282 121.528 105.362C121.54 105.442 121.58 105.514 121.641 105.567C121.702 105.62 121.78 105.65 121.86 105.65C122.153 105.65 124.02 105.147 125.61 104.9C126 104.87 125.85 104.345 125.513 104.405ZM118.883 105.62C117.623 105.807 116.235 105.92 114.87 106.152C114.488 106.22 114.593 106.775 114.968 106.775C115.343 106.775 118.028 106.235 118.98 106.085C119.288 106.032 119.183 105.575 118.883 105.62ZM73.5003 78.7325C73.4625 78.6688 73.4009 78.6228 73.3292 78.6045C73.2575 78.5862 73.1814 78.5972 73.1178 78.635C73.0541 78.6728 73.0081 78.7343 72.9898 78.806C72.9715 78.8778 72.9825 78.9538 73.0203 79.0175C73.3903 79.6207 73.9736 80.0626 74.6544 80.2558C75.3351 80.4489 76.0636 80.379 76.6953 80.06C76.7375 80.0342 76.7684 79.9934 76.7816 79.9457C76.7949 79.8981 76.7895 79.8472 76.7666 79.8033C76.7437 79.7594 76.7051 79.7259 76.6584 79.7095C76.6117 79.6931 76.5605 79.6951 76.5153 79.715C75.9774 79.9316 75.3804 79.9518 74.829 79.7722C74.2777 79.5925 73.8073 79.2244 73.5003 78.7325ZM78.7503 75.9575C78.6978 76.3925 78.3078 76.1525 78.2778 76.415C78.2778 76.5575 78.3978 76.61 78.5478 76.61C78.6809 76.6054 78.8104 76.5653 78.923 76.4941C79.0355 76.4228 79.1271 76.3228 79.1882 76.2044C79.2493 76.086 79.2777 75.9535 79.2706 75.8205C79.2635 75.6874 79.2211 75.5587 79.1478 75.4475C78.7271 74.9965 78.3434 74.5124 78.0003 74C77.9873 73.9532 77.9564 73.9135 77.9142 73.8896C77.872 73.8657 77.822 73.8596 77.7753 73.8725C77.7285 73.8854 77.6888 73.9164 77.6649 73.9586C77.641 74.0008 77.6348 74.0507 77.6478 74.0975C77.824 74.4941 78.0455 74.8691 78.3078 75.215C78.4792 75.4474 78.6274 75.6961 78.7503 75.9575ZM74.7678 70.4675C74.7479 70.378 74.6932 70.3 74.6159 70.2508C74.5385 70.2016 74.4448 70.1851 74.3553 70.205C74.2658 70.2249 74.1878 70.2795 74.1386 70.3569C74.0894 70.4342 74.0729 70.528 74.0928 70.6175C74.3028 72.0425 74.1753 72.65 74.7378 72.65C74.8452 72.65 74.9482 72.6073 75.0241 72.5314C75.1001 72.4554 75.1428 72.3524 75.1428 72.245C75.1428 72.0575 74.8278 70.7825 74.7678 70.4675ZM80.6628 70.535C80.6469 70.4532 80.6019 70.3799 80.5362 70.3287C80.4704 70.2774 80.3884 70.2517 80.3052 70.2563C80.222 70.2609 80.1432 70.2954 80.0835 70.3535C80.0238 70.4117 79.9871 70.4894 79.9803 70.5725C79.9803 70.685 80.0853 72.0275 80.1228 72.1325C80.1337 72.2319 80.1837 72.323 80.2618 72.3856C80.3398 72.4482 80.4396 72.4772 80.539 72.4662C80.6385 72.4553 80.7295 72.4053 80.7921 72.3272C80.8547 72.2492 80.8837 72.1494 80.8728 72.05C80.8578 71.96 80.7378 71.225 80.6628 70.535ZM73.5903 70.085C73.6866 69.7661 73.8862 69.4884 74.1578 69.2955C74.4294 69.1027 74.7575 69.0058 75.0903 69.02C75.1486 69.0267 75.2073 69.0111 75.2546 68.9763C75.3019 68.9415 75.3343 68.8902 75.3453 68.8325C75.4203 68.2925 73.4028 68.51 72.9603 69.9125C72.9374 69.996 72.9486 70.0852 72.9915 70.1605C73.0344 70.2357 73.1055 70.2909 73.189 70.3137C73.2726 70.3366 73.3618 70.3254 73.437 70.2825C73.5123 70.2396 73.5674 70.1685 73.5903 70.085ZM79.2003 68.75C79.4731 68.7342 79.7436 68.8086 79.9699 68.9618C80.1963 69.1149 80.366 69.3383 80.4528 69.5975C80.5878 69.89 81.0603 69.695 80.9703 69.38C80.8234 69.0264 80.5585 68.7346 80.2208 68.5541C79.8831 68.3736 79.4934 68.3156 79.1178 68.39C79.0771 68.4071 79.0438 68.438 79.0238 68.4773C79.0037 68.5165 78.9981 68.5616 79.0079 68.6046C79.0178 68.6476 79.0424 68.6857 79.0776 68.7123C79.1128 68.7389 79.1562 68.7522 79.2003 68.75ZM137.078 93.9875C137.078 93.9875 136.68 92.1725 136.575 91.6475C136.562 91.5888 136.527 91.5377 136.476 91.5053C136.425 91.473 136.364 91.4621 136.305 91.475C136.247 91.4879 136.195 91.5236 136.163 91.5743C136.131 91.6249 136.12 91.6863 136.133 91.745L136.485 93.8825C135.294 93.7316 134.084 93.8356 132.936 94.1876C131.788 94.5397 130.727 95.1318 129.825 95.9246C128.923 96.7175 128.2 97.693 127.703 98.7865C127.207 99.88 126.948 101.067 126.945 102.267C127.395 113.57 143.618 113.345 143.843 102.267C143.858 100.315 143.19 98.4186 141.955 96.9065C140.719 95.3944 138.994 94.3618 137.078 93.9875ZM139.013 105.815C137.828 109.182 133.358 108.582 133.358 104.562V102.132C133.227 102.149 133.094 102.138 132.967 102.099C132.841 102.06 132.725 101.995 132.625 101.908C132.526 101.821 132.447 101.713 132.392 101.593C132.338 101.473 132.31 101.342 132.31 101.21C132.31 101.078 132.338 100.947 132.392 100.827C132.447 100.707 132.526 100.599 132.625 100.512C132.725 100.425 132.841 100.36 132.967 100.321C133.094 100.282 133.227 100.271 133.358 100.287C133.358 99.5375 133.358 98.7875 133.41 97.97C133.413 97.8488 133.44 97.7294 133.489 97.6186C133.538 97.5078 133.609 97.4078 133.696 97.3242C133.784 97.2406 133.887 97.1751 134 97.1315C134.114 97.0879 134.234 97.067 134.355 97.07C134.601 97.0778 134.833 97.1824 135.002 97.3608C135.17 97.5392 135.261 97.7771 135.255 98.0225C135.255 98.81 135.255 99.56 135.21 100.272H136.793C136.914 100.269 137.034 100.291 137.147 100.335C137.26 100.379 137.362 100.446 137.449 100.53C137.536 100.615 137.605 100.716 137.652 100.827C137.699 100.939 137.723 101.059 137.723 101.18C137.725 101.302 137.703 101.423 137.658 101.536C137.613 101.649 137.546 101.752 137.461 101.839C137.376 101.927 137.274 101.996 137.162 102.044C137.05 102.091 136.93 102.117 136.808 102.117H135.188C135.188 104.855 135.113 105.312 135.488 105.777C136.02 106.452 136.83 106.227 137.25 105.192C137.333 104.959 137.505 104.767 137.728 104.661C137.952 104.554 138.209 104.54 138.443 104.622C138.676 104.705 138.868 104.877 138.975 105.101C139.082 105.324 139.095 105.581 139.013 105.815ZM76.8078 8.32998C75.2727 8.32203 73.7512 8.61841 72.3313 9.20197C70.9115 9.78554 69.6213 10.6447 68.5355 11.7299C67.4496 12.815 66.5896 14.1046 66.0051 15.5241C65.4207 16.9436 65.1233 18.4649 65.1303 20C65.4378 35.45 88.1778 35.4575 88.4778 20C88.4857 18.4652 88.1893 16.9441 87.6056 15.5247C87.022 14.1052 86.1627 12.8156 85.0774 11.7303C83.9922 10.6451 82.7025 9.78576 81.2831 9.20211C79.8636 8.61845 78.3425 8.32203 76.8078 8.32998ZM80.1753 14.225C80.0604 14.4404 79.8655 14.602 79.6326 14.6749C79.3997 14.7479 79.1474 14.7263 78.9303 14.615C78.5434 14.4023 78.0941 14.3323 77.6609 14.4173C77.2276 14.5023 76.8381 14.7369 76.5603 15.08C75.6978 15.98 75.7353 19.04 75.7353 19.205L77.9853 18.86C78.2279 18.8232 78.4753 18.8843 78.6729 19.0299C78.8705 19.1754 79.0022 19.3936 79.039 19.6362C79.0758 19.8789 79.0147 20.1263 78.8691 20.3239C78.7236 20.5215 78.5054 20.6532 78.2628 20.69L75.7428 21.0725C75.7428 22.8575 75.8253 24.5825 75.8853 26.3225C75.8746 26.5557 75.7766 26.7763 75.6108 26.9406C75.445 27.1049 75.2234 27.2009 74.9901 27.2094C74.7568 27.2179 74.5289 27.1383 74.3515 26.9865C74.1742 26.8347 74.0604 26.6218 74.0328 26.39C73.9503 23.93 73.8903 21.4325 73.8603 18.7625C73.8603 17.2625 73.8603 15.305 75.1953 13.8275C77.2878 11.54 81.0003 12.6875 80.1753 14.225Z" fill="white"/>
<path d="M112.335 109.25C115.403 100.34 115.253 100.865 115.2 100.79C115.148 100.715 105.45 100.535 100.065 100.64C97.9175 97.4202 95.1109 94.6928 91.8308 92.6384C88.5507 90.584 84.8719 89.2493 81.0376 88.7225C80.4545 88.083 79.6502 87.6889 78.7876 87.62L77.8501 87.2975C77.8127 86.5655 77.8127 85.8321 77.8501 85.1C79.9547 84.2983 81.6742 82.7237 82.6576 80.6975C83.7601 78.2225 83.2125 75.0575 82.5676 67.01C84.1125 67.49 84.1501 65.9 83.2126 64.655C83.2548 64.3889 83.2414 64.117 83.1733 63.8563C83.1052 63.5957 82.9838 63.352 82.8168 63.1406C82.6498 62.9292 82.4408 62.7547 82.203 62.6281C81.9651 62.5015 81.7037 62.4255 81.4351 62.405C81.5793 62.1838 81.6626 61.9284 81.6764 61.6646C81.6903 61.4008 81.6343 61.1381 81.514 60.9029C81.3938 60.6678 81.2136 60.4685 80.9916 60.3253C80.7697 60.1822 80.5139 60.1001 80.2501 60.0875C80.0938 59.7442 79.8341 59.4584 79.5073 59.2701C79.1804 59.0818 78.8029 59.0005 78.4276 59.0375C78.3745 58.7852 78.255 58.5517 78.0814 58.3611C77.9079 58.1704 77.6866 58.0296 77.4404 57.9531C77.1942 57.8767 76.932 57.8673 76.681 57.9261C76.43 57.9849 76.1992 58.1097 76.0126 58.2875C75.8551 58.0475 75.4651 57.455 75.2626 57.23C75.4228 57.0722 75.5331 56.8707 75.5797 56.6507C75.6264 56.4307 75.6074 56.2018 75.5251 55.9925C75.8925 55.8775 76.2137 55.6482 76.4417 55.3379C76.6697 55.0276 76.7927 54.6526 76.7927 54.2675C76.7927 53.8825 76.6697 53.5075 76.4417 53.1972C76.2137 52.8869 75.8925 52.6575 75.5251 52.5425C76.1175 50.3825 74.0926 49.055 72.2551 49.9175C72.1557 49.6697 71.9851 49.457 71.7648 49.3061C71.5446 49.1552 71.2845 49.0731 71.0176 49.07C72.5176 47.18 70.3801 45.86 68.3475 46.505C68.2139 46.1622 67.9894 45.8622 67.6981 45.6374C67.4068 45.4125 67.0597 45.2713 66.6942 45.2289C66.3287 45.1865 65.9585 45.2445 65.6234 45.3966C65.2884 45.5488 65.0011 45.7894 64.7926 46.0925C64.3004 45.9633 63.7772 46.0323 63.3354 46.2848C62.8937 46.5372 62.5686 46.9529 62.4301 47.4425C62.1152 47.3683 61.7877 47.3648 61.4713 47.4322C61.1549 47.4997 60.8573 47.6364 60.6001 47.8325C60.4284 47.5358 60.1546 47.3118 59.8297 47.2024C59.5049 47.0929 59.1513 47.1056 58.8351 47.2379C58.5189 47.3703 58.2618 47.6133 58.1118 47.9215C57.9617 48.2297 57.9291 48.582 58.0201 48.9125C57.8125 48.9704 57.6285 49.0921 57.4939 49.2603C57.3593 49.4286 57.281 49.6349 57.2701 49.85C57.1876 49.8362 57.1031 49.8399 57.0221 49.861C56.9412 49.8822 56.8657 49.9202 56.8005 49.9726C56.7353 50.0251 56.682 50.0907 56.644 50.1652C56.606 50.2398 56.5842 50.3215 56.5801 50.405C56.3847 50.3555 56.1792 50.364 55.9887 50.4296C55.7981 50.4952 55.6309 50.615 55.5075 50.7742C55.384 50.9335 55.3098 51.1253 55.2938 51.3262C55.2778 51.5271 55.3208 51.7282 55.4176 51.905C55.1732 51.9599 54.9505 52.0855 54.7771 52.2662C54.6037 52.4469 54.4874 52.6746 54.4426 52.9209C54.3978 53.1673 54.4265 53.4214 54.5252 53.6515C54.6239 53.8817 54.7882 54.0777 54.9976 54.215C53.8126 54.56 53.0476 55.715 53.4976 56.765C52.1476 57.5825 51.5926 59.24 52.5451 60.395C52.3737 60.8718 52.3811 61.3945 52.5659 61.8662C52.7507 62.338 53.1004 62.7266 53.5501 62.96C53.3539 63.2011 53.2292 63.4924 53.19 63.8007C53.1508 64.109 53.1987 64.4222 53.3282 64.7047C53.4578 64.9872 53.6638 65.2278 53.9231 65.3993C54.1823 65.5708 54.4844 65.6663 54.7951 65.675C54.8179 65.9467 54.9106 66.2079 55.0642 66.4332C55.2177 66.6585 55.4268 66.8404 55.6713 66.9611C55.9157 67.0818 56.1872 67.1373 56.4595 67.1222C56.7317 67.1072 56.9954 67.022 57.2251 66.875C57.3473 67.07 57.5239 67.2248 57.7331 67.3205C57.9423 67.4161 58.175 67.4484 58.4024 67.4133C58.6297 67.3782 58.8419 67.2773 59.0125 67.123C59.1831 66.9686 59.3048 66.7677 59.3626 66.545C59.7296 66.6831 60.1236 66.7346 60.5139 66.6956C60.9041 66.6565 61.2801 66.528 61.6126 66.32C61.3051 68.1875 59.8876 68.3225 60.3301 70.28C60.0687 70.6238 59.9241 71.0421 59.9174 71.4739C59.9106 71.9056 60.0421 72.3283 60.2926 72.68C60.2075 72.8609 60.1594 73.0569 60.1512 73.2566C60.1429 73.4563 60.1747 73.6556 60.2445 73.8429C60.3144 74.0301 60.421 74.2015 60.558 74.347C60.6951 74.4925 60.8598 74.6091 61.0426 74.69C60.9724 74.8278 60.9391 74.9814 60.9462 75.1358C60.9532 75.2903 61.0002 75.4403 61.0826 75.5711C61.165 75.7019 61.28 75.809 61.4163 75.882C61.5526 75.955 61.7055 75.9914 61.8601 75.9875C62.0075 76.5389 62.2907 77.0447 62.6837 77.4587C63.0767 77.8726 63.567 78.1816 64.1101 78.3575C64.1851 87.785 64.5301 86.6525 63.6301 87.7475C62.8011 88.1829 62.1219 88.857 61.6801 89.6825C48.5251 94.25 43.2151 104.683 41.4751 118.685C40.4701 118.528 40.4251 118.49 40.3876 118.618C39.9827 120.193 39.8408 121.825 39.9676 123.448C39.9676 123.545 39.9676 123.538 41.1676 123.83C41.5051 129.613 44.6326 135.883 50.9176 136.985C50.8351 138.2 50.7376 145.16 50.9176 146.735C50.9255 146.772 50.9459 146.805 50.9752 146.828C51.0046 146.852 51.0411 146.865 51.0788 146.865C51.1165 146.865 51.153 146.852 51.1824 146.828C51.2117 146.805 51.2321 146.772 51.2401 146.735C51.2401 145.895 51.3451 138.35 51.4126 137.098C55.2301 137.473 57.4651 135.875 60.4726 132.598C65.1976 127.348 67.8751 121.685 70.6651 115.745C71.1551 114.786 71.5495 113.781 71.8426 112.745C72.2827 112.923 72.7678 112.957 73.2285 112.843C73.6892 112.728 74.1019 112.471 74.4076 112.108C75.4818 112.454 76.623 112.542 77.7376 112.363C77.9261 112.328 78.1053 112.254 78.2642 112.147C78.423 112.039 78.5581 111.9 78.6608 111.739C78.7636 111.577 78.8318 111.395 78.8614 111.206C78.8909 111.017 78.8811 110.823 78.8326 110.638C79.7926 110.593 80.3926 109.723 79.4326 108.995C79.1269 108.76 78.8035 108.55 78.4651 108.365C79.2601 108.313 81.3601 108.08 82.0426 107.615C82.7251 107.15 82.7026 105.988 81.7576 105.86C81.3601 105.808 75.5176 106.048 74.1901 106.235C72.8765 106.374 71.6326 106.896 70.6126 107.735C69.1126 108.973 58.5076 117.785 54.7201 120.965C52.5226 120.568 44.2876 119.158 42.0976 118.813C43.9126 103.685 50.0776 94.64 61.4776 90.38C60.7801 93.23 64.1551 96.155 65.2276 97.025C66.9901 98.4725 69.8701 100.025 72.3376 99.35C73.9051 98.93 75.0751 97.7225 75.8251 95.75C79.1551 98.6375 80.7226 98.315 81.2476 98.045C83.2651 96.9875 83.1825 91.8425 81.5026 89.3675C85.1021 89.9249 88.5479 91.219 91.6245 93.169C94.701 95.1189 97.3421 97.6827 99.3826 100.7C95.94 100.775 96.1501 100.775 96.1201 100.865C95.3067 103.059 94.5167 105.262 93.7501 107.473C93.4501 105.605 93.0001 103.063 92.8051 102.328C92.7884 102.287 92.7578 102.255 92.7189 102.235C92.68 102.216 92.6354 102.211 92.5934 102.222C92.5514 102.233 92.5147 102.259 92.4902 102.295C92.4657 102.331 92.455 102.374 92.4601 102.418C92.6776 103.333 93.1276 106.805 93.3751 108.56C90.3301 117.373 87.9451 125.315 88.0051 125.398C88.065 125.48 95.5051 125.48 96.465 125.465C97.215 131.735 97.7851 144.808 97.7626 146.36C97.7626 146.404 97.7799 146.446 97.8109 146.477C97.8418 146.508 97.8838 146.525 97.9276 146.525C97.9713 146.525 98.0133 146.508 98.0442 146.477C98.0752 146.446 98.0925 146.404 98.0925 146.36C98.2275 143.6 98.0926 135.305 97.965 133.513C99.7387 133.218 101.364 132.342 102.585 131.023C103.5 130.085 104.835 127.31 105.758 125.075C107.213 124.978 107.258 125 107.258 124.903C108.113 122.915 108.96 120.575 109.673 118.295C113.213 117.763 115.005 112.798 113.573 110.548C113.251 110.036 112.83 109.595 112.335 109.25ZM51.1876 125.195C51.6676 125.113 51.1351 124.445 69.2401 109.565C72.2401 107.113 72.4726 106.88 76.1101 106.633C77.4601 106.543 80.9626 106.415 81.3601 106.408C81.6676 106.408 81.9376 106.408 81.9151 106.685C81.9151 107.165 81.1651 107.308 80.6476 107.435C79.0951 107.811 77.5047 108.007 75.9076 108.02C75.8598 108.02 75.814 108.039 75.7803 108.073C75.7465 108.107 75.7276 108.152 75.7276 108.2C75.7276 108.248 75.7465 108.294 75.7803 108.327C75.814 108.361 75.8598 108.38 75.9076 108.38H77.4676C77.9458 108.612 78.4026 108.885 78.8326 109.198C79.0126 109.325 79.3351 109.445 79.3576 109.618C79.4776 110.615 76.9576 109.693 76.0726 109.265C76.0417 109.249 76.0058 109.246 75.9728 109.257C75.9397 109.267 75.9122 109.29 75.8963 109.321C75.8804 109.352 75.8774 109.388 75.8879 109.421C75.8985 109.454 75.9217 109.482 75.9526 109.498C76.59 109.895 78.7951 110.668 78.285 111.418C77.6326 112.363 75.9226 111.958 74.7901 111.733C75.0266 111.541 75.3111 111.418 75.6126 111.377C75.9141 111.336 76.221 111.379 76.5001 111.5C76.5382 111.51 76.5785 111.505 76.6137 111.488C76.6488 111.47 76.6766 111.441 76.692 111.405C76.7074 111.368 76.7093 111.328 76.6975 111.29C76.6857 111.253 76.6609 111.221 76.6276 111.2C76.1668 111.006 75.6572 110.96 75.1694 111.069C74.6815 111.178 74.2396 111.436 73.9051 111.808C73.0126 112.663 71.9026 112.46 71.0401 111.59C71.0092 111.563 70.9697 111.547 70.9285 111.547C70.8874 111.546 70.8474 111.56 70.8157 111.586C70.784 111.613 70.7627 111.649 70.7557 111.69C70.7487 111.73 70.7565 111.772 70.7776 111.808C70.95 112.072 71.1746 112.3 71.4376 112.475C70.1013 115.761 68.5994 118.978 66.9376 122.113C63.9376 127.738 60.8926 131.713 57.4726 134.608C53.7676 137.795 48.3226 136.625 45.1951 132.98C43.3201 130.813 42.1426 127.775 41.7076 123.98C43.2676 124.25 49.5001 125.143 51.1876 125.195ZM64.1926 62.63C63.5455 63.0845 63.0451 63.7179 62.7526 64.4525C62.4598 64.1941 62.2334 63.8692 62.0925 63.505C61.9515 63.1409 61.9001 62.7482 61.9426 62.36C62.6101 59.36 65.6926 56.735 68.2501 55.9625C69.8251 55.325 73.8301 56.0375 75.1201 57.965C74.6992 57.9268 74.2793 58.0472 73.9426 58.3025C73.7408 58.0401 73.4823 57.8266 73.1864 57.6781C72.8906 57.5296 72.565 57.4498 72.234 57.4447C71.903 57.4397 71.5751 57.5095 71.2749 57.6489C70.9746 57.7884 70.7097 57.9939 70.5001 58.25C70.0897 58.3696 69.7192 58.5976 69.4276 58.91C69.1515 58.7622 68.8383 58.6984 68.5265 58.7264C68.2147 58.7544 67.9178 58.873 67.6726 59.0675C67.4113 59.1384 67.1817 59.2955 67.0211 59.5134C66.8604 59.7312 66.7781 59.997 66.7876 60.2675C66.4583 60.235 66.126 60.2719 65.8119 60.376C65.4979 60.48 65.2092 60.6489 64.9646 60.8716C64.72 61.0943 64.5248 61.3659 64.3918 61.6688C64.2588 61.9717 64.1909 62.2992 64.1926 62.63ZM78.3751 93.7925C74.8726 97.4225 64.3501 93.1925 63.6676 89.8175C63.6135 89.4548 63.6458 89.0844 63.7618 88.7365C63.8778 88.3885 64.0742 88.0728 64.3351 87.815C64.4101 87.74 64.4626 87.6575 64.5376 87.5825C64.5463 87.5609 64.5463 87.5367 64.5376 87.515L64.6801 87.335C64.8676 86.9825 64.6351 79.52 64.5976 78.4475C64.8798 78.4513 65.156 78.3655 65.3864 78.2024C65.6169 78.0394 65.7897 77.8075 65.8801 77.54C66.0398 77.6269 66.2217 77.6647 66.4028 77.6485C66.584 77.6324 66.7563 77.563 66.8982 77.4492C67.04 77.3354 67.1451 77.1822 67.2001 77.0089C67.2552 76.8356 67.2578 76.6498 67.2076 76.475L69.0526 74.495C69.05 74.7412 69.118 74.9831 69.2484 75.1919C69.3789 75.4007 69.5664 75.5678 69.7888 75.6735C70.0112 75.7792 70.2592 75.819 70.5035 75.7883C70.7479 75.7575 70.9783 75.6575 71.1676 75.5C71.3614 75.3591 71.5218 75.1772 71.6371 74.9671C71.7525 74.7571 71.8201 74.5242 71.8351 74.285C71.838 74.2592 71.8319 74.2332 71.8178 74.2113C71.8037 74.1895 71.7824 74.1732 71.7577 74.1653C71.733 74.1573 71.7062 74.1582 71.682 74.1677C71.6579 74.1772 71.6377 74.1948 71.6251 74.2175C71.5004 74.4043 71.316 74.5432 71.102 74.6113C70.888 74.6795 70.6573 74.6728 70.4476 74.5925C70.5209 74.2815 70.5065 73.9563 70.4059 73.653C70.3052 73.3498 70.1223 73.0804 69.8776 72.875C68.7526 69.275 68.8576 67.85 70.8751 66.5C72.3751 65.3675 77.6251 62.8475 81.1576 66.065C81.4004 66.347 81.6895 66.5854 82.0126 66.77C82.9276 79.2275 83.5126 79.3925 80.0926 83.0075C79.0449 84.0698 77.6499 84.7194 76.1626 84.8375C75.9001 84.8375 75.8701 85.22 76.1626 85.25C76.5433 85.3023 76.9293 85.3023 77.3101 85.25C77.3101 87.7925 77.1976 87.5975 77.9251 87.8525C80.4076 89 80.1901 91.895 78.3751 93.7925ZM100.433 131.908C99.6448 132.345 98.8024 132.675 97.9276 132.89C97.8151 131.63 97.3576 127.64 97.0576 125.39C99.7876 125.33 102.533 125.218 105.15 125.053C104.055 127.783 102.398 130.948 100.433 131.908ZM105.39 107.158C103.74 107.113 103.74 105.073 105.39 105.028C107.04 104.983 107.04 107.15 105.39 107.195V107.158ZM98.7076 103.295C98.3574 103.504 98.0739 103.808 97.8901 104.173C97.6651 104.6 91.2226 122.128 90.9151 123.125C90.8991 123.179 90.8625 123.224 90.8133 123.251C90.7641 123.277 90.7063 123.283 90.6526 123.268C90.5988 123.252 90.5537 123.215 90.5269 123.166C90.5002 123.117 90.4941 123.059 90.5101 123.005C90.8926 121.588 96.4501 105.673 96.51 105.575C97.8375 102.26 98.3551 102.313 100.89 102.23C102.053 102.193 110.513 102.155 111.735 102.358C112.005 102.403 111.945 102.785 111.735 102.808C111.068 102.89 99.2326 103.07 98.7076 103.333V103.295ZM109.898 117.545C110.183 116.585 110.445 115.648 110.648 114.755C110.981 114.89 111.328 114.991 111.683 115.055C111.721 115.064 111.762 115.057 111.796 115.036C111.83 115.015 111.854 114.981 111.863 114.943C111.871 114.904 111.865 114.863 111.844 114.829C111.822 114.795 111.789 114.771 111.75 114.763C110.932 114.443 110.173 113.992 109.5 113.428C109.043 112.91 108.833 112.528 109.365 112.153C110.385 112.955 111.713 113.653 112.2 114.005C112.231 114.02 112.266 114.024 112.3 114.017C112.334 114.009 112.364 113.99 112.385 113.962C112.406 113.935 112.417 113.901 112.416 113.867C112.416 113.832 112.403 113.799 112.38 113.773C111.833 113.278 109.98 112.033 109.013 111.065C108.997 110.912 109.029 110.758 109.104 110.624C109.18 110.49 109.294 110.382 109.433 110.315C110.303 111.074 111.253 111.735 112.268 112.288C112.301 112.308 112.34 112.314 112.378 112.306C112.416 112.297 112.449 112.275 112.47 112.243C112.583 112.1 112.47 112.048 111.72 111.425C111.158 110.96 110.37 110.308 109.793 109.738C108.975 108.988 110.543 109.123 111.975 109.738C112.474 110.022 112.88 110.445 113.146 110.954C113.412 111.463 113.526 112.038 113.475 112.61C113.363 114.778 112.028 117.028 109.898 117.62V117.545ZM48.4351 9.53752C48.1339 9.58147 47.8267 9.52057 47.5651 9.36502C47.3923 8.92569 47.0997 8.54371 46.7204 8.26259C46.3412 7.98148 45.8906 7.81254 45.4201 7.77502C44.2726 7.85002 44.0476 9.47002 43.1701 9.59002C42.6451 9.66502 42.0001 9.12502 41.2501 8.00002C41.2408 7.981 41.2265 7.96496 41.2086 7.95374C41.1906 7.94251 41.1699 7.93656 41.1488 7.93656C41.1277 7.93656 41.107 7.94251 41.0891 7.95374C41.0712 7.96496 41.0568 7.981 41.0476 8.00002C40.9648 8.28155 40.9401 8.57694 40.9749 8.8683C41.0097 9.15966 41.1033 9.44091 41.2501 9.69502C41.1285 9.68942 41.0135 9.6386 40.9276 9.55252C40.6726 9.30502 40.5451 10.22 41.1601 10.85C40.9713 10.84 40.787 10.7888 40.6201 10.7C40.2451 10.4075 40.4026 11.9525 41.6326 12.6575C41.2847 12.6355 40.9447 12.5439 40.633 12.388C40.3212 12.2321 40.0439 12.0151 39.8176 11.75C39.8028 11.7296 39.7816 11.7147 39.7574 11.7077C39.7331 11.7007 39.7072 11.7021 39.6839 11.7116C39.6605 11.7212 39.641 11.7383 39.6285 11.7602C39.6161 11.7821 39.6113 11.8076 39.6151 11.8325C39.7483 12.9452 40.2626 13.9775 41.0706 14.754C41.8786 15.5305 42.9305 16.0035 44.0476 16.0925C46.5301 16.0925 48.0976 13.4225 47.5201 11.375C47.6665 11.329 47.8236 11.329 47.9701 11.375C47.9917 11.3913 48.0185 11.3992 48.0455 11.3972C48.0725 11.3953 48.098 11.3837 48.1171 11.3646C48.1363 11.3454 48.1479 11.32 48.1498 11.293C48.1517 11.266 48.1438 11.2392 48.1276 11.2175C48.0509 11.0952 47.9997 10.9586 47.977 10.8161C47.9544 10.6735 47.9607 10.5278 47.9958 10.3877C48.0308 10.2476 48.0937 10.1161 48.1808 10.0009C48.2679 9.88576 48.3773 9.78937 48.5026 9.71752C48.5145 9.70233 48.5223 9.68433 48.5252 9.66524C48.5282 9.64616 48.5262 9.62663 48.5194 9.60855C48.5126 9.59047 48.5013 9.57443 48.4865 9.56199C48.4718 9.54955 48.454 9.54113 48.4351 9.53752ZM46.1251 10.115C45.9765 10.0984 45.8393 10.0277 45.7397 9.91631C45.64 9.80493 45.585 9.66072 45.585 9.51127C45.585 9.36183 45.64 9.21762 45.7397 9.10624C45.8393 8.99485 45.9765 8.9241 46.1251 8.90752C46.2736 8.9241 46.4108 8.99485 46.5104 9.10624C46.6101 9.21762 46.6652 9.36183 46.6652 9.51127C46.6652 9.66072 46.6101 9.80493 46.5104 9.91631C46.4108 10.0277 46.2736 10.0984 46.1251 10.115ZM25.9276 84.8975C23.4839 84.7612 21.0327 84.8844 18.6151 85.265C18.5899 85.2687 18.5669 85.2813 18.5503 85.3006C18.5338 85.3199 18.5248 85.3446 18.5251 85.37C18.5189 86.6757 18.6956 87.9758 19.0501 89.2325C19.0573 89.2531 19.0703 89.2712 19.0876 89.2845C19.105 89.2979 19.1258 89.3058 19.1476 89.3075C21.3178 89.4799 23.5002 89.4196 25.6576 89.1275C26.0851 89.0675 26.3926 84.9275 25.9276 84.8975ZM23.9101 87.35C23.8604 87.5944 23.7398 87.8188 23.5633 87.995C23.3868 88.1712 23.1623 88.2914 22.9178 88.3405C22.6733 88.3897 22.4197 88.3656 22.1888 88.2714C21.9579 88.1771 21.76 88.0169 21.6198 87.8106C21.4795 87.6044 21.4032 87.3614 21.4005 87.112C21.3977 86.8626 21.4685 86.618 21.6041 86.4087C21.7398 86.1994 21.9341 86.0347 22.1628 85.9354C22.3916 85.836 22.6445 85.8063 22.8901 85.85C23.0565 85.8797 23.2153 85.9423 23.3571 86.0342C23.4989 86.1261 23.621 86.2454 23.716 86.3852C23.8111 86.5249 23.8772 86.6823 23.9105 86.848C23.9438 87.0137 23.9437 87.1844 23.9101 87.35ZM24.3451 84.035C24.476 84.0592 24.6105 84.0573 24.7408 84.0294C24.871 84.0016 24.9945 83.9484 25.1042 83.8728C25.2139 83.7972 25.3076 83.7008 25.3801 83.589C25.4525 83.4772 25.5022 83.3523 25.5263 83.2213C25.5504 83.0903 25.5485 82.9558 25.5207 82.8256C25.4929 82.6953 25.4396 82.5718 25.3641 82.4621C25.2885 82.3524 25.1921 82.2587 25.0803 82.1863C24.9685 82.1139 24.8436 82.0642 24.7126 82.04C24.448 81.9913 24.1749 82.0497 23.9534 82.2023C23.7319 82.3549 23.58 82.5892 23.5313 82.8538C23.4826 83.1183 23.5409 83.3914 23.6935 83.6129C23.8461 83.8345 24.0805 83.9863 24.3451 84.035Z" fill="white"/>
<path d="M28.3053 81.5601C24.5553 76.1301 16.0203 78.0501 14.9853 84.4326C14.7758 85.5016 14.8093 86.6041 15.0833 87.6584C15.3574 88.7128 15.8649 89.692 16.5685 90.5237C17.272 91.3555 18.1535 92.0184 19.1478 92.4635C20.1421 92.9085 21.2238 93.1244 22.3128 93.0951C28.5528 93.0951 31.5003 86.2101 28.3053 81.5601ZM26.7303 89.8101C26.7257 89.8315 26.7146 89.851 26.6985 89.8657C26.6824 89.8805 26.662 89.8899 26.6403 89.8926C23.8538 90.2663 21.0356 90.3442 18.2328 90.1251C18.2104 90.1219 18.1894 90.1125 18.1721 90.0979C18.1549 90.0833 18.1421 90.0641 18.1353 90.0426C17.3903 87.2824 17.2521 84.3937 17.7303 81.5751C17.7337 81.5511 17.7452 81.5291 17.763 81.5127C17.7808 81.4963 17.8036 81.4866 17.8278 81.4851C20.845 81.1387 23.8937 81.1714 26.9028 81.5826C26.9251 81.5867 26.9457 81.5976 26.9617 81.6136C26.9778 81.6297 26.9886 81.6502 26.9928 81.6726C27.4626 84.377 27.3732 87.149 26.7303 89.8176V89.8101Z" fill="white"/>
</svg>
