<svg width="339" height="339" viewBox="0 0 339 339" fill="none" xmlns="http://www.w3.org/2000/svg">
<path fill-rule="evenodd" clip-rule="evenodd" d="M97.3944 78.9536V80.157C97.3944 80.4942 97.5283 80.8175 97.7667 81.0559C98.0051 81.2944 98.3285 81.4283 98.6656 81.4283C99.0028 81.4283 99.3261 81.2944 99.5645 81.0559C99.8029 80.8175 99.9369 80.4942 99.9369 80.157V78.8858C99.9195 78.5515 99.7744 78.2367 99.5314 78.0064C99.2885 77.7761 98.9664 77.648 98.6317 77.6484C98.4641 77.6506 98.2986 77.6863 98.1449 77.7535C97.9913 77.8207 97.8528 77.918 97.7374 78.0397C97.622 78.1613 97.5323 78.3049 97.4733 78.4619C97.4144 78.6189 97.3876 78.7861 97.3944 78.9536ZM96.9028 75.411C98.7673 74.9703 100.293 73.716 97.5808 73.8855C96.9091 73.9792 96.2459 74.1266 95.5977 74.3262C93.0552 75.3771 95.2587 75.8009 96.9028 75.411ZM252.419 87.2082C251.638 88.847 250.331 90.1776 248.707 90.9881C248.644 91.0105 248.591 91.0542 248.556 91.1116C248.522 91.169 248.509 91.2366 248.519 91.3027C248.529 91.3688 248.562 91.4294 248.611 91.4741C248.661 91.5187 248.725 91.5447 248.792 91.5474C249.34 91.644 249.904 91.604 250.434 91.4308C250.963 91.2575 251.442 90.9565 251.827 90.5544C252.213 90.1522 252.493 89.6612 252.644 89.1249C252.794 88.5886 252.81 88.0234 252.69 87.4794C252.69 87.4075 252.662 87.3385 252.611 87.2877C252.56 87.2368 252.491 87.2082 252.419 87.2082ZM245.673 73.7669C245.347 73.6835 245.002 73.7307 244.71 73.8986C244.419 74.0665 244.205 74.3416 244.114 74.6652C243.96 75.217 243.931 75.7959 244.029 76.3602C244.029 76.6974 244.163 77.0207 244.401 77.2591C244.64 77.4976 244.963 77.6315 245.3 77.6315C245.637 77.6315 245.961 77.4976 246.199 77.2591C246.437 77.0207 246.571 76.6974 246.571 76.3602C246.571 75.1398 246.843 74.0889 245.673 73.7669ZM187.382 240.301C186.009 239.606 159.753 241.318 159.092 244.267C158.957 244.911 159.381 247.386 160.126 247.793C161.601 248.572 186.856 247.148 188.246 244.403C188.642 243.735 188.772 242.943 188.612 242.183C188.452 241.424 188.013 240.752 187.382 240.301ZM160.448 247.081C159.926 246.259 159.644 245.308 159.635 244.335C159.974 242.809 173.958 241.979 175.5 241.877C175.463 243.247 175.816 244.598 176.517 245.775C174.585 246.081 161.364 247.572 160.448 247.132V247.081ZM187.009 243.691C185.67 244.64 178.873 245.504 177.246 245.708C177.388 244.366 177.104 243.013 176.432 241.843C178.449 241.707 184.907 241.352 186.823 241.521C187.331 241.894 187.348 243.047 187.009 243.725V243.691ZM142.837 244.318C142.792 244.289 142.739 244.274 142.685 244.274C142.631 244.274 142.578 244.289 142.532 244.318C142.532 244.148 110.158 262.386 109.175 264.319C109.131 264.412 109.108 264.513 109.108 264.615C109.108 264.718 109.131 264.819 109.175 264.912C110.209 267.878 143.99 298.422 145.397 299.117C145.804 299.321 146.312 298.965 147.905 298.117C151.295 296.303 180.229 280.845 183.212 278.353C184.043 277.506 184.551 269.878 184.094 269.014C183.636 268.15 142.837 244.487 142.837 244.318ZM145.77 297.71C142.159 294.846 113.565 269.082 110.395 264.709C113.344 261.929 141.871 245.403 142.736 244.894C147.109 247.555 178.585 266.709 182.619 269.421C180.487 270.037 178.459 270.968 176.602 272.184C175.636 273.116 178.042 274.845 181.382 278.082C176.28 281.37 150.973 294.93 145.77 297.71ZM182.348 277.116C182.178 276.947 178.093 272.963 177.907 272.811C179.554 271.783 181.251 270.838 182.992 269.98C182.997 272.375 182.77 274.765 182.314 277.116H182.348Z" fill="white"/>
<path fill-rule="evenodd" clip-rule="evenodd" d="M168.262 273.997C167.076 274.506 152.6 279.303 148.515 280.964C147.315 281.562 146.007 281.914 144.668 281.998C144.431 281.998 145.803 279.353 156.194 271.251C157.279 270.404 159.363 268.794 159.584 267.472C160.584 263.098 148.736 269.641 138.142 273.777C137.047 274.365 135.851 274.745 134.616 274.896C134.498 274.201 136.888 272.014 137.04 271.845C143.363 264.861 151.38 261.98 150.838 259.403C150.007 255.369 135.294 263.217 132.193 264.488C129.582 265.59 125.413 266.912 125.667 266.912C125.108 267.133 125.667 267.522 125.769 267.472C125.87 267.421 131.243 265.777 132.549 265.2C134.498 264.454 147.532 258.166 149.702 259.641C150.566 260.251 141.346 265.217 136.142 270.963C135.227 271.946 132.752 273.946 133.515 275.574C133.655 275.825 133.867 276.029 134.123 276.159C134.38 276.289 134.67 276.339 134.955 276.302C137.481 276.302 154.702 267.675 158.245 267.404C157.432 268.477 156.46 269.42 155.363 270.2C152.838 272.201 145.515 278.167 143.82 280.913C142.939 282.337 143.668 283.184 144.82 283.201C146.346 283.201 148.21 282.167 152.804 280.438C168.381 274.438 168.872 274.709 168.618 274.15C168.605 274.116 168.585 274.086 168.56 274.06C168.535 274.034 168.505 274.013 168.472 273.999C168.439 273.985 168.403 273.977 168.367 273.977C168.331 273.977 168.296 273.984 168.262 273.997Z" fill="white"/>
<path fill-rule="evenodd" clip-rule="evenodd" d="M330.525 209.367C330.305 191.637 328.711 155.449 325.203 137.905C323.355 128.6 319.355 115.87 311.914 109.718C308.761 107.124 304.117 104.633 295.693 99.9714C295.794 99.751 282.387 94.327 281.76 96.1237C281.239 93.0323 280.509 89.9799 279.573 86.9877C280.828 86.5809 280.268 82.9197 280.794 80.8518C281.319 78.7839 283.302 77.3092 284.319 75.6142C286.608 71.8344 286.997 65.2408 286.574 60.8508C286.167 56.7658 280.2 47.6467 276.268 46.1551C272.336 44.6635 268.302 44.7144 264.149 43.8838C260.759 43.1889 258.25 41.3074 254.453 40.8328C250.657 40.3582 248.385 42.5278 245.131 42.5278C241.877 42.5278 238.215 40.0023 234.808 39.7989C232.957 39.7702 231.159 40.4141 229.747 41.6112C228.335 42.8082 227.405 44.477 227.13 46.3077C226.719 49.0364 227.042 51.8254 228.067 54.3875C229.092 56.9496 230.781 59.1923 232.961 60.8847C235.615 62.5636 238.597 63.6558 241.707 64.0882C241.504 72.7497 242.419 70.4275 241.402 71.1903C240.385 71.953 240.707 77.2923 241.063 78.7669C241.215 79.3602 241.368 79.5805 242.097 79.8178C241.69 81.5128 238.826 85.174 241.402 86.0724C241.741 86.191 243.097 86.4283 243.233 86.4792C243.58 88.0866 244.091 89.6542 244.758 91.1574C245.415 92.6687 246.376 94.029 247.58 95.1544C248.784 96.2797 250.206 97.1462 251.758 97.7001C254.199 98.6493 256.131 98.9035 257.555 99.3951C257.751 100.096 257.854 100.82 257.86 101.548C251.807 103.139 246.105 105.846 241.046 109.531C231.876 116.972 218.841 147.838 215.435 151.228C214.112 152.533 182.975 158.568 178.382 161.686C177.483 162.297 177.45 162.822 177.568 163.907C176.45 164.11 171.737 164.992 171.212 165.992C171.057 166.718 171.098 167.473 171.331 168.178C167.136 167.395 162.905 166.829 158.652 166.483C157.874 166.501 157.108 166.683 156.404 167.016C155.701 167.348 155.075 167.825 154.567 168.415C153.143 170.111 154.296 169.822 152.787 169.585C149.584 169.127 138.109 172.975 136.668 173.653C136.668 173.043 136.668 172.619 136.024 172.28C134.132 171.732 132.155 171.537 130.193 171.704C129.006 172.5 133.583 172.229 135.481 173.212C135.481 174.518 135.651 187.908 135.481 190.535C135.481 191.01 135.481 190.942 135.125 190.993C133.43 191.23 130.99 190.993 130.244 191.535C130.515 185.637 130.244 171.195 129.43 170.348C128.939 169.839 119.887 168.755 110.039 167.568C110.074 160.443 109.678 153.322 108.853 146.245C107.039 130.515 103.242 111.972 91.3775 102.565C92.065 102.846 92.8217 102.911 93.5471 102.751C94.5158 102.367 95.5584 102.205 96.5981 102.277C98.2931 102.734 98.5134 103.972 102.751 101.124C103.022 100.938 103.734 100.988 104.293 100.429C106.209 98.5137 105.243 95.9203 105.243 93.988C105.523 92.6744 105.615 91.3274 105.514 89.9878C105.462 89.7882 105.364 89.6032 105.229 89.4473C105.094 89.2915 104.924 89.169 104.734 89.0895C104.734 88.5302 105.327 87.5301 104.48 86.4453C105.7 85.8012 107.022 85.0554 106.344 83.7333C105.049 81.6618 103.981 79.4569 103.158 77.1567C102.632 75.1905 103.344 72.6819 103.31 70.5631C103.31 69.1054 103.463 67.3596 103.31 65.7663C104.618 64.8535 105.617 63.5648 106.175 62.0712C106.298 61.4674 106.272 60.8426 106.098 60.2515C105.923 59.6604 105.606 59.1212 105.175 58.6812C104.615 58.3252 104.497 58.6812 104.514 57.6303C104.575 57.2615 104.558 56.884 104.465 56.522C104.372 56.16 104.203 55.8216 103.971 55.5285C103.259 54.8335 101.632 54.0708 101.124 53.3589C100.259 52.0876 99.7508 50.8164 98.1236 50.3079C96.971 49.935 95.8862 50.6638 95.1065 50.4096C94.0386 50.0706 92.9369 48.918 91.7165 50.1384C91.444 50.2861 91.145 50.3787 90.8367 50.4106C90.5284 50.4426 90.2168 50.4135 89.9198 50.3248C88.9028 49.4604 88.6485 47.9688 86.9196 47.6467C85.9365 47.4772 84.0042 47.9518 83.2584 47.6467C82.0366 46.7474 80.6887 46.0335 79.2582 45.528C77.659 45.3757 76.0455 45.5135 74.4953 45.9348C73.4105 46.1551 72.0206 46.0365 70.8849 46.206C68.5289 46.5789 67.8509 48.6129 66.2915 49.596C64.7321 50.5791 62.1048 50.596 60.6132 52.7995C59.3589 54.664 59.6301 56.6811 59.1386 58.5456C58.9352 59.3422 57.8504 60.2406 57.4436 61.0542C56.4944 62.9356 57.2232 64.834 57.2063 66.4612C57.1893 68.0884 56.0537 69.58 56.3757 71.5462C56.6374 72.5282 57.0675 73.4573 57.647 74.2921C57.654 74.5669 57.6197 74.8412 57.5453 75.1058C57.0282 76.4396 56.9219 77.8977 57.2402 79.2924C57.5176 80.6295 58.1634 81.8625 59.1047 82.8519C60.2912 83.8858 60.9014 83.6146 61.7658 85.0893C62.1294 85.8691 62.676 86.5494 63.3591 87.0724C64.6134 87.9199 66.1559 87.1911 66.9017 87.564C67.3657 87.809 67.8717 87.9643 68.3933 88.0216C67.976 88.2325 67.6156 88.5406 67.3424 88.92C58.1216 90.0895 45.9515 96.8187 38.5274 106.023C35.595 109.802 30.6626 115.26 28.815 119.633C18.8823 142.075 23.73 177.263 19.7298 188.128L9.83104 213.943C9.35644 215.181 8.13604 221.333 8.57674 223.452C9.28864 226.605 12.5939 222.655 14.6109 220.418C13.3566 224.876 13.3736 226.046 12.7125 243.589C12.5091 249.081 12.3227 255.064 12.2379 260.098C12.2331 260.134 12.236 260.171 12.2466 260.206C12.2572 260.241 12.2752 260.273 12.2993 260.3C12.3234 260.327 12.3531 260.349 12.3864 260.364C12.4197 260.379 12.4557 260.387 12.4922 260.386C12.9668 260.386 12.6617 260.929 13.3566 246.928C13.8482 237.08 14.4075 227.893 14.4584 227.147C14.7093 224.25 15.3478 221.4 16.3568 218.672C21.0904 215.136 26.4171 212.472 32.0864 210.807C38.396 209.119 45.0589 209.29 51.2738 211.299C52.9688 211.858 57.5283 212.994 59.1555 212.231C62.5455 210.536 71.2748 204.926 72.7155 201.519C73.4274 199.824 74.0037 198.451 74.5631 197.18C77.1564 197.417 80.343 198.078 83.1737 198.112C86.3433 198.112 88.3773 197.603 91.886 194.502C104.785 194.79 119.006 194.4 125.786 194.146C130.312 195.841 144.211 200.807 147.584 204.146C148.906 205.434 149.685 209.028 150.16 213.028C150.785 217.809 150.95 222.64 150.652 227.452C141.363 229.232 129.532 232.046 120.379 234.317C119.866 234.174 119.331 234.134 118.803 234.198C116.379 234.453 117.514 235.436 116.718 232.978C116.756 232.987 116.796 232.986 116.834 232.976C116.871 232.966 116.906 232.947 116.935 232.92C116.963 232.893 116.985 232.859 116.997 232.822C117.009 232.785 117.013 232.745 117.006 232.707C116.981 229.449 116.6 226.204 115.87 223.028C115.752 222.554 114.921 222.317 114.413 222.164C108.921 220.571 87.7163 218.435 83.055 219.638C80.021 220.435 59.0199 231.283 58.0707 233.588C57.1215 235.893 54.5451 249.759 54.0705 252.318C43.0869 255.522 34.4255 258.166 30.188 259.607C30.1529 259.618 30.1204 259.636 30.0927 259.661C30.0649 259.685 30.0424 259.715 30.0265 259.748C30.0107 259.781 30.0018 259.817 30.0004 259.854C29.999 259.891 30.0052 259.928 30.0185 259.962C30.2219 260.59 35.7815 257.708 92.7335 242.741C93.3058 244.202 94.0392 245.595 94.92 246.894C93.225 247.301 91.3097 248.047 90.7503 249.606C90.6509 249.935 90.6344 250.284 90.7025 250.621C90.7705 250.958 90.9209 251.273 91.1402 251.538C92.5307 253.095 94.3845 254.165 96.4286 254.589C100.013 255.488 103.737 255.683 107.395 255.166C110.908 254.859 114.37 254.119 117.701 252.962C121.328 251.437 121.091 249.165 119.701 248.131C118.269 247.289 116.695 246.715 115.057 246.436C116.599 243.64 115.158 244.877 117.464 244.318C118.768 244.006 119.96 243.337 120.904 242.385C122.396 240.86 123.396 237.097 121.972 235.283C129.125 233.588 157.889 226.469 164.924 226.995C177.687 227.927 270.488 266.081 292.455 273.438C292.49 273.449 292.526 273.453 292.562 273.45C292.598 273.447 292.634 273.437 292.666 273.421C292.698 273.404 292.727 273.381 292.75 273.354C292.774 273.326 292.792 273.294 292.803 273.26C292.814 273.225 292.818 273.189 292.815 273.153C292.812 273.117 292.802 273.081 292.786 273.049C292.769 273.017 292.747 272.988 292.719 272.965C292.691 272.941 292.659 272.923 292.625 272.912C286.879 270.912 274.065 265.81 258.725 259.674C259.471 257.878 261.437 252.081 262.962 250.081C263.589 249.267 263.556 249.199 269.149 249.521C283.811 250.369 296.727 249.979 310.795 245.487C319.389 242.724 323.609 236.351 326.05 227.825C326.542 227.978 327.881 228.419 328.355 228.52C328.491 228.553 328.632 228.553 328.768 228.521C328.903 228.488 329.029 228.424 329.135 228.334C330.813 226.622 330.525 212.706 330.525 209.367ZM98.6829 92.8185C98.2242 92.9856 97.729 93.0266 97.249 92.9372C96.769 92.8477 96.3218 92.6311 95.954 92.31C95.5881 92.0172 95.3017 91.6371 95.121 91.2047C94.9404 90.7723 94.8712 90.3014 94.92 89.8353C94.8976 89.7656 94.9037 89.6899 94.9371 89.6247C94.9704 89.5595 95.0283 89.5103 95.098 89.4878C95.1677 89.4653 95.2434 89.4715 95.3086 89.5048C95.3738 89.5382 95.423 89.5961 95.4455 89.6658C96.2824 90.8695 97.4643 91.7914 98.8355 92.31C98.8791 92.3461 98.9112 92.3943 98.9276 92.4485C98.944 92.5027 98.9441 92.5606 98.9278 92.6148C98.9115 92.6691 98.8796 92.7174 98.8361 92.7536C98.7925 92.7898 98.7393 92.8124 98.6829 92.8185ZM82.7669 77.9703C82.8248 77.4723 83.0249 77.0016 83.3432 76.6143C83.7161 76.2414 84.8517 76.4787 85.6484 75.9363C86.2442 75.4654 86.6963 74.8372 86.9535 74.1226C87.9027 72.2412 89.4113 73.6989 91.5131 70.597C92.0496 69.7248 92.4658 68.784 92.7504 67.8003C93.9369 67.2409 95.4794 68.0545 96.971 65.5968C97.4625 64.7662 97.7846 63.9018 98.666 63.6645C99.327 64.3764 99.9881 67.0545 102.666 66.0205C102.666 66.9358 102.463 71.5632 102.412 71.9361C102.192 73.0532 102.073 74.1877 102.056 75.3261C102.056 78.7161 103.615 80.5806 105.344 84.1231C105.615 84.6825 104.192 85.2249 103.48 85.6147C102.475 85.2448 101.436 84.9779 100.378 84.8181C97.0896 84.0215 94.4624 85.7334 91.6317 86.5131C91.1519 86.5161 90.6736 86.4591 90.2079 86.3436C89.1401 86.2419 88.0214 87.3267 86.5128 87.5301C86.1195 87.6073 85.7121 87.5645 85.3433 87.4074C84.9746 87.2502 84.6616 86.9859 84.4449 86.6487C84.2622 86.0279 84.1317 85.3929 84.0551 84.7503C83.9025 84.1401 83.7161 83.5299 83.5805 82.9366C83.3093 81.7162 84.1059 81.2416 83.1737 79.5466C82.5296 78.394 82.5465 78.9025 82.7669 77.9703ZM83.411 112.548C84.5523 110.382 85.4832 108.112 86.1908 105.768C87.14 111.667 87.6485 114.65 87.8858 116.142C86.6484 115.108 86.5298 114.718 83.411 112.48V112.548ZM88.496 119.447C89.3265 124.532 89.1401 123.379 89.2926 124.43C88.8877 123.667 88.3926 122.956 87.818 122.312C88.0077 121.192 88.0928 120.057 88.0722 118.922L88.496 119.447ZM82.3601 122.498C81.3479 121.446 80.4238 120.312 79.5972 119.108C80.4353 117.148 81.3803 115.235 82.4279 113.379C85.9874 116.108 85.7162 116.074 86.5976 117.176C86.727 118.619 86.727 120.071 86.5976 121.515L82.3601 122.498ZM82.5804 123.6C84.5975 128.091 85.4111 135.465 85.8348 140.38C83.7189 134.189 80.8739 128.271 77.3598 122.752C78.0471 121.813 78.6591 120.821 79.1904 119.786C79.8886 121.086 80.7239 122.308 81.6821 123.43C81.8045 123.507 81.9424 123.556 82.086 123.574C82.2296 123.591 82.3752 123.577 82.5126 123.532L82.5804 123.6ZM72.5121 87.3267C72.6501 87.3695 72.7921 87.398 72.9359 87.4114C73.3306 87.3937 73.7089 87.2487 74.0144 86.9982C74.3199 86.7477 74.5362 86.4051 74.6309 86.0215C74.9021 85.852 75.1055 85.6656 75.0885 85.3435C75.0716 85.0215 71.4273 80.0382 76.0716 77.4787C76.4812 77.4343 76.8929 77.5406 77.2298 77.7777C77.5667 78.0148 77.8058 78.3664 77.9022 78.7669C78.1215 79.6711 78.5847 80.4977 79.2413 81.1569C79.2926 82.2403 79.4344 83.3176 79.665 84.3774C79.8006 85.0045 79.326 85.8181 79.2243 86.6826C78.987 88.3776 80.6312 90.2421 81.2244 91.7676C82.0211 93.8185 81.4787 96.022 83.3771 97.8357C85.2755 99.6493 84.9195 98.1577 85.5806 102.226C84.7898 105.423 83.7002 108.538 82.3262 111.531C80.4108 108.819 70.7154 92.988 68.7662 89.3776C69.495 88.9369 71.7663 87.6487 72.4443 87.2589L72.5121 87.3267ZM67.4271 89.581C68.6645 92.4625 80.9871 111.989 80.9871 112.158C80.3939 114.04 76.9869 121.837 75.3767 122.684C71.8341 120.159 62.1218 93.5982 61.4268 91.1913C63.3391 90.3721 65.3508 89.8079 67.4102 89.5132L67.4271 89.581ZM84.9195 164.415C83.055 163.822 77.0378 143.397 71.6646 132.092C68.4441 125.312 62.1218 114.108 55.2231 111.124C47.7651 107.921 33.9 115.599 32.4254 125.566C31.525 132.139 32.0569 138.829 33.9848 145.177C41.9852 169.365 52.8162 188.654 75.953 194.18C76.4954 193.095 74.58 193.993 89.8011 194.4C89.0551 194.98 88.2613 195.496 87.4281 195.942C84.5805 197.485 79.1735 196.247 75.1733 195.807L75.6818 194.705C51.8501 189.383 40.697 169.28 32.7135 145.55C30.6973 139.011 30.1191 132.112 31.0185 125.329C32.544 114.548 46.9007 106.819 54.8502 109.497C56.8772 110.252 58.7328 111.405 60.3081 112.887C59.5522 106.095 59.3651 99.2519 59.7488 92.4286C60.0603 92.152 60.3948 91.9025 60.7488 91.6828C62.2065 96.7678 70.512 121.074 74.7326 123.769C75.0002 123.927 75.3137 123.99 75.6216 123.947C75.9295 123.904 76.2137 123.758 76.4276 123.532C80.2413 130.092 83.8008 136.804 85.2246 143.872C86.0301 147.773 86.2359 151.774 85.8348 155.737C83.4279 145.77 76.7666 131.363 69.1899 124.464C76.9361 137.838 82.5804 159.229 85.106 163.449C86.1163 163.728 87.1482 163.92 88.1909 164.025C87.7502 153.855 87.4112 132.651 83.1059 123.447C83.6313 123.447 87.3434 122.65 87.3434 122.65C88.0128 123.454 88.582 124.337 89.0384 125.278C89.7333 126.617 89.496 125.6 90.5469 132.719C95.6319 165.585 95.3438 165.415 96.0048 165.771C92.6826 165.348 86.8349 164.992 84.9195 164.415ZM96.1743 157.635C89.5638 120.108 89.496 119.057 86.7162 103.395C86.9366 102.649 87.1061 102.039 87.2247 101.599C88.2756 102.938 94.0047 110.277 94.6319 111.887C93.6996 112.718 90.3435 114.142 91.3605 115.277C91.8182 115.803 95.598 119.074 96.7845 120.261C97.4286 122.989 96.4116 152.889 96.1743 157.635ZM54.7485 252.098C55.2231 249.945 58.325 235.944 59.1894 233.978C59.8166 232.52 80.2583 221.672 83.4788 220.859C88.1231 219.638 113.412 222.147 115.175 223.283C115.971 226.239 116.437 229.275 116.565 232.334C113.718 228.944 91.6826 229.842 91.4453 234.622C91.4406 234.779 91.4735 234.935 91.5414 235.076C91.6092 235.218 91.7099 235.341 91.8351 235.436C91.824 237.485 92.0573 239.527 92.5301 241.521C79.5125 245.03 66.4949 248.691 54.7485 252.098ZM119.379 249.453C120.243 252.25 110.09 253.454 107.158 253.793C103.676 254.289 100.131 254.11 96.7167 253.267C95.2251 252.86 92.4623 251.776 91.9368 250.42C91.6826 249.776 92.5131 249.165 93.1233 248.843C93.8964 248.439 94.7162 248.132 95.5641 247.928C96.4875 249.2 97.7258 250.211 99.1575 250.86C100.853 251.606 108.09 251.081 110.599 250.538C111.701 250.301 112.87 249.979 114.531 247.318C115.548 247.47 119.091 248.521 119.379 249.453ZM111.277 248.86C110.006 249.623 101.022 250.233 99.6491 249.674C95.1065 247.86 92.6318 240.775 92.4453 235.775C96.1381 236.587 99.9281 236.867 103.7 236.605C106.531 236.232 113.226 235.08 115.684 233.843C117.158 239.402 114.04 247.25 111.277 248.86ZM120.752 240.114C120.293 241.022 119.648 241.823 118.86 242.465C118.072 243.107 117.157 243.577 116.175 243.843C117.062 241.465 117.482 238.939 117.413 236.402C117.546 236.122 117.741 235.875 117.981 235.678C118.222 235.482 118.503 235.342 118.805 235.267C119.106 235.193 119.421 235.186 119.725 235.247C120.029 235.309 120.316 235.437 120.565 235.622C121.837 236.453 121.277 238.673 120.752 240.114ZM295.337 100.463C306.795 106.785 311.88 109.429 315.541 114.972C313.238 112.992 310.307 111.893 307.27 111.87C296.405 111.497 291.065 127.583 288.286 137.99C283.675 155.347 286.506 177.314 286.252 180.535C283.319 183.264 268.302 191.061 261.589 194.705C262.522 190.773 265.844 175.602 268.013 169.619C270.929 161.585 279.319 142.872 279.878 138.804C280.031 137.6 279.794 137.448 276.234 135.143C277.607 135.143 281.319 134.77 282.472 134.549C282.963 134.549 283.218 134.329 283.404 133.295C284.031 129.702 285.252 100.09 285.353 96.9373C285.235 96.8695 293.879 99.6324 295.388 100.463H295.337ZM282.268 96.4119C283.04 96.3563 283.816 96.4424 284.557 96.6661C283.709 108.955 282.862 130.566 282.065 133.329C281.167 133.499 277.98 133.719 276.743 133.804C274.098 133.956 274.031 133.804 273.759 134.176C273.488 134.549 273.861 135.058 274.353 135.397C275.217 136.007 278.099 137.821 278.505 138.295C278.114 140.313 277.512 142.285 276.709 144.177C267.132 169.602 267.708 161.788 261.267 189.671C261.698 176.314 262.932 162.996 264.962 149.787C266.318 142.516 267.963 135.685 273.437 120.125C275.59 114.108 280.048 102.582 280.217 102.649C281.068 100.624 281.77 98.5391 282.319 96.4119H282.268ZM252.826 200.434C253.148 201.688 253.148 201.519 253.047 201.536L252.521 201.434C252.521 201.265 251.606 184.247 252.047 177.213C252.843 164.754 253.86 151.245 254.809 138.228C255.267 131.922 256.996 118.379 256.945 118.888L258.64 117.633C259.343 119.037 260.142 120.39 261.03 121.684C261.369 122.142 261.827 122.718 262.369 122.769C261.996 125.837 256.352 163.686 254.691 187.874C253.775 201.044 254.691 198.247 253.352 199.451C253.193 199.558 253.065 199.706 252.982 199.878C252.898 200.051 252.862 200.243 252.877 200.434H252.826ZM262.895 122.786C264.183 122.786 265.573 120.074 267.268 118.922C267.929 119.616 269.929 122.939 271.251 123.379C265.64 138.77 259.64 160.229 259.657 195.654C258.216 196.434 256.267 197.553 254.826 198.383C255.674 183.959 261.81 136.617 262.945 122.786H262.895ZM280.692 100.005C280.15 101.7 272.098 121.142 271.539 122.04C270.665 121.183 269.886 120.234 269.217 119.21C267.793 117.294 267.302 116.667 264.878 119.396C268.471 112.616 275.488 105.734 278.438 102.31C281.251 99.09 280.878 99.3612 280.692 100.005ZM242.724 64.4103C243.989 64.7998 245.341 64.7998 246.606 64.4103C247.573 63.9803 248.641 63.8277 249.69 63.9696C251.172 64.6524 252.695 65.2412 254.25 65.7324C256.174 65.7155 258.094 65.5625 259.996 65.2747C260.868 65.682 261.606 66.3282 262.125 67.1383C262.644 67.9484 262.923 68.8891 262.928 69.8512C259.769 70.31 256.72 71.338 253.928 72.8853C253.757 72.3288 253.417 71.8391 252.955 71.4839C252.494 71.1287 251.933 70.9255 251.352 70.9021C248.572 70.5677 245.765 70.5336 242.978 70.8004C242.731 68.6346 242.646 66.4532 242.724 64.2747V64.4103ZM242.063 78.8686C241.639 78.1228 240.809 72.3429 241.656 71.7157C241.792 71.8853 241.199 71.3598 244.419 71.3937C246.689 71.4653 248.953 71.6691 251.199 72.0039C252.725 72.2751 252.979 72.97 252.894 74.4447C252.894 77.1736 252.979 76.9024 252.894 77.7499C252.894 77.9872 252.792 78.6144 252.606 78.75C249.119 79.381 245.547 79.3752 242.063 78.733V78.8686ZM257.64 97.9713C252.996 96.6492 248.741 96.4797 245.877 90.5811C244.029 86.7843 245.046 85.6825 243.368 85.191C242.746 85.1168 242.133 84.9805 241.538 84.7842C241.538 83.6485 242.961 81.2756 243.233 80.0721C246.048 80.4086 248.893 80.4086 251.708 80.0721C253.403 79.8178 254.301 79.5297 254.03 76.0888V73.4616C256.691 72.648 262.335 71.3089 263.013 71.1225C263.017 72.0446 263.143 72.9621 263.386 73.8514C263.651 74.4107 264.108 74.8559 264.674 75.1058C264.765 75.146 264.863 75.1648 264.962 75.1607C265.061 75.1566 265.158 75.1298 265.245 75.0822C265.332 75.0346 265.407 74.9677 265.464 74.8865C265.52 74.8053 265.558 74.7121 265.573 74.6142C265.962 73.0378 266.268 71.631 266.386 70.953C266.386 71.3259 266.539 69.7665 267.657 69.1563C269.352 68.2749 271.98 70.2411 272.166 73.0209C272.268 74.3769 270.912 76.8346 269.895 79.6653C269.285 81.3603 272.98 82.0891 274.268 82.7163C274.743 83.818 274.454 85.0554 275.099 85.7164C276.065 86.3123 277.125 86.742 278.234 86.9877C279.404 90.7343 280.254 94.573 280.777 98.4628C276.471 102.988 275.505 104.073 274.353 105.243C269.85 109.521 266.031 114.466 263.03 119.905C261.827 112.836 259.538 106.599 259.284 104.548C259.081 102.955 259.42 100.141 258.674 98.6323C258.561 98.4528 258.41 98.3005 258.231 98.1862C258.052 98.072 257.85 97.9986 257.64 97.9713ZM258.132 103.717C258.945 106.734 261.115 116.532 261.742 120.464C260.708 118.905 259.437 116.328 259.437 116.328C259.393 116.236 259.328 116.155 259.249 116.092C259.169 116.028 259.076 115.983 258.977 115.96C258.878 115.937 258.774 115.937 258.675 115.96C258.576 115.983 258.482 116.027 258.403 116.091L257.165 117.04C257.64 112.633 258.115 108.141 258.182 103.717H258.132ZM257.64 102.209C257.487 114.684 254.996 125.803 253.979 138.228C250.589 179.992 250.589 177.941 250.928 192.722C249.097 179.365 246.538 153.381 245.131 139.295C246.131 138.533 250.962 134.854 251.504 133.736C251.758 133.193 251.504 132.634 250.284 132.634C248.162 132.794 246.032 132.794 243.911 132.634C245.199 127.38 252.572 108.209 254.538 103.124C255.538 102.836 256.369 102.548 257.64 102.209ZM178.839 162.958C181.467 160.195 214.434 153.754 216.231 152.008C218.757 149.465 225.706 133.685 232.791 121.718C238.809 111.548 242.08 107.785 253.792 103.463C250.979 110.43 245.487 124.057 243.012 131.99C242.86 132.481 242.639 133.024 243.012 133.346C243.944 134.261 247.843 133.719 250.08 133.753C248.504 135.329 244.165 138.533 244.165 138.533C244.081 138.594 244.015 138.677 243.974 138.772C243.932 138.867 243.916 138.972 243.927 139.075C244.639 146.94 249.012 193.874 250.911 200.688L247.86 199.909C245.888 198.94 243.746 198.365 241.554 198.214C245.419 178.992 244.029 173.619 244.504 163.144C244.504 162.059 239.927 140.262 239.893 140.092C239.893 140.02 239.865 139.951 239.814 139.9C239.763 139.849 239.694 139.821 239.622 139.821C239.55 139.821 239.481 139.849 239.43 139.9C239.38 139.951 239.351 140.02 239.351 140.092C239.639 147.516 241.741 154.584 243.182 162.686C237.758 167.771 232.079 174.806 222.842 177.094C217.13 178.535 190.382 184.365 186.823 184.62C183.908 181.365 178.382 165.127 178.839 162.958ZM175.619 165.212C175.619 165.212 177.653 164.72 177.619 164.398C179.202 170.354 181.195 176.193 183.585 181.874C182.045 182.35 180.469 182.707 178.873 182.942C177.907 182.942 178.585 183.789 176.229 178.196C174.777 174.718 173.532 171.158 172.5 167.534C172.212 166.365 171.72 166.483 175.619 165.212ZM155.771 168.788C157.11 167.314 158.076 167.093 171.466 168.788C172.657 172.83 174.101 176.793 175.788 180.653C173.033 182.802 169.874 184.375 166.5 185.281C166.398 184.552 166.161 184.772 166.737 184.823C167.224 184.837 167.708 184.741 168.152 184.543C168.597 184.345 168.992 184.05 169.308 183.679C169.623 183.308 169.851 182.871 169.976 182.4C170.1 181.929 170.117 181.437 170.025 180.959C169.89 179.264 165.042 175.738 163.669 174.772C164.484 174.939 165.33 174.875 166.11 174.585C166.18 174.563 166.238 174.514 166.271 174.448C166.304 174.383 166.31 174.308 166.288 174.238C166.266 174.168 166.216 174.11 166.151 174.077C166.086 174.044 166.01 174.037 165.941 174.06C163.093 174.806 160.211 171.416 159.839 171.314C158.533 170.992 159.347 174.026 156.449 175.84C156.025 176.111 154.398 175.501 154.296 174.67C154.083 173.642 154.104 172.579 154.36 171.56C154.615 170.542 155.097 169.594 155.771 168.788ZM136.82 174.128C138.99 173.348 150.041 169.924 153.228 170.738C152.869 172.092 152.789 173.504 152.991 174.89C153.098 175.331 153.3 175.743 153.581 176.098C153.862 176.453 154.217 176.744 154.621 176.95C155.025 177.156 155.468 177.272 155.921 177.291C156.374 177.31 156.826 177.231 157.245 177.06C158.426 176.272 159.314 175.116 159.771 173.772C161.279 174.687 168.771 179.653 168.669 181.416C168.669 182.603 168.042 183.603 166.856 183.501C165.854 183.142 164.907 182.646 164.042 182.026C163.172 181.331 162.254 180.697 161.296 180.128C161.144 180.049 160.968 180.029 160.802 180.072C160.636 180.115 160.491 180.218 160.397 180.361C160.302 180.504 160.263 180.677 160.289 180.847C160.314 181.017 160.401 181.171 160.533 181.281C160.533 181.281 161.805 182.23 163.212 183.145C165.33 184.84 166.059 186.399 163.432 187.196C163.021 187.318 162.589 187.354 162.163 187.302C161.737 187.249 161.327 187.109 160.957 186.891C160.525 186.038 159.952 185.264 159.262 184.603C158.954 183.811 158.402 183.138 157.686 182.68C156.97 182.223 156.127 182.006 155.279 182.06C154.398 182.162 154.33 182.603 154.415 182.196C154.821 180.179 152.245 178.958 150.448 179.297C147.55 179.874 145.94 183.704 144.99 186.501C144.414 187.722 146.685 186.366 136.77 189.891C137.049 184.968 137.049 180.034 136.77 175.111C136.685 173.941 136.651 174.212 136.82 174.128ZM145.465 186.688C146.397 184.688 148.448 180.942 150.635 180.603C151.482 180.45 153.194 181.026 153.008 181.891C152.641 184.186 151.582 186.315 149.974 187.993C150.177 188.332 144.872 188.433 145.465 186.688ZM155.059 183.45C155.465 183.043 157.838 183.874 157.906 185.145C158.025 187.264 156.008 189.789 154.262 190.959C153.703 191.349 151.499 189.552 150.991 188.823C152.201 186.927 153.562 185.13 155.059 183.45ZM157.923 189.094C158.042 188.925 159.737 185.162 160.025 188.281C160.144 189.501 158.33 190.145 157.143 189.976C157.419 189.697 157.68 189.402 157.923 189.094ZM195.62 211.13C188.484 216.672 187.467 223.961 188.637 232.656C177.178 228.588 168.432 225.876 165.025 225.588C160.414 225.683 155.825 226.251 151.33 227.283C151.787 222.723 151.584 206.723 148.346 203.434C145.109 200.146 133.363 195.654 128.939 193.959H129.939C130.329 193.756 129.684 191.976 131.159 191.874C132.939 191.773 135.431 192.451 136.244 191.739C136.487 191.37 136.627 190.943 136.651 190.501C138.515 189.908 142.905 188.569 145.126 187.993C145.872 188.585 146.746 188.996 147.679 189.193C148.611 189.39 149.577 189.368 150.499 189.128C151.008 190.264 153.381 192.756 154.855 191.942C155.264 191.706 155.655 191.44 156.025 191.145C157.097 191.443 158.235 191.395 159.279 191.01C159.831 190.859 160.324 190.543 160.691 190.103C161.058 189.664 161.281 189.122 161.33 188.552C162.218 188.807 163.164 188.766 164.026 188.436C164.888 188.106 165.62 187.504 166.11 186.722C169.826 185.886 173.304 184.217 176.28 181.84C176.602 182.535 176.907 183.128 177.161 183.535C177.246 183.678 177.364 183.798 177.506 183.884C177.648 183.969 177.809 184.018 177.975 184.026C179.67 184.196 183.67 182.331 183.84 182.331C184.42 183.543 185.143 184.681 185.992 185.721C186.297 186.027 186.806 185.942 187.281 185.891C192.196 185.298 216.604 180.043 223.13 178.416C231.605 176.297 237.131 170.348 242.944 164.687C242.622 174.416 243.894 179.162 240.046 198.264C232.045 199.259 224.118 200.777 216.316 202.807C209.485 204.756 201.349 206.689 195.62 211.146V211.13ZM220.35 244.572L219.757 244.335C219.621 235.724 221.757 227.791 228.062 221.91C228.62 222.052 229.186 222.159 229.757 222.232C223.265 227.791 220.706 235.893 220.35 244.572ZM247.114 216.316C242.029 219.299 243.521 220.91 238.859 221.401C235.125 221.658 231.373 221.366 227.723 220.537C224.774 219.588 226.333 218.452 229.418 218.113C229.944 218.198 234.08 218.232 236.029 218.113C236.188 218.087 236.333 218.006 236.438 217.883C236.542 217.761 236.6 217.605 236.6 217.443C236.6 217.282 236.542 217.126 236.438 217.003C236.333 216.881 236.188 216.799 236.029 216.774C233.83 216.585 231.621 216.551 229.418 216.672C228.015 216.652 226.618 216.487 225.249 216.181C225.112 215.958 225.033 215.706 225.018 215.445C225.003 215.185 225.053 214.925 225.164 214.689C226.944 213.621 235.334 214.028 236.724 213.977C236.887 213.951 237.036 213.868 237.144 213.742C237.251 213.616 237.31 213.456 237.31 213.291C237.31 213.125 237.251 212.965 237.144 212.839C237.036 212.713 236.887 212.63 236.724 212.604C233.943 212.663 231.161 212.516 228.401 212.163C227.215 211.96 224.452 211.367 224.655 210.163C225.028 207.994 229.486 209.858 232.622 209.638C234.834 209.605 237.024 209.192 239.097 208.417C239.252 208.37 239.382 208.263 239.458 208.12C239.534 207.977 239.551 207.81 239.504 207.655C239.456 207.5 239.349 207.37 239.206 207.293C239.063 207.217 238.896 207.201 238.741 207.248C236.62 207.758 234.468 208.131 232.3 208.367C232.162 208.338 232.04 208.26 231.956 208.148C231.871 208.036 231.831 207.896 231.842 207.756C231.866 207.44 231.947 207.13 232.079 206.841C232.953 205.701 234.127 204.827 235.469 204.316C240.283 202.316 243.944 204.316 249.453 204.672C250.144 207.806 251.022 210.896 252.08 213.926C250.391 214.602 248.754 215.4 247.182 216.316H247.114ZM253.589 214.248C252.996 212.248 250.792 204.994 250.572 203.299C251.447 202.871 252.368 202.547 253.318 202.332C254.097 205.231 255.538 210.265 256.47 213.079C255.561 213.534 254.621 213.924 253.657 214.248H253.589ZM258.386 214.248C257.487 212.214 254.826 202.739 254.216 200.366C257.132 197.976 283.302 185.111 287.201 181.196C288.421 179.975 284.302 157.008 289.133 138.109C291.71 127.939 296.761 111.955 307.185 112.311C314.338 112.548 318.423 118.006 320.745 124.82C324.999 137.363 323.304 154.771 323.304 154.601C323.304 168.822 318.219 190.196 308.049 200.366C300.371 208.062 263.166 215.113 258.454 214.299L258.386 214.248ZM328.271 227.13C326.288 226.605 317.185 223.249 313.338 222.927C293.354 221.232 294.591 217.435 282.234 212.011C289.014 210.316 304.083 206.383 309.083 201.434C319.643 190.959 324.525 169.365 324.474 154.754C324.866 149.637 324.866 144.497 324.474 139.38C328.22 160.635 330.525 220.689 328.271 227.13Z" fill="white"/>
<path fill-rule="evenodd" clip-rule="evenodd" d="M66.1895 112.548L60.6299 113.193C62.3248 114.786 63.8682 116.534 65.2403 118.413L66.7827 113.328C66.8298 113.237 66.85 113.134 66.8411 113.032C66.8322 112.93 66.7945 112.832 66.7324 112.751C66.6703 112.669 66.5864 112.607 66.4903 112.571C66.3942 112.535 66.2899 112.527 66.1895 112.548ZM226.977 267.234C225.579 266.349 224.035 265.718 222.418 265.37C226.265 259.115 225.57 251.81 224.553 251.165C223.596 250.19 222.322 249.589 220.96 249.471C215.875 248.403 203.552 248.318 200.298 251.03C199.586 251.623 199.162 252.589 199.857 253.233C199.526 257.251 200.368 261.279 202.281 264.827C200.586 265.149 198.62 265.793 197.976 267.319C197.865 267.647 197.834 267.997 197.887 268.339C197.941 268.682 198.076 269.006 198.281 269.285C199.582 270.899 201.363 272.056 203.366 272.59C206.903 273.667 210.615 274.052 214.299 273.726C217.818 273.583 221.307 273.013 224.689 272.031C228.435 270.641 228.401 268.353 226.977 267.234ZM200.45 253.539C204.094 254.534 207.861 255.002 211.637 254.928C215.755 254.647 219.821 253.849 223.74 252.555C224.079 254.887 223.954 257.263 223.373 259.547C222.791 261.83 221.764 263.976 220.35 265.861C220.008 266.46 219.515 266.958 218.92 267.306C218.325 267.654 217.649 267.84 216.96 267.844C214.587 268.149 208.112 268.319 206.79 267.726C202.501 265.743 200.383 258.539 200.45 253.539ZM214.231 272.184C210.732 272.515 207.202 272.158 203.84 271.133C202.318 270.718 200.918 269.945 199.755 268.878C199.484 268.59 199.044 268.014 199.179 267.658C199.62 266.539 201.773 265.963 202.959 265.759C203.808 267.055 204.976 268.111 206.349 268.827C208.044 269.692 217.434 269.59 219.18 268.692C220.268 268.028 221.19 267.123 221.875 266.048C222.875 266.336 226.367 267.522 226.604 268.471C227.367 271.387 217.282 272.082 214.231 272.268V272.184Z" fill="white"/>
</svg>
